<svg viewBox="0 0 2712 894" fill="none" xmlns="http://www.w3.org/2000/svg"><path fill-rule="evenodd" clip-rule="evenodd" d="M445.433 22.983c7.289 9.05 11.006 21.26 18.44 45.682l162.408 533.511a675.855 675.855 0 00-194.166-65.737l-105.744-357.34a13.763 13.763 0 00-26.408.041L195.5 536.259A675.821 675.821 0 00.46 602.095L163.663 68.541c7.457-24.38 11.186-36.57 18.476-45.602A59.994 59.994 0 01206.454 4.95C217.224.622 229.971.622 255.466.622h116.568c25.528 0 38.292 0 49.072 4.338a60.004 60.004 0 0124.327 18.023zM464.867 627.566c-26.773 22.893-80.212 38.507-141.766 38.507-75.55 0-138.872-23.52-155.675-55.152-6.007 18.129-7.354 38.877-7.354 52.131 0 0-3.958 65.082 41.309 110.349 0-23.505 19.054-42.559 42.558-42.559 40.287 0 40.242 35.148 40.205 63.663l-.002 2.546c0 43.282 26.453 80.385 64.073 96.024-5.619-11.557-8.771-24.536-8.771-38.25 0-41.281 24.235-56.651 52.401-74.514 22.41-14.213 47.31-30.004 64.47-61.682 8.953-16.529 14.038-35.459 14.038-55.577 0-12.372-1.923-24.295-5.486-35.486z" fill="#000"/><path d="M999.148 593.833c67.932 0 118.882-24.168 139.782-65.317 0 19.595 1.31 39.844 4.57 55.52h111.7c-5.23-22.863-7.84-54.216-7.84-95.365v-100.59c0-95.364-56.18-140.433-180.93-140.433-109.085 0-182.241 45.069-190.733 118.879h116.266c3.919-32.006 30.697-49.642 74.467-49.642 43.1 0 67.27 17.636 67.27 54.215v9.796l-118.22 10.451c-57.482 5.88-90.141 15.676-113.003 31.353-24.167 16.328-36.578 41.151-36.578 71.849 0 61.399 50.948 99.284 133.249 99.284zm43.112-67.931c-37.89 0-60.748-15.022-60.748-39.19 0-24.82 18.938-37.885 66.628-43.763l87.52-9.144V453.4c0 43.763-37.88 72.502-93.4 72.502zM1490.77 593.833c113.66 0 171.79-42.456 171.79-111.04 0-56.827-32.66-88.18-111.69-98.631l-98.63-11.103c-28.09-3.921-39.85-11.106-39.85-26.782 0-18.941 18.94-27.433 62.05-27.433 59.44 0 100.59 13.717 133.91 40.498l52.9-52.908c-36.57-37.884-99.93-58.786-178.31-58.786-110.39 0-171.79 39.19-171.79 105.161 0 57.48 37.88 89.486 116.26 99.936l88.84 10.451c35.27 4.573 45.72 11.106 45.72 28.087 0 19.597-19.6 30.048-65.32 30.048-67.93 0-113.65-18.29-144.35-52.255l-60.09 49.641c39.84 49.643 107.77 75.116 198.56 75.116zM1754.78 331.255v137.821c0 80.994 45.72 122.145 143.7 122.145 30.05 0 53.56-3.266 75.77-9.798v-84.915c-11.76 2.614-26.13 5.226-45.07 5.226-41.15 0-61.4-18.288-61.4-56.826V331.255h107.12v-73.81h-107.12V137.914l-113 41.803v77.728h-73.16v73.81h73.16zM2137.13 257.445h-103.2v326.591h113V461.892c0-35.274 7.84-67.279 29.4-87.528 16.98-15.677 41.15-24.166 75.11-24.166 12.41 0 22.21 1.304 33.31 2.611V250.26c-7.18-1.306-12.41-1.306-21.55-1.306-64.67 0-108.43 37.231-126.07 97.978v-89.487zM2508.05 593.833c119.54 0 203.8-63.358 203.8-173.745 0-109.735-84.26-172.44-203.8-172.44-120.18 0-204.44 62.705-204.44 172.44 0 110.387 84.26 173.745 204.44 173.745zm0-75.116c-54.86 0-89.48-35.271-89.48-98.629 0-63.36 34.62-97.325 89.48-97.325 54.22 0 88.84 33.965 88.84 97.325 0 63.358-34.62 98.629-88.84 98.629z" fill="#000"/></svg>