<svg xmlns="http://www.w3.org/2000/svg" xml:space="preserve" id="Layer_1" x="0" y="0" version="1.1" viewBox="0 0 108.3 250.9"><style>.st0{fill:#211e21}.st3{fill:#eac1aa}</style><path d="M43 227.7c.6.6 1.5 1.1 2.3 1.2 1.3.1 2.3.1 2.4 1.4 0 1.3.3 2.3 1.2 2.9.8.7 4 .9 4.6 0s1.6-2.1 1.6-2.1c.2.2.3.5.4.8q.15.45 0 .9c-.2 1-.6 7-.6 7-1.9-.1-3.8.1-5.7.3-2.2.4-7.7.7-10.8 1.2s-8.8 1-11.7.6-4.3-1-3.1-1.6c1.2-.7 6.3-2.1 8-2.8s10.9-8.1 11.4-9.8m15.3 3.7s-2.5-.6-2.7.6c-.5 2.8-.8 5.7-.9 8.6 0 1 .1 1.9-.8 2.8s-.9 3.1.6 3.5 5.5.4 8.4-.2c2.8-.6 4.9-1.2 4.9-2.6s-1.3-3.6-1.7-4.8c-.3-.9-.2-1.9.3-2.7.2-.5.3-1.9 0-2.1s-.8.3-3.8-.6c-3.1-1-4.3-2.5-4.3-2.5" class="st0"/><path d="M66.2 237s-.3-.7-.7-.6c-.4 0-.5 1.3-.8 1.8s0 1.4 0 2.5-.4 1.2-1 1.1c0 .2 0 .4.1.6s.2.3.4.4c.6.3 1.6.1 1.6-.3-.1-1.3-.1-2.5 0-3.8.1-1.1.3-1 .3-1zm-3.9 5s-3.5-.9-4.9-.6c0 0-.7-.8 0-.9s4.3.3 4.7.8c.4.4.2.7.2.7m-.2-2.4s-3.3-.6-4.6-.4c0 0-.6-.6 0-.6s4.1.2 4.5.5c.2.3.1.5.1.5m0-1.5s-3.1-.6-4.4-.4c0 0-.6-.6 0-.6s3.9.2 4.2.5.2.5.2.5m-.3-1.1s-2.7-.6-3.9-.4c0 0-.5-.6 0-.6s3.4.2 3.7.5.2.5.2.5m-.3-1.1s-2.5-.6-3.6-.4c0 0-.5-.6 0-.6s3.2.2 3.4.5c.3.3.2.5.2.5m.7 4.6s-4-.6-5-.4c0 0-.5-.4.4-.5.8 0 4.6.1 4.6.9m-3.6-8.8c-.9 0-1.8.3-2.6.8s-1.4 1.2-1.8 2.1c-1.4 3-.8 4.8.2 4.5 1-.4.7-2.1 2-3.2 1.2-1 2.3-2.2 3.2-3.4 0 0 1.6 1.3 1.7 1.9s-.7 4.5.6 5.1 2.4-.4 1.9-1.9-1.7-4-1.7-4l-.9-.3s1.4 2.4 1.6 3.6c.2 1.3-.1 2.6-.4 1.6s.2-3.7-1.4-5.3c-.6-.2-1.2-.5-1.7-.9-.6-.4-2.4 1.9-3.1 2.7s-1.7 3.1-2 2.5-.1-2.6.9-3.4 3.6-2.3 3.6-2.3zm-22.2 5.6s-1.4 1.1-1.2 1.2c.5.4 1.1.6 1.8.7.6.1 1.3.1 1.9-.1 2.1-.6 6.8-3 7.7-2.8s2.3 1.1 4.2 1.3c1.4.1 2.8.1 4.1-.1l.3-2.6c-.2.5-.6.9-1.1 1.1s-1 .4-1.5.3c-1.9-.2-4.8-.9-5.6-1.5s-2.1.2-2.9.5-3.9 2.1-4.7 2.2-2.7.3-3-.2m-1.8-.2s-1.4-.5-2.2-.1c0 0 .4-1.1 1.3-.9 1 .1 1.8.5.9 1m.1-1.7s1.6.6 1.7.9.3-.9 0-1.2-1.6-.7-1.7.3m1.4-1s1.3.4 1.5 1.2.7-.7.3-.9c-.4-.3-1.2-1.7-1.8-.3m2.8-2.6s1.3.4 1.5 1.2.7-.7.3-.9c-.4-.3-1.2-1.7-1.8-.3m1.5-1.3s1.3.4 1.5 1.2.7-.7.3-.9-1.2-1.6-1.8-.3m-3.1 2.9s1.5.1 1.6 1.3c0 0 .9-1 .6-1.3-.4-.4-.9-.7-1.5-.8-.5-.1-.7.6-.7.8m5.1-4.8s1.2.3 1.2.8.1 4.5 0 5.6-.1 2.3-.1 3.5h-.3s.4-2.4 0-3.8-.8-5.2-.6-5.6-.6.6-.8.1c0-.1-.1 0-.2.1q-.45 1.95-.3 3.9c.1 1.6-.9 3.4-1.8 3.2s-2.2-2.5 1.7-6.5c0 0-2.5 4.7-2 5.1s1.5-.2 1.7-1.1.5-4.2.5-4.2.3-2-.5-2c-1.2 0-2.5.3-3.5 1-1.3.9-2 2.2-1.4 2.7.4.3.8.4 1.3.4s.9-.1 1.3-.4c.8-.6 1.7-2.4 2-2.1.2.1.3.2.4.4l.2-.2s-.5-.8-1-.6-.9 1.4-1.9 1.9-2.5 1-2.3 0 1.4-1.7 2-2c.7-.4 1.5-.7 2.2-.9.3 0 1 1.8 1 1.8s.6-1 1.2-1.1m-19.1 11.9s-1.2.5-1.4 1.1c-.2.7-.6 2.1 1.4 2.8s6 1.7 9.7 1.1 7.4-1.4 10.7-1.6 9.9-.7 10.5-1.1 1.3-2.4.8-3.1c-1.2-.1-2.4-.1-3.6.1-2.3.3-5.8.7-7.2.8s-5.5.5-7.8.9c-3 .4-6 .6-9 .3-1.6-.1-4.3-.7-4.1-1.3m30 4.7c-.2.6-.3 1.2-.4 1.9 0 .6-.5 3.9 3.3 3.9s8.8.3 10.4-1.8 1.4-3.4 1.2-5.8c0 0 .4 1.3-1.2 2.1-1.6.7-3.4 1.1-5.1 1.3s-3.3.2-5 .2c-1.2-.1-3.1.1-3.2-1.8" style="fill:#fff"/><path d="m43.2 225.6-.2 2.1s6.3 13.5 12.1 3.4v-4.3s-1.5-2-5.4-1.8c-2.2 0-4.4.2-6.5.6" style="fill:#2c2b30"/><path d="M56.6 32.9c-1.6-2.1-3-4.5-4-7 0 0-1.1.7-1.4.3s-.2-1.6-.3-2.2-.3-2.2-1.1-2.4c-.4 0-.8.1-1.1.3s-.6.5-.8.9c-.5.9-.9 2-1.5 2.1-2.8.4-8.4-3.7-10.3-4.4-2-.8-3.6 1.6-4.9 3-1.3 1.5-4.7 2-5.9-.4.2 1 .4 2.1.8 3.1.4.8.8 1.5 1.1 2.4.1.5.2 1.6.6 2 .5.4 1.4 1.2 1.6 1.4s2.1 1.7 2.4 3.9-.2 3.5 1 3.5c.7 0 1.3 0 2-.3 0 0-.1 4.3 2 5.3 1.5.8 2.9 1.9 4.1 3.1 0 0 .4 5 4.7 5.5s4.3.2 4.3.2c.2-.4.4-.8.5-1.3s.2-1 .5-1.4c.6-.7 1-1.4 1.4-2.3.5-1.3 2.3-5.6 2.3-5.6s2-4.8 2.1-5c0 0 1.3-3-.1-4.7M23 86.2l-.5 2.4c-.1.3-.4.2-1.2.3s-3.9-.2-4.4 0-1.7.4-1.8 1.2c-.1.5-.1.9 0 1.4 0 0-3.8 2.5-3.9 2.8-.4.4-.6 1-.7 1.5 0 .5.5.8 1.1.8s3.1-.2 3.1-.2-1.2 1.6-.5 2.1c.7.4 1.6.5 2.5.3 0 0-1 1.1-.1 1.4.7.2 1.3.4 2 .5 0 0-.4.7.9.8s2.1-1.3 2.7-1.6 1.2-.8 1.8-1.2c.4-.3 1.2-1.5 1.2-2 0-.2-.1-.3-.2-.4l-.3-.3c-.1-.1-.3-.2-.4-.2h-.5s-.5-1-1.1-.9c-.3 0-.5.1-.8.3 0 0-2.8 2.3-3.5 2.6s-1.2.6-1 .4 2.7-2.1 2.7-2.6-.1-1.6-1.3-1.2-1.6.8-2.6 1.2-1.6.8-1.1.3 1.2-.8.8-1.6-1.6-.6-2.1-.4-2 .3-1.9 0 3.3-2.2 3.3-2.2l9.5 6.4c.7-.4 1.3-.9 1.8-1.6.4-.7 1.8-.4 3-.9.4-.2.7-.4.9-.7s.4-.7.5-1c0 0-.2-7.6-.3-7.9s-.8-.7-1.2-.7-2.8-.2-3.7-.1c-1 .1-2.6.6-2.7 1" class="st3"/><path d="M28.6 134.6s0 10.1.8 15.9 3.3 13.1 3.3 14.8c0 1.8.1 8.6.4 10.9s.7 5.1.9 6.5.2 3.9.4 5 2.2 3.1 2.2 3.7-.7 2.5-.7 4 1.6 2.6 1.5 3.4.2 6.3.4 8 .2 5 .7 6.4c.5 1.5 1.1 3 1.9 4.5.5 1 .8 2.1 1 3.1 0 0-.9-.5-1 1.2 0 1.8-.2 2.9 2.8 3.5s6.4-.2 7 0c.7.1 1.4 0 2-.1 0 0-.5-1.5.1-5.7s-1.2-5.9-1.6-7.9-1.3-13-1.5-14.8-1.8-10.3-.2-10.9c.7-.7 1.6-1.4 2.4-1.9.8-.4 6.1-3.2 8.7-4.2q3.6-1.65 7.5-2.7c2.4-.6 5.3-1.5 5.6-1.6s-.4-14-.3-14.6 2.4-7.5 2.4-9-.5-6.4-.5-6.4L72.5 135s-43-4.1-43.9-.4" style="fill:#292834"/><path d="M52.6 165.3s-.3 4.1-.6 5.4c-.2 1.4 0 2.9.6 4.1.7 1.2.5 4.5 0 5.6-.5 1 .8 2.6-.1 3.3l2.6-1.3c-.3-1-.6-2-.8-3-.1-.8.1-4-.2-5.6s-.9-4.1-.8-5.2c-.1-1.2-.6-4.2-.7-3.3" style="fill:#ccdaf1"/><path d="M56.6 32.9s1.2-.8 1.7 0 3.3 3.5 3 3.9c0 0 2.2 1 3.4 1 1.1 0 2.1.2 2.2.4s2.4 1.6 5.8 3.1 5.3 2.6 5.9 3.5c.6.8 1.3 1.5 2 2.5s2.3 7 3 8.7.6 5.6.8 7.5.2 6.6.6 7.7c.3 1.1.9 3.5 1.2 4.9s.7 5.6 1.4 6.4-3.6 3.7-3.6 3.7-10.2 4.1-10.5 3.3c-.3-.7 4.3 26 1.5 34.4s-5.6 7.9-6.1 8.4-3.8 4.5-4.5 5-2.8 1.6-4 1.6-5-1-6.9-1-9.2.2-9.4-.2-.1-5.9-.5-10.5-1.7-13.6-1.9-14.7-.6 9.8-1.2 12.3-1.5 4.6-1.9 6.3-.4 4.5-1 6.3-.3 3.5-.7 3.6-2.4-1-3-1.1c-1.2-.4-2.2-1.2-2.9-2.3-.5-.9-2.5-3.1-3-3.3s-.1-1.3 0-1.6.1-2.7.5-4.1c.5-2.2.9-4.5 1-6.8.1-2.6.4-6 .5-6.9 0-.9.5-14.5.7-15.5s-.4-11.9-.4-12.6V86c-.2-.2-.4-.4-.6-.5s-.5-.2-.8-.2c-.8 0-3.2-.1-3.5-.1s-2 .3-2.6.9-2.5-.2-2.6-.4c-.2-.2-.4-4.5-.4-6.3s1.1-4.7.8-8-.5-8.9.4-13.3c.9-4.3 1.8-7 2.5-8.1.8-1.1.8-2.5 1.3-3.2.4-.7 1.9-2.5 3-3 1-.4 3.7-1.5 4.3-1.8.9-.4 1.8-.8 2.7-1l6 6.4s-.1 4.7.1 5.8 1.4 5.3 1.4 6.3c.1 1 .9 6.2 1.3 6.3s1.2-2.4 2.2-4.9c.9-2.5 3.5-7 4.1-8.1s.1-1.5 1.1-2.6 1.8-3.8 2.8-6 2.7-6.2 3.2-7.7.1-3.1-.4-3.6" style="fill:#353538"/><path d="m40.6 27.6-3.8 3.7v.5s-3.9-.6-5.1.4h-1.1c-.2 0-1.3-1.2-5.4-.9l1.9-2.5c0-.4-.1-.7-.3-1l-2.9 3.9s2.6 3 4.8 3.6c2.2.5 3.1.6 2.8-1.8l.2-.1s1.1 1.9 3 2.2 3.9.4 4-.6-1.2-2.6-1.2-2.6l4.3-4.9c-.3.1-.7.1-1.2.1" class="st0"/><path d="M84 83.6s-.3 4.6 0 5.9.5 6.3.5 8q-.15 4.35-.9 8.7c-.6 2.4-1.2 8-1.5 10.1s-.5 4.9-.5 6.4c-.1 1.5-.8 4.4-.8 5.1s.8 3.7.9 4.4c.1.9.2 1.7.4 2.5.2.4-.1 2.5-.1 2.7s.1 1.7.1 2.1l-.1 1.7c-.2.6-.4 1.1-.7 1.7-.1.2-.9 1.7-.9 2.2.1.4-1.1.1-1-.8l.3-1.5c-.3.4-.6.8-1 1-.8.5-1.1.3-1.1.3-.2.2-.5.4-.8.4-.4-.1-.8-.2-1.1-.4-.2.3-.4.6-.5 1-.1.3-.3.5-.5.7s-.5.4-.7.5c-.3 0-1.1-.1-1.1-1.4s.2-2.1-.1-2.4-.3-2.1-.3-2.3-.6 0-.9-.3-1.7-.2-2.2-.9c-.5-.6-.6-2.9-.4-4.1s.5-3 .6-3.7c.4-1.3 1-2.6 1.7-3.8.6-.9 1.2-.7 2-4.5.6-3.2.9-6.4.9-9.7 0-1.1.3-6.5-.1-8.9-.4-2.3-.5-14-.6-15 .9-.3 1.7-.8 2.4-1.3 1.6-1.1 4.1-1.3 5.3-2.5 1.2-.9 2.5-2.2 2.8-1.9" class="st3"/><path d="M100 175c-.2-.2-3.3-.8-6.6-1.1s-11.7-.8-13.2-.5-7.1 2.3-8.8 2.9c-1.8.6-5.3.9-9.5 2.8s-8.1 3.4-10.4 5-3.3 2.3-3.2 3.8 1.2 9.7 1.4 13.7.6 9.5 1.3 10.8 1.6 3.8 1.5 5.2-.7 6.7-.3 7.7 2.8 3.6 3.4 3.3c0 0 1.2 1.9 2.1 2.4s4 3 8.7 3.1 15.6-.1 18.3-1 15.9-8.9 16.9-9.1 2.8-1.2 3.1-2.3-.4-8.7-1-13-1.8-8.4-1.8-9.3-.2-5.5-.2-9.4c-.1-3.8-1.2-7.3-1.3-7.8-.2-.3.1-6.6-.4-7.2m-27.7-34.7s-2.4.2-2.7 5.8-1 14.7-1 15.4-1 15.6-1 16.5-.6 12.9-.8 13.7-.6 3.7-.6 3.7l2.2-.3s0-2.6-.4-3.4-.2-7.8.2-8.6 2.1-11.6 2.4-13.8c.4-2.3.7-19.4 1-21.8s.8-4.5 1.2-4.5zm5.3 4.3s-.1 6.5 0 10.7 1.4 11.4 1.5 13.4.2 4.9.2 4.9l5.5-.2s-.4-3.4-.4-4.8-1.2-5.6-2.3-11.7-1.9-12.7-2.2-13.6-2.2.5-2.3 1.3" style="fill:#a8c6bc"/><path d="M7.8 91c.3 0 6-.1 6.4 0 .2.1 7.2 4.7 7.2 4.7s-3.5 2.6-3.8 2.7 2-1.9 2.3-2.3c.1-.2.2-.4.2-.6s0-.5-.1-.7c-.2-.4-.7-.6-1.3-.4s-1.8.8-2.2 1-1.5.7-1.5.7 1.2-.6 1-1.4c0-.1-.1-.3-.1-.4l-.3-.3c-.1-.1-.2-.1-.4-.2h-.4c-.5 0-1.2.2-1.7.2-.6.1-1.3.1-2 0-1.2-.6-2.4-1.3-3.5-2.2.1-.1 0-.8.2-.8" style="fill:#d6d4d4"/><path d="M25.2 23.1S22 21 22.6 17.8s0-3.8.5-4.8 3.2-2.7 4.2-4.2 2.2-1.3 2.7-2.3 2.3-2.3 3.5-2.3 3.6.3 4.4 0 4.5-.4 5.5 0c.9.4 1.3 2.1 1.3 2.1.9-.1 1.8.1 2.6.4s1.6.9 2.2 1.5c1.9 2.3 2.6 2.8 3 2.9s1.2.9.8 3.7-.6 7.7-.3 9.1.2 1.8 0 2l-.3.1-.3.1-1.4.6v-1.5c0-.7-.1-1.3-.2-2-.1-.4-.3-1.2-.7-1.5-.3-.1-.7-.1-1 0s-.6.4-.8.6c-.4.7-.7 1.5-1 1.8s-1.1 1.5-1.3 1.8c-.1.8 0 1.6.4 2.3.5.6.9 1.3 1.3 1.9 0 .2.2.4.3.6s.3.3.5.4c.3.1 1.4.2 1.6.6s1 .2 1.2.4c.2.3-.3.8-.2 1.2.2.6.3 1.2.4 1.8.1.5-.5 1-.2 1.6s.9.5.9.9-.5 1-.7 1.4.1 1.1.1 1.7-.8.8-1 1.2-.7.1-1.1 1.2c-.1.4-.4.8-.7 1.1s-.7.5-1.2.5c-.3.1-.6.2-.9.4s-.5.5-.6.7-.3.3-.5.4-.4.1-.6.1c-.5 0-1.5.1-1.5.4-.1.3.1.4-.9.7-.7.2-1.4.4-2.1.5-.5 0-1.2-.7-1.5-.7s-1-.1-1.1-.4-1.2-.8-1.3-1.1c-.2-.4-.6-.8-.9-1.2-.2-.2-1.1-1-1.1-1.2v-2c0-.2-.5-.6-.5-.8s-.9-.1-1-.3.4-1 .6-1 .6-.6.8-.8c.3-.3.6-.5 1-.5.2 0 .4-.1.5-.2.2-.1.3-.2.4-.4.2-.2.3.6.8.6s1-.5 1.4-.5.8-.4 1 .2c.3.6 1 .4 1.2.7s.7 1 .9 1.2.8.3.8-.2.1-1.5.4-1.5c.2 0 0-.7.3-.9s.4-1.3.7-1.5c.3-.3.2-2.1.5-2.4s.8-1.1.8-1.6c0-.4-.2-.8 0-.9s-1.1-1.4-1.5-2c-.3-.6-.7-.8-.7-1.6 0 0-4.8 1.6-5.7-1.2s-.2-5-.8-5.3c-.6-.2-2-1-3.6.8-1.6 1.7-2.5 3-3.9 3.1-1.2.4-2.8.5-3.8-1.2" style="fill:#805232"/></svg>