<svg xmlns="http://www.w3.org/2000/svg" xml:space="preserve" baseProfile="tiny" overflow="visible" version="1.2" viewBox="0 0 254.6 175"><path fill="none" d="M171.8 126.5c0 .2-.1.4-.1.6h.1zM164 93.5l.3-.1c-.3-.3-.7-.4-1.2-.4l-.6 4.1.1.1c1.5 0 2-1.1 2.2-2.1v-.6zM83.3 77.4l-.2.1.6.3zM165.9 94.3h-.4v.6l1.8-.4zM85.4 77.6s.1-.1 0 0l-.6-4.2h-.3v.6l-1.3.6v.2l.8.2v1.6l-.3.2c.5.5 1 .8 1.7.8M64.8 99.7H63c-.2 2.4.1 5.9 2.1 9.4 7-.3 30.4-1 32 1.9 1.1 2 1.7 3.8 2.5 6.9.3.2.6.4.8.5l4.4-13.5H66.5V100c-.1 0-.2-.1-.3-.2-.5-.1-1-.1-1.4-.1M157.3 142.5c.1-1.5.1-3.1.2-4.6-1.4-2.4-2.7-4.7-3.9-6.8zM85.2 145l-.6-1.7.4 1.8v-.2z"/><path fill="none" d="m189.4 102.5 2.1.4-.5-.5s.2-.7.4-1.8c-7.9-1.5-15.4-2.9-15.4-2.9l.6-2-.8-.3-3.4.7-2.6-.7-1.5 1.3-.7-.2.3-1.2-1.8.3-.6-.5c-.3 1.7-1.3 2.7-2.8 2.7h-.4c-.1.2-.1.3-.2.4h2.8l-1.4 1.6h13.9v4.9H145l3 9.1c.6-1.4 1.4-2.7 2.1-3.4 1.5-1.7 36.3-6.6 39.3-7.9M88.6 164.7l2.3 3.2 2.5 1.6-3.7-11.1-1.6 3.7zM172.1 124.2s-.1.5-.2 1.5c.1-.4.2-1 .5-1.5zM87.3 126.8c.1.2.2.3.2.3 1.4 0 2.6.9 3 2.2.3-.6.6-1.3 1-1.9 0 0-1.7-.3-4.2-.6"/><path fill="#B8BEC4" d="m162.4 97.9-.1-.1c-.1 0-1.5-1.1-1.5-2.7s1.1-2.9 2.4-2.9h.1l.1-.9h-8.2l1 6.1c0 .3.2.6.3.8h5.7c.1 0 .1-.1.2-.3"/><path fill="#B8BEC4" d="M163.2 93c-.9 0-1.6 1-1.6 2.1 0 .9.7 1.7 1 2z"/><path fill="#B8BEC4" d="M160.8 95.1c0 1.6 1.4 2.6 1.5 2.7l.1.1h.4c1.5 0 2.5-1 2.8-2.7l-.2-.2.2-.1v-.6l-.7.1v.6c-.2 1-.7 2.1-2.2 2.1 0 0-.1 0-.1-.1-.3-.3-1-1-1-2 0-1.2.7-2.1 1.6-2.1.5 0 .9.2 1.2.4l.7-.3-1.3-.4-.6-.5h.1-.1c-1.3.1-2.4 1.4-2.4 3M165 98.3h-11.7l1.4 1.6h8.9zM104.3 98.3H92.6l1.4 1.6h8.9z"/><path fill="#150303" d="m176.1 164.6-1.9 6 7.6-5.6-2.9-4.5-3.8 2.9zM191.5 103l-2.1-.4c-3 1.3-37.8 6.2-39.4 8-.7.7-1.5 2-2.1 3.4l5.6 17.2c1.2 2.1 2.6 4.4 3.9 6.8.4-9.1.7-17.5.6-19.2-.2-3.8 6.1-10.7 8.1-10.5 1.7.1 17.6-3 26.1-4.4-.2-.5-.5-.7-.7-.9M167.1 154.2l1.2 2.1 2.4-13z"/><path fill="#150303" d="M171.9 162.3c.9 1.6 1.5 2.5 1.5 2.5l1.8-1.4 3.8-2.9s-1.5-4-3.4-9.2z"/><path fill="#F5F2EB" d="m163.2 165.9.6 1.7h1.7l-1.5-4.5-.2.7c-.3 1.3-.6 2.1-.6 2.1M153.6 131.1l-5.6-17.2-3-9.1h-7.2l19.2 46.1c.1-2.6.3-5.5.4-8.4zM93.2 145.6l.9.1-1 2.6.2 1.3 4.4-10.6c-.2-.4-.4-.7-.6-1-1.5 2.5-2.8 5.1-3.9 7.6M100.3 118.3c.2.2.4.4.5.6 1.3 2.2 2.6 4.2 1.4 8.7 0 .1.1.2.1.3l9.6-23.1h-7.2zM84.2 167.6h.7l-.6-.3zM88.1 162.1l1.6-3.7-.2-.6-1.4 3.9z"/><path fill="#D9CDBC" d="m38 143.3-4.9 26.3h3.6L46.9 139h-7.5zM93.4 169.6h.1zM85.8 145c.4-2.1.8-4.1 1.3-6h-3.2l.8 4.3.6 1.7zM89.5 157.8l.2.6 3.7 11.1.1.1h3.6l-3.8-20-.2-1.3zM32.3 113.3c1.7.9 3.4 1.9 5.2 2.7.2-.8.5-1.3.5-1.3 5.4-16.7 2.5-25 2.5-25-.5-2.4-.5-6.1-.4-9.4-.6-2.2-.9-3.9-.8-5.2-1.4-5-3.3-8.5-6.2-8.9-10.3-1.4-16.2 0-16.2 0 10.2 1.4 8.1 42.8 15.4 47.1"/><path fill="#373462" d="M101.9 126.2c.1.4.3.9.4 1.3 1.2-4.4-.1-6.5-1.4-8.7-.1-.2-.3-.4-.5-.6s-.5-.4-.8-.5c.5 2.2 1.2 4.8 2.3 8.5M87.3 126.8c2.5.3 4.2.6 4.2.6-.3.6-.7 1.3-1 1.9.1.3.2.6.2 1v5.4c0 1.8-1.4 3.2-3.2 3.2h-.4c-.5 1.9-.9 3.9-1.3 6l7.4.6c1.1-2.5 2.4-5.1 3.9-7.6v-.1c-4.2-6.7-6.5-13.1-8.4-19.7 0 0-2.4 1.9-6.2 4.1 2.8 1.8 4.3 3.8 4.8 4.6"/><path fill="#3D3F56" d="m90.9 167.9-2.3-3.2.9 4.9h4l-.1-.1zM82.8 160.3 82 166l2.3 1.3.6.3.4.3zM85.8 145h-.6l-.2-.1v.2l3.1 16.6 1.4-3.9 3.6-9.5 1-2.7h-.9z"/><path fill="#E5DDD1" d="M83.8 139h3.6c1.8 0 3.2-1.4 3.2-3.2v-5.4c0-.4-.1-.7-.2-1-.4-1.3-1.6-2.2-3-2.2l-55 7.9v-5.8h-4.8c-.1.4-.2.7-.2 1.1v5.4c0 1.8 1.4 3.2 3.2 3.2h53.2"/><path fill="#E5DDD1" d="M38.8 139h-7.6l-5.7 30.6h3.7l8.8-26.3 1.4-4.3zM88.1 162.1v-.4L85 145.1l-.4-1.8-.8-4.3h-8.1l7.1 21.3 2.5 7.6.6 1.7h3.6l-.9-4.9z"/><path fill="#434078" d="M101.9 126.2c-1.1-3.7-1.8-6.3-2.3-8.4-.8-3-1.4-4.9-2.5-6.9-1.6-2.9-25-2.1-32-1.9v.1s0 1.2-4.3 2.4c17.9 1.4 26.9 4 26.9 4l1.1 2.6c1.9 6.6 4.3 13 8.4 19.7v.1c.2.3.4.7.6 1 .4.6.8 1.3 1.3 2.1l6.1-4.5c-.9-2.6-1.8-5.6-2.7-8.7 0-.1-.1-.2-.1-.3-.2-.4-.4-.8-.5-1.3"/><path fill="#3D3F56" d="m98.8 141.3 7.9 15.2 8.2 1.1-4-5-4.6-16.9-1.2.9-6.1 4.5z"/><path fill="#373462" d="M45.1 116.7c-6.9 1.9-7.2-2-7.2-2s-.2.5-.5 1.3c7.9 3.9 16.7 6.6 29.4 4.3 7.3-1.4 12.3.1 15.5 2 3.9-2.2 6.2-4.1 6.2-4.1l-1.1-2.6s-8.9-2.6-26.9-4c-.9.3-2 .5-3.3.8-4.9.9-6.2 2.7-12.1 4.3"/><path fill="#FEC4AD" d="M64.8 78.6c.1 2.8.5 6.4 1.7 9.6 1.2 3.1-.8 6-2.1 7.5 2.6.3 5.1.6 7.2 1 .1 0 .2 0 .3.1q1.05-1.2 2.1-3c3.6-5.9 8.1-14.5 8.1-14.5L78.5 78s-.9 2-3.5 5.6c-3.2 4.3-6.5 6.8-6.5 6.8s-1.4-8.3-2.1-11.9c-.3-1.3-.8-2.4-1.3-3.3 0 .8-.1 2-.3 3.4M66.5 99.9h1.4c.2 0 .4-.1.7-.2h-2.3c0 .1.2.2.2.2M62.7 72.7c-.6-.5-1.2-.8-1.7-1 0 .1-.1.2-.1.3z"/><path fill="#471A16" d="M55.1 49c2.2-.1 5.3 2 5.3 2l.7 4.5s-.8-.1-2.1-.8c.2 1.6.5 3.4.4 4.8 0 2.4-.6 6.4-2.3 7.5-.4.2-.9.4-1.4.4.3 1.5 1 3 2.6 3.7l1.7.5 1 .4c0-.1.1-.2.1-.3.1-.4.2-.8.2-1.4.2-2.3-1.4-5.9-1-7.8s3.3-10.2-1.5-13.5c-2.5-1.8-6.7-1.7-7.6-1.2l2.1 1.6c.3-.2.8-.4 1.8-.4"/><path fill="#471A16" d="M40.4 72.5v-.3l2.5-.5c-.9-1.5 1.7-5.3 1.7-5.3l.8 1.8c.3-2.4.6-5.6.6-7.2 0-2.8-.3-7.1 2.1-9.5s4.6-1.5 4.6-1.5 0-.3.5-.5l-2.1-1.6s-3.5-.7-5.8 2.3c-2.2 3-1.8 7.6-2.5 11s-4.6 6.8-4.7 9.4c0 1 .6 2.1 1.3 3.1.4-.6.7-.9 1-1.2"/><path fill="#471A16" d="M52.9 49.9h-.1s-.1 0-.1.1c0-.1.1-.1.2-.1"/><path fill="#FEC4AD" d="M52.9 49.9h-.3c-.7.4-1.3 3.4-1.4 5.1-.1 1-1 1.9-1.7 3.2L50 61l5.6 3s-.2 1.6.1 3.4c.5 0 1-.1 1.4-.4 1.7-1 2.2-5 2.3-7.5 0-1.4-.2-3.2-.4-4.8q-.75-.3-1.5-.9c-2.3-1.4-3.3-3.6-4.6-3.9M64.8 78.6c.2-1.4.3-2.6.2-3.5 0-1-.1-1.6-.1-1.6s-.2 2.2-.1 5.1"/><path fill="#FEC4AD" d="M55.6 64 50 61l.1.4s-.5-.1-1.1-.4c0 .4.1.8.2 1.2.8 3.6.7 7 1.5 10.8 2.1 1.1 4.3 1.9 4.3 1.9 2.3-.6 3.4-3.8 3.4-3.8-1.6-.7-2.3-2.2-2.6-3.7-.4-1.8-.2-3.4-.2-3.4"/><path fill="#FF6B10" d="M63 99.7c-4.9.1-12.2.4-13.1 0-1-.5-5.9-8.4-7.2-11.8q-1.8-4.5-2.7-7.5c-.1 3.3-.1 6.9.4 9.4 0 0 3 8.4-2.5 25 0 0 .4 3.9 7.2 2 5.9-1.7 7.2-3.4 12.4-4.4 1.3-.2 2.4-.5 3.3-.8 4.3-1.2 4.3-2.4 4.3-2.4v-.1c-2.1-3.5-2.3-7-2.1-9.4"/><path fill="#FF6B10" d="M60 71.6s.8 6.3-2.3 7.2c-2.2.7-2.8-3.9-2.8-3.9s-1.2 3.2-4.1 3.4c-.7 1.1-2 1.7-2.8 2.3.1.5.3 1 .4 1.5.6 2.5 3.4 11.3 4.4 12 .7.5 6.2.9 11.6 1.5 1.3-1.5 3.2-4.3 2.1-7.5-1.2-3.2-1.6-6.7-1.7-9.6-.1-3 .1-5.1.1-5.1l-2.2-.9-1.8-.5zM43 71.7l-2.5.5v.3c.3-.2.6-.3 1-.4.8-.2 1.5 0 2.2.4-.2-.2-.3-.5-.5-.7-.1 0-.2-.1-.2-.1M46.4 76.2c.4.8.7 1.7 1 2.5-.1-.5-.2-1-.5-1.5-.2-.3-.4-.7-.5-1"/><path fill="#FFF" d="M54.9 74.9s.6 4.5 2.8 3.9c3-.9 2.3-7.2 2.3-7.2l-1.7-.5s-1.1 3.2-3.4 3.8M50.6 73c.1.6.3 1.1.4 1.7.5 1.6.3 2.7-.3 3.5 2.9-.2 4.1-3.4 4.1-3.4s-2-.7-4.2-1.8"/><path fill="#471A16" d="M50.8 78.3c.5-.8.7-1.9.3-3.5-.2-.6-.3-1.2-.4-1.7-.8-3.8-.6-7.2-1.5-10.8-.2-.5-.2-.9-.2-1.3-.8-.4-1.9-1-2.3-1.7-.7-1.2-.5-2.7.5-2.9s2.4 1.5 2.4 1.5v.2c.6-1.3 1.6-2.1 1.7-3.2.2-1.7.8-4.7 1.4-5.1 0 0 .1 0 .1-.1 0 0-2.2-.9-4.6 1.5s-2.1 6.7-2.1 9.5c0 1.6-.3 4.8-.6 7.2l1.1 2.4c.7.5.2 3.1-.2 5.7.1.3.3.7.5 1 .3.5.4 1 .5 1.5.2.6.4 1.2.6 1.9.9-.4 2.1-1 2.8-2.1"/><path fill="#FEC4AD" d="m50 61-.4-2.9v-.2s-1.4-1.7-2.4-1.5-1.1 1.7-.5 2.9c.3.7 1.4 1.3 2.3 1.7.6.3 1.1.4 1.1.4z"/><path fill="#471A16" d="M57.5 53.9q.9.6 1.5.9c1.3.7 2.1.8 2.1.8l-.8-4.6s-3-2.1-5.3-2c-1 0-1.5.2-1.8.4-.4.2-.5.5-.5.5h.1c1.4.3 2.4 2.5 4.7 4M46.6 70.5l-1.1-2.4-.8-1.8s-2.6 3.8-1.7 5.3c0 .1.1.1.1.2.2.2.4.4.5.7 1 .7 1.9 2 2.8 3.7.4-2.6.9-5.2.2-5.7"/><path fill="#B8BEC4" d="M87.3 75.6c0 1.6-1.4 2.6-1.5 2.7l-.1.1c.3.8 1 1.3 1.9 1.3H90c1 0 1.8-.7 2-1.7l1-6.1h-8.2l.1.9h.1c1.2-.1 2.3 1.2 2.3 2.8"/><path fill="#B8BEC4" d="M86.5 75.6c0-1.2-.7-2.1-1.6-2.1l.6 4.1c.3-.4 1-1.1 1-2"/><path fill="#D4DBE2" d="m83 74.7.2.1v-.2z"/><path fill="#D4DBE2" d="M84.6 73.4c.1.1.2.1.3.1.9 0 1.6 1 1.6 2.1 0 .9-.7 1.7-1 2l-.1.1c-.8 0-1.3-.3-1.6-.7l-.6.5c.1.2.3.3.5.4l.8.4c.3.1.5.1.8.1h.4l.1-.1c.1 0 1.5-1.1 1.5-2.7s-1.1-2.9-2.4-2.9h-.1c-.7 0-1.3.3-1.7.7l.3-.1h1.2z"/><path fill="#FEC4AD" d="m84.6 78.2-.8-.4-.6-.3.2-.1.6-.5.3-.2V75l-.8-.2-.5-.1-.1.1-.7 1.4-1-.3-1.1-1.9s-1 2.9-1.5 3.9l3.6 1.3z"/><path fill="#FEC4AD" d="m82.2 76.2.7-1.4.1-.1.3-.1 1.3-.6v-.6H83l-2.9.6 1.1 1.9z"/><path fill="#F5F2EB" d="M177.4 104.8v-4.9h-47.5v.7h-6.6v-.7H66.5v4.9H145z"/><path fill="#E5DDD1" d="M32.3 113.3C25 109 27.1 67.6 16.8 66.2 6.6 64.7-.3 71.9 1.3 76.3c1.7 4.3 25.5 52.9 25.5 52.9h5.6z"/><path fill="#E5DDD1" d="M82.4 122.3c-3.2-1.9-8.2-3.3-15.5-2-12.7 2.4-21.5-.3-29.4-4.3-1.8-.9-3.5-1.8-5.2-2.7l.1 15.9v5.8l55-7.9s-.1-.1-.2-.3c-.4-.8-1.9-2.8-4.8-4.5"/><path fill="#D9CDBC" d="m208.4 139 10.2 30.6h3.7l-4.9-26.3-1.5-4.3zM160.9 169.6h1l1.2-3.7-1-.3zM171.5 139h-1.7c-.4 2-.7 3.9-1.1 5.7-1.4 6.3-3.8 15.1-4.9 19.1l.2-.7 3-8.9 3.7-10.9zM220.7 78c.1 1.7.1 3.4-.1 4.8-.9 6.5-.7 26-3.2 28-.4.4-1.1.6-1.9.8 0 0-.7 3.7-3.3 6.9 3.8-1.5 7.3-3.3 10.7-5.3 7.3-4.3 5.2-45.7 15.4-47.1 0 0-5.9-1.4-16.2 0-.8.1-1.5.5-2.1 1 2 2.6 1.7 6.6.7 10.9"/><path fill="#E5DDD1" d="m222.9 135-51.1-7.9h-.1c-.4 2.9-1.1 7.4-1.9 11.9h54.7c1.8 0 3.2-1.4 3.2-3.2v-5.4c0-.4-.1-.8-.2-1.1h-4.8zM215.9 139l1.5 4.3 8.8 26.3h3.6l-5.7-30.6h-7.5zM171.5 139l-.8 4.3-2.4 13-2.5 13.3h3.6l2.5-7.3 3.6-11 4.2-12.3h-7.6z"/><path fill="#E5DDD1" d="M238.5 66.2c-10.3 1.4-8.1 42.8-15.4 47.1l-.1 15.9h5.6s23.9-48.6 25.5-52.9c1.6-4.4-5.4-11.6-15.6-10.1"/><path fill="#FEC4AD" d="M210.7 56v.3c1-.3 2.5-1 3-2.4.7-2.2-1.7-4.3-3-2.6s-2.5 1.3-2.5 1.3-.2-2.6 1-3.4c2.3-1.4.8-6.3-1-5.7s-3 1.4-5.1.2c-.6 1.5-1.1 2.8-1.3 3.9-.2 1.4-2.3 2.9-3.2 3.5-1 .6 1 2 1 2s.3 1.8 0 4.8c-.1 1.3 2.3 1.7 3.6 2.3h.1c.1-1.1.2-1.9.2-1.9z"/><path fill="#471A16" d="M208.2 43.5c1.8-.6 3.3 4.2 1 5.7-1.2.8-1 3.4-1 3.4s1.2.5 2.5-1.3c1.3-1.7 3.7.4 3 2.6-.5 1.4-2 2.1-3 2.4.1.7.4 2.8.7 4.7 2.1-1.9 7.1-5.2 8-8.4 1.1-3.7-.6-4.4-.6-4.4s1.3-1.9 0-4.9-8.9-3.8-11.7-5.1c-6.1-2.8-6.5 4.2-4.1 5.6 2.1 1.1 3.4.3 5.2-.3"/><path fill="#FEC4AD" d="M211.6 62.1c-.1-.4-.1-.8-.2-1.2-.3-1.9-.6-3.9-.7-4.7v-.3l-7.3 2.3s0 .9-.2 1.9c-.1 1.1-.4 2.5-.9 3.1l-.1 3.7z"/><path fill="#D4D8D9" d="M209.2 74.3c1.7-10.6 5.3-10.9 9-8.9l-5.6-3.8-.9.5-9.5 5 .1-3.7-3.4 3.3s-2.9 12.5-4.4 20.1c-.4 2.1-.8 4.3-1.3 6.3l12.1.2c0-.1 2.4-9.8 3.9-19"/><path fill="#D4D8D9" d="M220.7 82.8c.2-1.4.2-3.1.1-4.8-.3 1.4-.7 2.9-1.2 4.3-2.1 7.1-6.2 23.4-11.4 21.8-2.4-.7-9.7-2.2-16.7-3.5-.3 1.1-.4 1.8-.4 1.8l.5.5.8.8c1.8-.3 3.3-.5 4.2-.6 5.1-.5 19.1 8.5 19.1 8.5.8-.2 1.4-.5 1.9-.8 2.4-2 2.2-21.4 3.1-28"/><path fill="#FEC4AD" d="m163.2 92.3.6.5 1.3.4-.7.3-.3.1.8.9.7-.1h.4l1.4.2-1.8.4-.2.1.2.2.6.5 1.8-.3-.3 1.2.7.2 1.5-1.3 2.6.7 3.4-.7.8.3.9-3.1s-6.6-2.5-8.2-2.4c-1.4-.1-5.5 1.6-6.2 1.9.1 0 0 0 0 0"/><path fill="#B0B6B6" d="M176.1 97.8s7.5 1.4 15.4 2.9c7 1.3 14.2 2.8 16.7 3.5 5.2 1.5 9.3-14.7 11.4-21.8.4-1.5.8-2.9 1.2-4.3 1-4.3 1.3-8.3-.5-10.8-.5-.7-1.1-1.3-2-1.7-3.7-2-7.3-1.7-9 8.9-1.5 9.1-3.9 18.9-3.9 18.9l-12.2-.4-15.6-.3-.9 3.1z"/><path fill="#D4DBE2" d="M130 0h.2v23.8h-.2z"/><path fill="#FFBA01" d="M129.8 37.5c1.6.1 3.1-.8 3.8-2.2h-6.9c.5 1.2 1.7 2.1 3.1 2.2"/><path fill="#B8BEC4" d="M127.8 23.8 112 35.3h36.2l-15.9-11.5H130z"/><path fill="#A1CDBA" d="M127.3 68.1h.2c0 3.9-.2 9.2-.5 13.3.1.4.2.9.2 1.3l.3-1.2c.6-3.3 1.2-8.6 1.5-11.3.3-3.6-.1-7.6-2.2-7s-.8 3.6-.9 6.7c-.1 1.4-.1 5.1 0 8.4.3.5.6 1.3.9 2.3.4-4 .5-8.8.5-12.5"/><path fill="#918EA4" d="M127.3 68.1c0 3.6-.2 8.5-.4 12.5.1.3.1.5.2.8.3-4.2.5-9.4.5-13.3z"/><path fill="#A1CDBA" d="m123.6 74.7.2-.1c.6 2.1 1.4 6.9 1.8 10.9.3-.7.9-1.3 1.5-1.9.1-.3.1-.6.2-.8-.1-.5-.1-.9-.2-1.3-.1-.3-.1-.5-.2-.8-.3-1-.6-1.8-.9-2.3v-.1c-1-1.7-.8-6.8-2.2-8.6s-3.3 2.2-1.7 5.1c1.3 2.4 1.4 3.9 1.1 5.9.9 1.6 1.7 2.5 2.1 3.7-.4-3.7-1.1-7.8-1.7-9.7"/><path fill="#918EA4" d="m123.9 74.7-.2.1c.6 1.9 1.2 6 1.6 9.7l.3 1.2v.1s0-.1.1-.1c-.4-4.1-1.2-8.9-1.8-11"/><path fill="#A1CDBA" d="m133.1 80.4.1.2c-.6.5-1.5 1.2-2.6 2.2-.4 1.1-.7 2.1-1.3 2.9h.5v.2c.1-.1.2-.2.2-.3.9-1.9 1.6-3 4-4.1s3.1-4.6 1.4-4.1c-1.2.3-2.7 2-4 3.2-.3.6-.5 1.2-.7 1.7 1-.8 1.8-1.5 2.4-1.9M127.2 83.6c-.6.6-1.2 1.3-1.5 1.9 0 0 0 .1-.1.1v.1h1.1c.2-.6.3-1.3.5-2.1"/><path fill="#918EA4" d="M133.1 80.4c-.6.4-1.4 1.1-2.2 1.9-.1.2-.1.3-.2.5 1-.9 1.9-1.7 2.6-2.2z"/><path fill="#A1CDBA" d="M127.2 83.6c-.2.7-.3 1.4-.5 2.1h.9c1.1-2.9 2.4-6.2 3.8-9.2l.2.1c-1.4 3-2.7 6.2-3.7 9.1h1.5c.5-.9.9-1.8 1.3-2.9.1-.2.1-.3.2-.5.2-.5.4-1.1.7-1.7s.6-1.3 1-2.1c2.2-4.1.7-8.3-1.3-7.8s-1.9 3.6-2.9 7.9c-.2.9-.4 2-.7 3.1l-.3 1.2c-.1.2-.2.5-.2.7"/><path fill="#918EA4" d="m131.6 76.6-.2-.1c-1.4 3-2.7 6.3-3.8 9.2h.3c1.1-2.9 2.4-6.1 3.7-9.1"/><path fill="#A1CDBA" d="M123.3 85.7h.8c-1.2-2-2.6-4.3-3.7-6.6l.2-.1c1.2 2.3 2.5 4.7 3.8 6.7h1.1v-.2q-.15-.75-.3-1.2c-.4-1.2-1.2-2.1-2.1-3.7-.3-.5-.5-1-.8-1.7-1.5-3.5-4.9-3.9-5.7-2s1.3 3.1 3.5 5.6c.9 1 2.1 2.4 3.2 3.6z"/><path fill="#918EA4" d="m120.7 79-.2.1c1.2 2.3 2.5 4.6 3.7 6.6h.3c-1.3-2-2.6-4.4-3.8-6.7"/><path fill="#F5F2EB" d="M129.9 100.6V85.7h-6.6v14.9z"/><path fill="#150303" d="m157 164.1-.8 4.3-5.8 3.4 9.5 1.1 1-3.3 1.2-4z"/><path fill="#491B17" d="M163.8 163.8c1.1-4 3.5-12.8 4.9-19.1.4-1.8.8-3.7 1.1-5.7.8-4.5 1.5-9 1.9-11.9 0-.2.1-.4.1-.6s.1-.5.1-.9c.1-.9.2-1.5.2-1.5h.3c1.2-2.8 5-6.2 16.1-3.8 9.8 2.1 17.3.8 23.9-1.8 2.6-3.2 3.3-6.9 3.3-6.9s-14.1-9-19.1-8.5c-.9.1-2.4.3-4.2.6-8.4 1.4-24.4 4.6-26.1 4.4-2-.1-8.4 6.7-8.1 10.5.1 1.6-.2 10-.6 19.2-.1 1.5-.1 3.1-.2 4.6-.1 2.9-.3 5.8-.4 8.4-.3 7.3-.6 13-.6 13l.7.2 5.1 1.5 1 .3h.1c-.1.1.2-.7.5-2"/><path fill="#E5DDD1" d="M188.5 120.3c-11.1-2.4-14.8 1.1-16.1 3.8-.2.5-.4 1-.5 1.5-.1.3-.1.6-.1.9v.6l51.1 7.9v-5.8l.1-15.9c-3.4 1.9-6.9 3.8-10.7 5.3-6.5 2.5-14 3.8-23.8 1.7"/><path fill="#FEC4AD" d="M40 80.3q.9 3.15 2.7 7.5c1.4 3.4 6.2 11.3 7.2 11.8.9.4 8.2.1 13.1 0h24.5s-5.1-3.5-6.5-3c-1.5.5-2.8 1.2-9 .1-.1 0-.2 0-.3-.1-2.1-.4-4.6-.7-7.2-1-5.5-.6-11-1-11.6-1.5-1-.7-3.8-9.5-4.4-12-.1-.5-.3-1-.4-1.5-.2-.6-.4-1.3-.6-1.9-.3-.9-.7-1.7-1-2.5-.8-1.7-1.7-3-2.8-3.7-.7-.5-1.4-.6-2.2-.4-.4.1-.7.2-1 .4-.4.3-.7.6-.9 1.1-.2.4-.3.9-.4 1.6-.1 1.2.2 2.9.8 5.1"/></svg>