<svg xmlns="http://www.w3.org/2000/svg" xml:space="preserve" baseProfile="tiny" overflow="visible" version="1.2" viewBox="0 0 319 616"><path fill="#B7CAD8" d="M133.6 122.6c.9-.9.3-2.7-1.1-2.6-6 .5-12 1-18 1.7-.8-.5-2.1-.3-2.5.9-.1.3-.2.6-.4.8-3.3 1.2-6.2 3.1-9.6 4.2-3.8 1.2-7.7 1.9-11.6 2.7-6 1.2-13.2 1.9-18.7 5.2h-.8c-.8.1-1.4.5-1.7 1.1-.3 0-.7.1-.9.4-2.1 3-3.5 6.3-5.7 9.2-2.1 2.7-4.5 5.2-6.7 7.8-4.6 5.4-7.9 11.5-10.5 18.1-4.5 11.4-5.1 23.6-6.3 35.7 3 6.7 7.1 13.4 7.2 20.3 1.3 5.1 1.7 11 1.5 16.1.2 3.1.5 6.3.2 9.3v.1c.1.8.2 1.5.4 2.2.6 1.6 1.3 3.2 2.1 4.7.4.8-.6 1.8-1.3 1-2.6-2.8-5.4-6-6-9.8-2-7-.6-15.2-1.4-22.5-1.1-3.6-2.5-7-3.9-10.5-1.3 7.8-3.7 15.1-6.8 22.4-2 4.8-3.4 9.4-3.8 14.2 3.5-.8 7.5.4 10.9 2.2 5.7 3 10.7 7 16.6 9 1.4.3 2.8.6 4.3.9 1.3.2.8 1.9-.3 2-.5.1-.9.1-1.4.1-8.5 1.4-15.6-7.1-23.3-9.8-1.3-.1-2.7 0-4.1.4-.9.3-1.8.6-2.7.8v.7c.3 2.8.1 5.3-.6 7.7 3.1.1 6.2.5 9.2 1.4 3.5 1 7.5 2.2 10.5 4.5 3.2 2.5 6.1 5 9.9 6.4.2.1.2.5-.1.5-6.6.3-11.7-5.8-17.7-7.8-4.4-1.4-8.7-1.9-12.9-1.9-1.2 2.8-2.9 5.4-4.9 8.2-3.2 4.5-6.6 9.1-6.8 14.7 0 .8.9 1 1.4.5 12.6 1.8 24.7-5.7 36.7 1.5 5.1 3.1 8 9 10.6 14.1 1.5 3 2.8 6.8 5.2 9.4-1.2 9.6-2.7 19.1-4.7 28.6-1.7 8.2-5 15.8-4.2 24.4.7 7 4.8 13.6 7.6 20 0 .5 0 1-.1 1.5 0 1 1.5 1.2 1.7.2 0-.1 0-.2.1-.3.3-.1.6-.4.6-.9 0-.7-.1-1.4-.2-2.1 1.4-9 2.8-17.9 4.1-26.9 1.6-10.9 3.5-21.7 6-32.4 2.5-11 6-21.7 8.9-32.6 3-11.2 5.2-22.6 7.4-34.1 1.9-10.4 3.6-20.8 6.5-31q1.95-6.9 4.8-13.5c-4.5.6-9.5.6-13.5.1-5.6-.7-7.2-5.8-10.3-9.7-.4-.4.1-1.3.7-.9 2.2 1.5 3.3 3.7 5.1 5.7 2.2 2.4 5.2 2.8 8.3 2.7 3.4-.1 7.5-1.2 11.2-1.2 1.8-4.1 3.7-8.2 5.7-12.2 8.3-17.2 17.4-33.6 19.1-53 .1-.7-.5-1.4-1.2-1.6-3.7-.7-6-2.4-8.6-5-2.5-2.4-5.1-4.8-2.4-7.9 4.2-4.9 8.1-11.2 13.2-16.1m-68 165.7c-.2 1.1-2.1 1.1-2.3 0-.9-6.8-.7-13.8-1.2-20.7s-1.8-13.4-3-20.2c-1.5-7.9-1.6-20.2-9.9-24.3-1.5-.7-.4-2.8 1-2.5 9.5 1.9 10.6 16.3 12 23.9 2.8 14.5 5.4 29 3.4 43.8m27.6-131.1c-.9 8.5-2.9 16.8-4 25.3-.1.9-1.4.9-1.4 0-.2-15.4 7.4-29.8 1.4-44.9-.1-.3.3-.4.4-.3 5 4.6 4.2 14 3.6 19.9"/><path fill="#B7CAD8" d="M157.9 106.1c0-1.5 0-3-.1-4.5.4-1.4-1.1-3.1-2.8-2.2-16.3 8.9-24 27.1-35.1 41.1-.5.7.2 1.9 1 1.3.4 2.7 2.1 4.8 4.2 6.7 1.4 1.3 3.7 3.3 6 4v.1c-1.8 18.5-9.6 35.4-16.8 52.3-3.2 7.4-6.2 14.9-8.8 22.6-3.1 9.1-4.9 18.7-7.3 28-9.8 38.4-22.5 75.8-29.2 114.9-.1.3 0 .5 0 .7 0 .7 1.3.8 1.4.2h.1c.1-.1.2-.2.3-.4.5-2.4 1.1-4.8 1.6-7.2 3.6-11.2 10.9-21.2 15.8-31.8 6.2-13.6 10.1-28.2 14.5-42.4 4.1-13.3 8.7-26.6 15.8-38.6 5.5-9.4 11.6-18.5 16.8-28.1 4.6-8.7 8.6-17.8 9.3-27.7.3-4.3-.4-8.5-1.8-12.5-.7-1.9-1.8-3.7-3-5.5-1.8-2.6-4.4-3.6-2.6-6.8 6.7-12.5 7.6-27.1 13.4-40 2-4.4 4.3-8.6 5.9-13.1 1.3-4.1 1.5-7 1.4-11.1M248.2 159.3c-9.2-8.1-13.4-19.6-17.3-31-3.1-9.1-6.5-20.5-14.3-26.8-.2-.7-.4-1.4-.6-2.2-.2-.6-1-.5-1 .1.1 7.7 1 15.1.4 22.8-.6 8-2.3 16-4.3 23.7-3.9 14.9-9.4 29.5-14.1 44.2-4.6 14.2-8.1 28.9-8.7 43.9-.7 17.2 2.3 34.7 3.2 51.9 0 .3.3.5.6.5q.3 3.15.9 6.3c.2 1.4.4 2.8.6 4.3 0 .2.2.3.3.4 1.2 8.9 2.7 17.9 5.2 26.3.3 1 2 .8 1.8-.2-1.3-12.8-4.5-25.3-6-38.1-1.6-13.8-2.3-27.8-1.4-41.7 1.7-27.1 11.4-56.7 36.6-70.6.5-.3.8-.9.6-1.5-1-2.9-1.3-6-2.1-9 6.1.2 12.2-.4 18.3-.5 1.5.1 2.5-1.8 1.3-2.8"/><path fill="#B7CAD8" d="M299.4 342.6c-.6-3.6-1.3-7.1-1.8-10.7-.2-1.5-.5-5.3-2.5-5.8-.4-.1-1-.2-1.5-.1s-1 .3-1.5.5c-.6.3-.6.3.1-.1-1.8-4.7-2-9.9-2.2-14.8-.3-8.2-.1-16.3-3.1-24.1-.3-.8-1-1.5-1.9-1.4h-.3c7.3-14.2 3.6-29.7.4-45-2.2-10.3-2.4-20-1.6-30.4.5-6.6.7-12.9-.5-19.1-.1-11.4-7.8-22.3-15.4-30.1-8.8-9.1-19-17-28.6-25.4-1.4-1.6-2.8-3.3-4.3-4.7 0 0 0-.1-.1-.1l-.1-.1c-.1-.1-.4-.1-.5.1-.2 0-.5.1-.6.3-2 11.7 9 22.3 15.9 31.2-5.6.1-11.2-.9-16.8.3-.7.1-1.3.9-1.2 1.6.3 3.3.8 6.6 1.4 9.9-4.1 1.6-8.1 4.7-11.3 7.3-4.5 3.6-8.4 7.7-11.9 12.3-7.2 9.4-11.6 21.2-13.2 32.9-2.2 16.2-1.3 33.2-.6 49.5.4 8.5.8 16.9 1.3 25.4.4 6.7.4 13.5 1.1 20.2-1.1 10.8-.3 21.8-.3 32.6 0 13.5-.4 27.1-2 40.5-.8 6.5-1.8 12.7-1.6 19.2.1 5.4 1.2 10.8 2.4 16.1 2.6 11.5 6.9 22.7 9.2 34.3.1.4.4.7.8.8.1.2.3.3.6.4 7.2 1.5 17.3.8 23-4.5 4.5-4.3 3.8-11.3 2.2-16.6-2.3-8-6.6-15.3-10.2-22.7-3-6.1-6.9-12.7-7.3-19.7 6 8.2 13.4 14.9 21.1 21.6 1.1 1 2.7 0 2.4-1.4-2.5-12.2-.8-25.4 1.2-37.6 1.9-11.3 4.9-22.1 8-33.1 1.5 4.6 4 8.8 7.7 12.2.6.5 1.7.7 2.2 0 8.4-9.9 28.5-11.8 37.4-1.6.6.7 1.8.5 2.2-.3 3.3-6.5 3.4-12.9 2.3-19.8m-65.3 34.2c-2.4-11.4-5.5-21.8-10.9-32.1-5.1-9.7-10.3-19.9-9.6-31.1 0-.6 1-.6 1 0 .2 13.1 8.7 23.9 14.1 35.3 4.2 8.7 7.2 18 7.4 27.7-.1 1-1.8 1.3-2 .2m4.3-30.5c-2.1-6.8-4.4-13.3-8.2-19.4-3.2-5.1-7.5-9.6-10.4-14.9-2.4-4.5-4.3-9.2-6.3-13.8-1-2.5-2.1-5-3.4-7.3-.6-1.1-1.4-2.1-1.5-3.3 0-.2.2-.3.3-.3 3.3.1 5.5 6.2 6.7 8.6 2.5 5.1 4.5 10.7 7.6 15.5 7.1 11.2 16.5 20.7 17.4 34.7.2 1.3-1.9 1.5-2.2.2"/><path fill="#CBD5E2" d="M192.5 305.4c-2.1-11.6-3-23.5-3.7-35.2-1.6-25-.1-50.1 6.2-74.5 6-23.2 16.3-45.4 17.3-69.7 0-.7-.6-1.3-1.3-1.3-1.6 0-1.9 1-2.7 2.3-1.7 2.5-3.7 4.7-5.8 6.9-4.7 4.8-10.4 8.7-16.4 11.6-5.9 2.9-12.8 4.7-19.4 3.8-6.9-1-11.9-6.2-15-12.1-.4-.7-1.6-.4-1.6.4-.3.1-.6.3-.7.8-1.2 6.2-3.5 12.1-5.5 18.1-1 3.1-1.7 6.3-2.8 9.4-.5 1.3-1.4 2.4-1.8 3.7-.8 2.7 1.4 7.2 2.7 9.4 3 4.9 6.7 7.4 6.6 13.7-.2 9.5-6.1 18.6-11.1 26.4-5.9 9.1-12.6 17.7-18.4 26.8s-8.8 19.1-12.2 29.3c-4.7 14.3-9 28.7-14.1 42.8-9.1 25.3-21.2 48.7-24.6 75.7-.1 1 .9 1.6 1.7 1.7 21.2 2.1 42.3 1.3 63.5.8 10.4-.3 20.8.4 31.2-.1 10.2-.5 20-3 30.2-1.8.7.1 1.3-.5 1.5-1.1 5.7-19 2.9-39.4.6-58.7-.9-10-2.6-19.5-4.4-29.1m-54.7-32.8c.3 0 .3.4 0 .4s-.3-.4 0-.4m-10.9 3.8c3.1 3.9 4.9 8.5 7.1 13 2.4 4.9 5.1 9.3 8.4 13.6 6.4 8.4 13.4 15.9 21.5 22.6.9.7-.2 1.9-1.1 1.5-9-4.6-15.8-13.6-21.7-21.6-6.5-8.7-11.3-18.6-14.5-29-.1-.1.2-.3.3-.1m52.2 86.7c-.1.2-.3.3-.6.2-6.2-.3-15.3-2.1-19.6-7.2-.1 0-.1 0-.2-.1-14.5-15.2-26.6-34.8-30.7-55.6-.1-.1-.1-.2-.2-.3-.1-.2.1-.4.3-.2 4.3 3.4 6.3 10.8 8.7 15.6 3.3 6.5 6.7 13.1 11.1 19s9.5 11.4 15.2 16c3 2.4 6.1 4.8 9.5 6.7 2.5 1.4 5 2.8 7.1 4.9.4.4-.1 1.2-.6 1"/><path fill="#B7CAD8" d="M49.1 298.7c-9.2-3.8-19.7-3.3-29.5-2.6-1.1.1-1.4 1.1-1.2 1.9v.2c2.4 7.8 5.1 15.3 5.5 23.5 0 .8.8 1.5 1.6 1.2 11.2-3.4 23.5-5.6 35-2.3.8.2 1.7-.4 1.6-1.2-.3-9.2-4.2-17.1-13-20.7"/><path fill="#BDB29B" d="M97.3 397.3c-8.7 0-18.5-1.6-27 .5-.5-.6-1.8-.2-1.5.8.9 3 2.1 5.7 4 8.3.3.4.8.6 1.3.4 3.1-1.6 7.5-.1 10.7.5 3.1.6 7.8 1.3 10.3 3.5.7.6 1.6.4 1.9-.5 1.2-3.8 1.3-8 1.6-12 .2-.9-.5-1.5-1.3-1.5M134.3 400.6c-4.3-1-8.7-1.1-13.1-1.1-5.5 0-11-.5-16.5-.5-.9 0-1.2 1-.8 1.6 0 .2 0 .3.1.5 1.7 3.7 1.3 7.5 0 11.3-.2.7.4 1.4 1 1.4 9.5 0 19.1 0 28.4 1.9.9.2 1.5-.7 1.1-1.5-2-4.1-1-8.2.6-12.2.2-.6-.2-1.3-.8-1.4M172.1 399.7c0-.7-.7-1.5-1.4-1.4-2.9.4-6.4.4-8.9 2-.1.1-.2.2-.2.3-.2.1-.4.2-.4.5.3 3.9 1.3 7.8.6 11.7-.7.4-.9 1.9.1 2h.30000000000000004c2.8.4 5.6.5 8.4.5.7 0 1.4-.6 1.4-1.3-.1-2.2-.5-4.3-.4-6.6 0-2.5.4-5.1.5-7.7M193.3 396.7c-5 .8-10.2 1.6-15.2 2.9-.3 0-.5.1-.7.2-.2.2-.3.4-.2.7 1.1 4.6.2 9.2-.2 13.8-.1.6.6 1.1 1.2.9 3.4-1 6.5-1.7 10.1-1.7.5 0 1.1-.4 1.2-.9.8-5 2.8-9.6 5.4-14 .6-1-.4-2.1-1.6-1.9"/><path fill="#C9CCD1" d="M160.2 401.7c0-.9-.7-1.5-1.5-1.5-7-.3-14.9-.8-21.8.4-.1 0-.2.1-.2.2-.2.1-.4.2-.5.4-2.8 5-.7 11.7 1.9 16.4.2.3.6.5.9.5 6.1 0 12.2 0 18.3-.4.7 0 1.1-.4 1.3-1 1.9-4.8 1.6-10 1.6-15"/><path fill="#FCD35A" d="M225.7 467.3c0-.2-.2-.4-.4-.6-2.7-1.6-7.4.5-10.2.9-3.6.4-7 .6-10.4 1.5.6-3.6-.2-7.4-.8-10.9-.9-5.3-2.4-10.4-4-15.5s-3.4-10.2-5.1-15.3c-1.4-4-2.4-9-5-12.4.4-.8-.1-1.9-1.1-2-5.2-.1-10.7 1.5-15.9 2.2-4.5.5-9 1.2-13.6 1.9-4 .6-8.1 1.2-12.2 1.4-4.5.3-8.4-.8-12.7-1.5.2-.7-.1-1.5-.9-1.7-6.4-1.2-13.3-1-19.8-1.7-6.3-.7-13.1-1.6-19.3.4-4.9 1.6-9.1 5.1-13.1 8.2-4.9 3.9-9.7 7.5-15.4 10.3-.5.3-.6 1-.3 1.4-2.4 3.7-1.7 8.3 0 12.2 2.2 5 9.4 14.2 6.5 19.9-.8 1.5-2.6 2.6-3.7 4-1.3 1.7-1.8 3.8-2.1 5.8-.5 3.6-.1 6-2.6 9-1.2 1.5-7.9-6.2-8.9-7.3-.7-.7-2-.6-2.4.3-.4.8-4.7 5.3-5.5 7.3-.5-.2-1.1-.2-1.3.4-2.5 5.3-1.9 12.4-2.4 18.1-.6 7.2-1.3 14.4-2 21.6-1.4 15.1-3.1 34.3-4.1 49.4 0 .2 0 .3.1.4-.5 4.2-.7 9.7 1 13.6-.2.8-.1.9 0 2.3 0 .7.7 1.1 1.4.8 1.8-.8 3.6-1.5 5.4-2.2 2.7-.6 5.5-1.1 8.1-2.2 2.4-1 4.6-2.7 6.7-4.5 2.7-1.9 5.2-4 7.8-6.2 5.3-4.4 13-13.2 16.7-19.6l.6-.6c9.8-10.1 17.4-21.7 26.3-32.5.3-.4.9.1.6.5-7.1 12.5-16.1 24.8-26.2 35.1-4.7 4.7-10.2 13.5-16.1 17.5 6.7-1.2 13.1-3.5 18.6-7.1 3.9-3.1 8.1-9.9 11.3-13.9 3.9-4.9 7.5-9.9 12.6-13.7.3-.2.6.2.4.5-5 4.7-8.1 10.7-12.4 15.9-3.4 4.1-7.7 11.7-12.2 15-.7 1-1.5 1.9-2.3 2.8-.6.7 0 1.9.9 1.6 3.5-1.2 7-1.3 10.6-2.1 3.1-.7 5.4-2.9 7.5-5.2 6.1-6.6 9.3-19.1 13.9-26.7 4.5-7.6 8.5-15.4 12.1-23.5 2.2-5.1 4.5-10.5 5.6-16.1 4.4 8.9 10.7 16.9 13.6 26.5 3.9 12.8 0 36.8-.6 49.8 0 1 1 2 2.1 1.8 3 1.2 6.2 1.4 9.4 1.7 6 .5 11.7 1.5 17.5 2.9 5.4 1.3 10.7 3 16 4.8 4.6 1.6 10.2 3.2 13.8 6.5 0 .2.3.3.4.3.5.3 1.1-.4.7-1l-.2-.2c.4-2.4.7-4.8 1.3-7.2.6-2.8 1.4-5.4 1.6-8.3.6-1.5 1.1-3 1.3-4.7l.1-.1c.7-.5.1-1.5-.6-1.1-.2 0-.3.1-.4.2-3.4 1.9-6.8 3.3-10.6 4.2-2.7.6-5.4.7-8 .8-2.6-.4-5.2-.7-7.7-1-2.6-.2-5.2-.5-7.8-.7 2.6 0 5.2.1 7.7 0 9.2-.2 21.7-1.4 27.7-9.5q.3-.45.3-.9c1.1-1.4 1.8-13 1.9-14.6 1.8-4.6 2.4-9.7 2.9-14.6.8-7.6.8-15.4 1.5-23 .9-9.7 2.7-19.3 4.4-28.9.8-4.4 1.5-8.7 2.1-13.1.1-2.2.7-5.1-.7-7.8m-95.1-24c-.3 7.6-1.3 15.1-2.4 22.6-.2 1.2-1.8.7-1.9-.3-1.6-13.9 6-28.1-1-41.5-.2-.4.3-.7.6-.4 5.2 4.4 5 13.5 4.7 19.6m25 89.2c1.4-2.8 3.2-5.1 5.2-7.3 3.8-6.2 8.2-11.4 13.9-16 5.6-4.5 12.9-9.5 14-17.1.1-.5.7-.8 1.1-.7 2.7.7 5.4 1.2 8 1.8.5.1 1 .8.8 1.3-7.5 18.9-31.7 21.9-42.3 38.3-.2.6-.9.2-.7-.3m46.6-13.9c-6.3 5.4-14.2 8.9-21.4 12.9-8.3 4.6-15.9 9.5-23.3 15.4-.2.1-.4-.1-.2-.2 5.8-6.6 13.7-11.5 21.2-15.8 7.6-4.4 15.1-9.2 22.9-13.4.6-.5 1.5.5.8 1.1"/><g fill="#595A5B"><path d="M216.2 83.4c-3.2 7.6-1.6 16.3-6.3 23.4-4.3 6.5-11 12.3-18.2 15.3-2.6.1-5.2.3-7.8.2-2.7-.2-5.4-1.2-8.1-1.2-6.2-3.5-11.2-9.1-15-15.1-4-6.4-4.8-13.8-7-20.8-.6-5.8-2.9-11.6-3.8-17.3 0-.1-.1-.1-.1 0-.2 4.6 1.1 9.4 2.2 14.1-3.4 2-7.1-8.4-7.7-10.1-1.7-4.9-2.9-11 .6-15.4.1-.1 0-.3-.1-.2-5.2 3.4-2.1 13.2-.4 17.6.6 1.5 4.8 11.5 7.7 8.4.5 1.8.9 3.6 1.3 5.4 0 .1.2.2.3.2.7 3.9 1.7 7.8 3.1 11.5q1.2 8.1 1.5 16.2c-6.4 7.5-8.2 17.1-9.7 26.6-.7 4.8-1.4 9.6-2.8 14.3-1.5 5.3-4.1 9.8-7.6 14l-.1-.1c-.3-.2-.6.3-.4.5 5.2 5 8.1 10.7 7.6 18.1-.5 7.7-4 15.2-7.7 21.8-8.7 15.7-20.7 29.3-31.1 43.8-2.8 3.8-5.4 7.8-7.7 11.9-1.6 2.9-3.1 6.2-3.5 9.5 0 .1.1.2.1.2-2.3 8.9-4.6 17.9-7.4 26.7-2.9 9.2-6 18.3-9 27.4-5.9 17.8-11.7 36.2-12.7 55.1 0 .3.4.3.4 0 2.5-19.1 7.4-37.4 13.4-55.7 2.9-8.8 5.9-17.7 8.7-26.5 2.9-9.1 5.7-18.3 7.2-27.7v-.2c1.6-5.8 4.9-11 8.2-15.9 4.2-6.3 8.9-12.3 13.4-18.3-4.3 12.5-7.9 25.3-11.8 37.9-4.1 13.6-8.4 27.1-12.9 40.6-4.3 12.6-9.5 24.7-14.8 36.8-2.5 5.7-4.8 11.5-6.8 17.4-1.7 5.1-3.8 11.1-3.7 16.6 0 .4.6.4.6 0 .1-5.7 2.4-11.8 4.2-17.2 2.2-6.4 4.9-12.6 7.6-18.8 5-11.4 9.8-22.8 13.9-34.6 4.5-13.1 8.7-26.4 12.7-39.6 4.1-13.5 8.4-26.9 12.2-40.5.3-.3.5-.7.8-1 5.5-7.3 11-14.6 15.9-22.4 4.2-6.6 8-13.7 9.9-21.4 2.2-8.8.5-18.5-7.1-24.2 7.2-6.2 9.2-16.4 10.7-25.3 1.7-9.8 3.1-20 9.3-28 .1 2.1.1 4.2 0 6.4-.2 8.3-1 16.6-.8 25-1.9-1.9-3.5-4.1-5.1-6.3-.1-.1-.4-.1-.3.1 4.3 10.7 16.1 14.5 26.7 12.4 10.9-2.2 22.1-9.8 28.7-18.8.2-.3-.2-.6-.4-.3-7.3 7.9-15.8 14.5-26.3 17.6-5 1.5-10.4 1.8-15.4.2-3-.9-5.4-2.5-7.4-4.5.4-8.8 1-17.6 1.2-26.4.1-2.2.1-4.4.1-6.6v-.3c0-4.3-.3-8.6-.9-12.7.6 1.2 1.1 2.4 1.8 3.5 3.6 6.1 9 12.4 15.6 15.1h.1c2.1 1.2 4.9 1.3 7.3 1.6 3.2.3 6.7.3 9.8-.6l.1-.1c2.9-.9 5.6-3 7.9-4.8 3.2-2.6 6.2-5.6 8.7-8.9 5.6-7.3 4.6-16.9 7.3-25.3-.2-.6-.8-.7-.9-.3"/><path d="M214.2 108.9c0-.2-.3-.1-.3 0 .4 8.8.4 17.5-.9 26.2-2.7 3.2-5.1 6.5-8.1 9.4-3.5 3.5-7.4 6.5-11.6 9-4.1 2.5-8.7 4.2-13.4 5.2-4.9 1-9.5.5-14.5.2-.1 0-.1.2 0 .2 8.7 3.2 19.2.1 27-4.1 4.4-2.3 8.4-5.4 12-8.8 2.9-2.7 5.9-5.8 8.2-9.1-1.3 8-3.5 15.9-5.7 23.7-4.8 16.7-11 33.5-11.8 51 0 .3.4.3.4 0 2.3-18 7.8-35 12.8-52.3 4.7-16 9.2-33.8 5.9-50.6M108.1 119.5c-3.1-.9-6.9-.5-10.1-.3-4 .2-7.9.7-11.7 1.6-6.4 1.4-14.2 4.2-18.2 9.8H68c-.6.5.1 1.7.3 2.2 0 .1.1.2.1.2-6.5 9.1-13.2 18.1-19.2 27.6-2.7 4.3-5.4 8.6-7.3 13.3-1.3 3.2-2.6 6.8-2.2 10.3 0 0-.1.1-.1.2.4 5.7-2.5 10.6-3.6 16-.9 4.1.3 8.2 1.7 12.1.1 6.9-.7 13.3-3.2 19.8-1.6 4.1-3.9 7.8-6 11.7-1.2 2.1-9.3 16-3.6 17h.1c1 1.2 1.1 2.3.4 3.9-.6 1.2-1.5 2.1-2.5 2.9-.9.7-2.2 1.1-2.6 2.2s-.6 2.7.3 3.7c3.2 3.6.1 6.7-3 8.9-.1.1-.1.1-.1.2-3.2 2.1-4.2 7-4.6 10.5-.3 2.7-.4 5.5-.5 8.3 0 2.2-.3 4.6.1 6.7 0 .3.5.2.5 0 .4-1.7.2-3.7.2-5.5 0-2.3 0-4.6.2-7 .3-4.8 1.4-9 4.5-12.7 2.3-1.4 4.3-3.1 4.9-5.8.7-3.2-4.2-5.8-.3-8.2 2-1.2 3.4-2.7 4.2-4.9.5-1.4.2-3-1.2-3.4 0-.1 0-.2-.2-.3-2.7-1.6-.4-6.4.5-8.5 1.6-3.8 3.6-7.4 5.6-11 4.7-8.2 7.8-17.4 7-27 .3.7.5 1.4.8 2.1 2.4 6 3.8 12.1 4.6 18.5.8 6.2.9 12.5 1.9 18.6.1.3.6.3.6-.1-.1-6.2-.8-12.4-1.6-18.5-.7-5.9-1.9-11.6-4-17.1-2.3-6-5-11.7-3.4-18.2 1-4.2 3.1-8.2 3.1-12.5 2 5.5 8.1 9.7 12.7 12.6 5.8 3.7 12.2 7 18.8 9 .3.1.4-.3.1-.4-6.1-2.2-12.1-5-17.6-8.4s-12.5-8.2-13.8-15c-.8-4.2 1.7-9.4 3.5-13 2.1-4.3 4.7-8.3 7.3-12.3 2.7-4.2 5.4-8.4 8.3-12.5 3.1-4.3 6.3-8.5 9.1-13 .4.9.8 1.9 1.5 2.2.3.1.6-.1.5-.4-.1-.4-.4-.8-.6-1.2-.3-.5-.6-1-.8-1.5-.3-.5-.5-1-.7-1.5-.1-.2-.1-.3-.2-.4 5.4-5 11.5-7.9 18.8-9.5 3.6-.8 7.2-1.2 10.8-1.4 3.3-.2 6.8.4 10.1.1.2-.1.3-.6-.1-.7"/><path d="M155.6 98.4c-4.1 2.6-7.7 6.4-11 10q-4.35 4.8-8.4 9.9c-4.1.2-8.2.5-12.3.6s-8.3.3-12.2 1.6c-.1 0-.2.1-.2.1-.1 0-.1.1-.1.2-1 3.5-4.7 4.3-7.9 4.8-3.6.6-7.3.6-10.9.7-3.9.1-7.8 1-11.5 2.3-3.2 1.1-8.9 3.1-10.2 6.6 0 .1.1.2.1.1 2-1.2 3.6-2.8 5.7-3.9 2.6-1.3 5.4-2.2 8.1-3 3.9-1 7.6-1.1 11.6-1.2 3.7-.1 15.5-.1 15.5-5.9 4.2-1.1 8.6-1.3 12.9-1.4 3.6-.1 7.5 0 10.9-.9-.5.7-1 1.3-1.6 2-5 6.4-8.7 13.5-14.8 18.9-.2.1-.1.4.1.4v.2c1.8 5.6 7.3 10 13.2 12.7-3.3 16-10.8 30.3-16.9 45.4-5-1.3-10-2.2-14.9-3.7s-9.8-3.7-14.8-4.8c-.2 0-.3.2-.1.3 4.4 2.6 9.8 4 14.7 5.4 4.8 1.4 9.8 2.9 14.9 3.5-.5 1.1-.9 2.3-1.3 3.4-2.3 6-3.9 12.2-5.3 18.4h-.1c-4.1.2-8.3.4-12.4.5-2.2.1-4.4.1-6.7.1-1.6 0-3.8-3.1-4.4-4.3-.1-.2-.5 0-.4.2.8 1.9 2.2 3.2 3.4 4.8.6.8 3.4.2 4.2.2 5.4-.1 10.8-.4 16.1-.6-.6 2.7-1.2 5.5-1.8 8.2-2.1 9.6-4.5 19.1-6.7 28.6-.1.3.3.4.4.1 3.3-8.7 4.9-18.2 6.9-27.3 3.5-8.3 8-15.8 12.8-23.5 4.8-7.8 9.5-15.8 11.4-24.9.1-.3-.4-.4-.4-.1-2.6 9.4-7.4 17.7-12.6 25.9-3.7 5.9-7.7 11.9-10.2 18.5 1.8-8.3 3.7-16.6 6.6-24.6 3.2-8.6 7.2-16.8 10.8-25.2 3.3-7.8 6.5-15.9 7.3-24.4 3 1.3 6 2.1 8.8 2.4.3 0 .3-.4.1-.5-4.2-1.4-8.2-2.5-12-4.7-4.3-2.5-7.4-5.9-9.8-10.2 2.7-1 4.7-4.1 6.3-6.2 2.6-3.5 4.8-7.4 7.5-10.9 3.4-4.3 6.7-8.6 10.3-12.7 3.7-4.2 7.8-7.6 11.9-11.3.3-.4-.2-1-.6-.8M60.7 481.1c-3.4-5.9-8.6-10.6-11.9-16.7-3.8-7-4.3-15.1-7.7-22.2 0-.1-.2 0-.2.1 2.5 7.2 3.5 14.9 6.7 21.8 3 6.3 8.1 12 12.4 17.4.3.4.9 0 .7-.4M60.8 465.1c-2.9-4.3-4.9-8.9-6.4-13.9-1.6-5.2-2.6-10.7-4.9-15.7-.1-.2-.4-.1-.3.1 2.9 9.1 4.4 18.9 9.2 27.2 1.8 3.1 3.9 5.9 5.7 8.9 1.8 3.1 3.8 7.2 1.6 10.6-.2.3.3.7.6.4 4.3-5-2.7-13.4-5.5-17.6M45.7 481.7c-1.8-3.7-2.7-7.9-4.7-11.5-2.3-7.6-7.2-14-7.1-22.3 0-.3-.4-.3-.4 0-.4 4.2.7 8.1 2.3 11.9 1.6 3.9 3.4 7.7 5 11.6.1.1.2.2.3.2 1.2 3.6 2.3 7.2 4 10.6.1.5.8 0 .6-.5M50.7 479.6c0-.4-.6-.4-.6 0-.2 2-.3 3.9-2.7 4.2-.2 0-.2.3 0 .4 2.6.1 3.4-2.3 3.3-4.6"/><path d="M202.8 456.5c-1.2-5.2-2.5-10.5-3.9-15.7-1.2-4.5-2.5-9.1-4-13.5-.3-.9-.9-3.4-2-4.4-1.3-3.2-1.4-6.2-.5-9.7.8-3.3 2.1-6.6 3.1-9.9.7-2.2 1.2-4.5 1.7-6.8 0-.3.3-.6.4-.8 0-.3-.6-.7.4-.9 0-2.9.7-5.9 1-8.9 1.3-13.8-.2-27.8-.7-41.6-.5-15.4-1-30.8-1.3-46.1-.3-15.4-.2-30.8-.7-46.2 0-.4-.5-.4-.6 0-.5 15.4 0 30.8.3 46.2.3 15.7.8 31.4 1.3 47.1.5 14 1.7 28.2.3 42.1-.3 2.7-.7 5.5-1.3 8.2-6.3 1.3-12.6 1.7-19 1.9-.1-.3-.2-.7-.3-1 .2-.2.1-.4-.1-.5-.7-.2-1.6 0-2.4 0-.8.1-1.6.1-2.4.4-.1.1-.2.2-.1.3-1.5 5.7-.6 12.1-.4 17.9-1.9 0-3.7.2-5.6.2-1.7.1-3.5 0-5.1.5 2-4.8 2.6-11.9-.6-16 1.5.4 3.3-.1 4.7-.2 2.1-.2 4.5-.1 6.5-.8.2-.1.2-.4 0-.4-2-.5-4.4.1-6.5.3-1.6.2-3.6 0-5 .8-.1-.1-.1-.2-.3-.2-4.1-.2-8.3 0-12.4-.3-3.8-.2-7.7-.5-11.4.4-.2 0-.3.2-.2.4-2 4.5-2.7 12 .2 16.6-10.5-.8-21.2-.4-31.6-1.9 1.7-4.8 1.6-11.1.1-16 4.4 1.8 9.6 1.4 14.3 1.4 2.8 0 5.6.2 8.3.4s5.5.6 8.2.2c.2 0 .2-.4 0-.4-10.2-1.4-20.6-.2-30.8-1.8 0-.2 0-.4-.2-.5-.5-.3-1.2-.2-1.7-.2q-.9 0-1.8.3c-.1.1-.1.2-.1.3-.1 0-.2.1-.3.2v.1c-5-.8-10.3-.6-15.4-.8-5.7-.2-11.5-1-17.2-1-2.9-7-5-14.4-6.5-21.9-.1-.7-.3-1.4-.4-2.1.8-6.4 1.7-12.8 3-19.2 1.3-6.3 2.8-12.5 4.3-18.8 2.8-12 6.1-24.8 5.3-37.2 0-.1-.2-.1-.2 0-.7 6.7-1.2 13.3-2.4 19.9-1.1 6.3-2.6 12.6-4.1 18.9-2.5 10.7-5.6 21.6-6.6 32.6-1.1-6.9-1.7-13.9-2-20.9-.2-4.5-.3-8.9-.3-13.4 0-3.9.3-7.9-.1-11.7 1.6 0 3.2-.2 4.8-.8.1 0 .2 0 .3-.1s.3-.1.4-.2c.3-.1.1-.4-.1-.5.4-.8.6-1.6.8-2.5.1-.4-.5-.6-.6-.2-.4.9-.7 1.8-.8 2.7-6.6.8-13.1-.8-19.7-.3-6.4.5-13.4 2-19.3 4.4 0-4.8-1.1-9.6-1.9-14.2-.9-4.9-1.5-9.9-2.6-14.7 3.2-1.7 7-2.4 10.5-2.7 5.5-.5 11.2.1 16.5 1.7 5.6 1.7 9.3 5.8 12.5 10.6 3.4 5 6 10.7 7.3 16.6.1.3.6.3.6-.1-.4-6.3-4-12.6-7.4-17.6-3.1-4.7-6.8-8.4-12.2-10.2-5.6-1.9-11.9-2.3-17.8-1.7-3.4.3-7.2 1.1-10.2 3-.1 0-.3 0-.3.1-1 .8-2.1 1.7-3 2.8 0 .1.1.1.2.1.9-.9 1.9-1.7 3-2.3.1 4.6 1.2 9.2 2 13.8.9 5 1.4 10.1 2.3 15.2-.1 0-.2.1-.2.1-.1 0 0 .2 0 .2h.3c.1.1.3.1.5-.1l1.5-.3c1.1 11.8 4.2 23.6 6.8 35.1 2.7 12.4 5.4 24.9 7.2 37.4.9 6.3 1.6 12.7 1.4 19.1-.1 3.3-.6 6.6-1.4 9.8-.6 2.5-2 4.8-3.1 7-1.9 3.8-3.2 7.5-2.2 11.8 1 4.4 4.8 8 7.5 11.5.2.3.8 0 .6-.3-2.5-4-6.2-7.3-7.3-12.1-1.2-5.3 2.4-10.4 4.5-15.1 4.3-9.7 2.3-21.9.9-32-1.7-12.3-4.4-24.4-7-36.5-2.6-11.9-4.8-24-7.5-35.9 2.5-.5 5-1.3 7.5-1.8 3.9-.9 7.9-1.6 12-1.8 4-.2 8.5 1 12.8 1-.6 3.8-.4 7.9-.5 11.7 0 4.7.1 9.5.3 14.2.4 8.1 1.2 16.1 2.6 24v.4c0 .2.1.3.1.3l.3 1.5c2.4 12.2 6.7 23.5 12.8 33.9 0 .1 0 .3.2.3 2.8 4.8 5.9 9.3 9.5 13.7l.1.1-3.3 1.8c-4.2 2.2-10.7 4.4-13.4 8.7.4-2.8.9-5.7 1.2-8.5 0-.1-.1-.1-.2 0-2.1 8.2-3.9 17.4-.6 25.5 2.4 5.9 9.1 14.4 3.4 20.2-.4.4.2.9.6.6 5.4-4.5 1.2-12.2-1.3-17.2-2.2-4.3-3.5-8.3-3.7-13.2 0-1.3 0-2.5.1-3.8 6.4-.3 13-4.2 18.3-7.5 5.4-3.4 12.8-8.6 14.5-15.2 0-.1 0-.2-.1-.3h.3c2.1 1 4.4 1.2 6.6 1.4 3.2.3 6.5.4 9.7.6 6.6.4 13.4 1.4 20.1.9 0 7.8.7 15.6.3 23.4-.5 8-1.9 15.9-3.9 23.7-1.6 6.3-2.8 12.9-3.6 19.4-.7 6-1.1 13 1.5 18.7.2.5.9.1.8-.3-1.7-6.9-1.8-13.5-.8-20.6.9-6.9 2.6-13.7 4.2-20.5 1.7-7 2.7-14.1 3.1-21.2.4-7.4.4-15.3-1-22.6.3 0 .6 0 .9-.1.3.5.7.9 1.1 1.3q.15.15.3 0s0 .1.1.1c3.2 1.5 7.3 1.6 10.8 1.6 3.6 0 8.3-.2 11.4-2.2.2-.1.1-.3 0-.4.1 0 .2 0 .2-.1.2-.3.4-.7.5-1.1 1.8.1 3.6 0 5.4-.1 1.9 0 3.8-.1 5.6-.4v.5c0 .2.2.4.4.4 1.4 0 2.8 0 4.2-.4.2 0 .2-.3.2-.4v-.1c.1-.3.1-.5.2-.8.9 1.9 12.2.1 14.7-1.3-.8 3.6-.8 7.1 1.3 10.5.1.5.2.9.3 1.1.5 1.5 1.1 3 1.6 4.5 1.4 4.4 2.6 8.8 3.8 13.3l3.6 14.1c.7 3.1 1.3 6.2 2.2 9.2.1.3.7.3.7-.1-.9-2.8-2-6-2.7-9.1M75.5 411.6c-.6-.9-1.2-1.9-1.7-2.9 7.3-.2 13.8 1.7 20.6 3.8-1.9 2.5-3.9 4.7-6.4 6.7-1.5 1.2-3.1 2.2-4.8 3.1v-.2c-2.6-3.6-5.4-6.8-7.7-10.5m22.3 2.2c-6.5 11.7-19.7 19-32.3 22.7.1-.9.2-1.9.3-2.8 4.9-3.7 10.2-6.4 15.6-9.2 5-2.6 11.2-6.2 13.5-11.7 1 .3 2.1.6 3.1 1-.1-.1-.2-.1-.2 0m.5-1c-7.6-2.7-16.7-6.2-24.9-4.6-1.6-2.7-3-5.5-4.3-8.4l-1.5-3.3c4.9 1.2 10.1 1.2 15.1 1.4 5.7.3 11.6.9 17.3.5-.4 2.3-.2 4.8-.3 7.1-.3 2.5-.6 4.9-1.4 7.3m.3.2c1.5-.7 1.6-4.4 1.7-5.7.4-2.9.9-6.5.3-9.4h2.8c.1 2.5.5 4.9.6 7.4.1 2.9-.2 5.8-.5 8.6-1.5-.2-3.2-.5-4.9-.9m61.1 3.8c0 .1 0 .2.1.2h-.1c-3.8.7-7.4 1.3-11.3 1.3-3.6 0-7.1-.4-10.7-1.4v.2c-1.9-2.9-2.8-5.4-2.8-8.9 0-3 1-5.8 1-8.8 4.1-.1 8.2-.2 12.3 0 3.7.2 7.8.7 11.5-.1 2.5 6.2 1.2 11.4 0 17.5m16.4-1.4c-1.7.2-3.7 1-3.7-1.2 0-1.8-.1-3.7-.2-5.5-.2-3.9-.1-7.8-.1-11.8.9.1 1.8 0 2.6-.1.6 0 1.3 0 1.8-.2 0 3.1.3 6.1.2 9.1 0 3.3-.7 6.5-.6 9.7m8.4-1.4c-1.7.3-3.5.4-5.2.5-.8 0-1.8-.3-2.6 0 .7-2.8.8-5.9 1-8.7.2-2.4.3-5.2-.3-7.7 5.9 1.1 12.8-.1 18.7-1.6q-1.2 5.4-3 10.8c-.6 1.8-1.3 3.7-1.7 5.6-2.1-.3-4.8.8-6.9 1.1M82.8 137.6c0-.2-.3-.1-.3 0 1.1 15.5-.4 30.7-2.8 46-.9 5.6-2.4 10.8-3.8 16.3-1 3.8-2.2 9.2.8 12.4.4.4 1-.2.6-.6-3.2-4.1-.7-11 .6-15.4 1.6-5.6 2.6-11.1 3.4-16.9 2-13.7 3.7-28.1 1.5-41.8M104.3 218.6c-4.7-.6-10 .1-14.7.7-1.4-1.8-2.7-3.7-4.5-5.2-.3-.2-.6.1-.4.4 1.4 1.8 2.8 3.7 4.2 5.5q.3.3.6 0c2.4 0 4.9-.2 7.3-.3 2.5-.1 5 0 7.4-.3.6-.2.5-.8.1-.8"/><path d="M77.1 215.9c-1.4 8-1.4 16.2-1.7 24.3-.4 8.7-.7 17.5-1.6 26.2-1.7 16.6-5.7 33.5-5 50.3 0 .3.5.3.5 0 .8-16.6 3.5-32.8 5.3-49.3.9-8.4 1.4-16.8 1.7-25.2.4-8.7 1.1-17.5 1.3-26.2 0-.3-.4-.4-.5-.1M250.6 159.6c-1.9.3-3.8 1-5.7 1.2s-3.7.2-5.6.1c-3.8-.1-7.6-.8-11.4-.6-.1-.1-.1-.2-.2-.3-.2-.4-.7-.1-.7.3.4 2.3 1.5 4.6 2.2 6.9.7 2.2 1.3 4.5 2.1 6.6h-.1c-13.4 3.8-23.2 14.5-28.7 27-5.6 12.7-8 27.9-6.9 41.7 0 .1.2.1.2 0 .8-13.6 1.7-26.9 6.8-39.6 2.5-6.3 6.1-12.1 10.7-17 5-5.3 11.3-8.8 18.1-11.3.2-.1.3-.2.3-.4q.3 0 .3-.3c-.3-2.4-1-4.7-1.7-7-.6-2-1.1-4.1-2.1-6 3.7.6 7.4.9 11.1 1.1 3.5.2 8.7.4 11.6-1.8.3-.2.1-.7-.3-.6M248.3 157.9c-8.6-8-13.5-19-18-29.7-4.2-10-7.9-21-14.9-29.5-.2-.2-.5.1-.4.3 6.1 9.8 10.3 20.4 14.8 30.9 4.4 10.3 9.2 21 17.7 28.6.6.5 1.3-.1.8-.6"/><path d="M244 159.7c-2.2-3.5-4.9-6.7-7.2-10.2q-3.3-5.25-6-10.8c-3.8-7.7-6.3-15.8-9.7-23.6-.1-.1-.3 0-.2.1 2.1 8 5.2 15.9 8.7 23.4s7.9 15.7 13.8 21.6c.3.3.9-.1.6-.5M280.1 166.5c-2.5-6.1-10.2-9.9-15.6-12.9-3.3-1.8-6.6-3.7-9.6-6-1.3-1-2.5-2.2-3.6-3.4-1-1.2-1.6-2.7-2.6-4-.1-.1-.2 0-.2.1.2 2.6 2.6 5.2 4.4 6.9 2.5 2.3 5.4 4.1 8.3 5.8 3.2 1.9 6.5 3.7 9.7 5.8 3.5 2.3 5.8 5.1 8.4 8.2.3.3 1-.1.8-.5"/><path d="M282.4 163.8c-.8-2.7-3-4.9-5-6.8-2.7-2.6-5.7-4.8-8.8-6.9-5.9-4-12.4-8-19.1-10.2-.4-.1-.6.5-.3.7 11.7 6.2 25.1 12.1 32.5 23.6.2.3.8.1.7-.4M290.5 301.4c-1.1-4.4-.9-8.1 0-12.5.7-3.3 1.3-6.7.6-10l.3-.6c3.8-9.4-3.1-18.3-3.4-27.8.6-.9 1.2-1.8 1.6-2.8 1.5-3.3.8-7.2-1.5-10-1.9-2.2-3.2-3.9-3.3-6.9-.1-2.2.9-5.1.1-7.2 1.7-2.9 3-6 4-9.1 2-6.6 1.1-14 0-20.7-1.5-8.3-3.9-16.8-7.1-24.6-.1-.3-.7-.2-.6.2 3.3 14.3 10.4 28.8 7 43.8-2.5 11-10.9 21.4-20.5 26.8-.4.2-.1.8.3.7 5.1-1.4 9.4-6.5 12.6-10.5 1.4-1.8 2.7-3.6 3.9-5.6-.3 1.4-.3 3-.4 4.3-.1 2-.1 4.2.8 6 .8 1.7 2.2 2.8 3.3 4.3 1.5 2 1.7 4.9 1.1 7.2-1.3 4.8-6.2 8.2-10.1 10.7-4.3 2.7-8.9 4.9-13.4 7.2-.4.2-.1.9.4.7 4.9-2.1 9.6-4.4 14.1-7.3 2.6-1.7 5.3-3.7 7.3-6.2-.6 8.4 6 16.1 3.7 24.6-1.1 4.3-4.3 7.9-7.5 10.9-3.1 3-7 5-10.1 7.9-.3.2 0 .8.4.6 3.6-1.5 7.1-4.7 10-7.3 2.6-2.4 5.2-5.2 6.8-8.4.1 6.5-2.8 12.7-1.5 19.2.7 3.3 1.7 6.6 2.4 9.9.8 3.7.6 7.4.3 11.1 0 .3.5.4.6.1 1.1-6.3-.6-12.3-2.2-18.7M266.5 211.6c0-.2-.4-.2-.4 0 .1 6.1-.2 12.2 0 18.3 0 .6.9.6 1 0 .3-5.9.5-12.4-.6-18.3M264 210.6c-4-.4-8-.5-12.1-1-4.3-.5-8.6-1.2-12.9-1.9-7.8-1.2-15.8-2.5-23.7-1.7-.3 0-.4.5 0 .5 8.5.2 16.8 1.3 25.2 2.7 7.6 1.2 15.8 3 23.4 2.1.5-.1.5-.7.1-.7M216.6 216.3c-.1-1.8-.3-3.5-.5-5.3-.1-1.3 0-2.7-.4-4 0-.1-.1-.1-.1 0-1.3 2-.4 5.7-.3 8 .2 3.4 0 6.7.2 10.1 0 .4.7.7.9.2 1.1-2.7.4-6.4.2-9"/><path d="M264.9 228.4c-3.6.9-7.1 1.9-10.6 2.9-3.3.9-6.8 1.8-9.9 3.5 0-.1-.1-.2-.2-.2-1.8-.9-3.9-1.1-5.8-1.6-2.6-.6-5.1-1.3-7.6-2.1-4.5-1.4-8.7-3.2-12.9-5.3 0-.1-.1-.1-.2-.1-.3-.1-.5-.3-.8-.4s-.6.2-.3.4c.3.3.7.5 1 .8 0 5.5 0 10.9-.4 16.4-.2 2.9-.5 5.9-.8 8.8-.2 2.6-.8 5.5-.4 8.2 0 .4.6.6.8.3 0 .1 0 .2.1.3 4.1 2.4 8.5 4.3 12.8 6.4 4.1 2 8.2 4.6 12.6 6.1.2.1.4 0 .5-.2h.1c2.7-1.1 5.5-2.1 8.3-3 2.5-.8 5.2-1.5 7.5-2.9.4-.3.2-1-.3-.8-2.8.9-5.5 2-8.3 2.9-2.5.9-5 1.8-7.3 3.2 0 0 0-.1-.1-.1-3.8-2.5-8.3-4.3-12.4-6.3-4.3-2.1-8.6-4.4-13.1-6-.1 0-.2 0-.3.1.5-2.4.4-5 .6-7.4.2-2.9.5-5.8.8-8.8.4-5.5.9-11.4-.1-16.9 3.3 2.2 7.1 3.7 10.9 4.9 2.5.8 5.1 1.6 7.6 2.2 2.3.6 4.8 1.6 7.2 1.6 0 .1.1.2.3.2 3.5-.8 7-2.1 10.5-3.1s7.1-1.8 10.6-2.9c.5-.3.2-1.2-.4-1.1M284.4 241.2c-.6 3.6-2.2 6.5-4.6 9.2-2.3 2.5-5.1 4.2-7.7 6.3-.3.2 0 .7.3.6 5.9-2.3 12.5-9.4 12.5-16 0-.3-.4-.4-.5-.1M286.5 298.5c-.2-1.2-1.5-1.9-2.4-2.4-2.1-1.1-4-1.2-6.3-.7-6.2 1.3-11.4 5.8-17.8 6.3-.2 0-.2.3 0 .3 4.3.5 8.9-2.2 12.8-3.8 2.3-1 4.7-1.9 7.2-2.1 1.7-.1 4.4.7 5.3 2.3 1.5 2.4-13.8 5.3-15.5 5.8-.5.1-.3.9.2.8 3.4-.6 6.9-1.2 10.2-2.2 1.9-.5 6.6-1.7 6.3-4.3M279.9 315.4c-3.5-2.1-7.5-4.5-11.6-5.2-.1 0-.2.2-.1.2 3.3 1.3 6.5 3.2 9.6 5s6.7 3.8 8.8 6.8c.2.3.7.2.6-.2-.2-2.9-5.1-5.3-7.3-6.6"/><path d="M302.1 350.5v-.2c.6-4.1-.6-8.4-1.6-12.4-1.1-4.4-1.9-8.9-3.2-13.3 0-.2-.1-.3-.1-.5-.9-2.1-4.1-2.3-6-2.1-4.8.4-9.6 2.5-14 4.3-5.3 2.2-10.5 4.7-15.8 7.1-3.3 1.5-7.2 3.6-10.9 4.1 4.3-15.5 8.1-31.5 9.3-47.6.3-4.3.2-8.6.1-12.9-.1-4.8.6-9.5 1.3-14.2 1.3-8.5 3-17.3.7-25.7-.1-.3-.5-.2-.5.1 1.4 9.1-.3 18.1-1.6 27.1-.6 3.9-1 7.9-1.1 11.8-.1 4.3.2 8.6 0 12.9-.9 16.6-5.8 32.4-9.3 48.5h-.4c-.3 0-.3.4 0 .5h.3l-.6 3c-.1.4.5.6.6.2.3-1 .6-2.1.9-3.1 2.9-.1 6-1.5 8.5-2.5 4.9-2 9.7-4.3 14.5-6.4s9.7-4.3 14.8-5.6c3.3-.8 6.6-1.4 8.7 1.7l.1.1c-.1 3.7 1.3 7.6 2.2 11 1.1 4.2 1.8 8.2 2.2 12.5-2.4-3.1-8.9-2.3-12-1.8-4.5.7-8.7 2.4-13.1 3.3-1.4.3-3.1.5-4.5.1-1-.2-1.9-1.2-2.7-1.7-1.4-1-2.7-1.2-4.3-1.1-7.2.8-10.7 8.5-15.8 12.6-.2.1 0 .4.2.3 5.3-3.1 7.8-9.4 13.8-11.5 2-.7 3.8-.7 5.6.5 1.1.8 2 1.7 3.4 2 3.4.8 7.6-.9 10.8-1.9 3.6-1.1 7.4-1.8 11.2-1.9 2.1-.1 4.8.1 6.4 1.7 3.3 3.4-2.8 10.6-5.2 13.5-8.8-11.3-27.2-9.6-37.2-.8-.1.1-.1.3 0 .4 0 0-.1.1-.1.2-1 10.9 2.4 22 4.9 32.5 1.4 5.7 2.7 11.5 3.3 17.4.6 5.6.8 11.8-1.2 17.1-1.6 4.4-5.2 7.5-8.5 10.7-3.2 3.1-5.8 6.4-7.6 10.6-2 4.7-2.7 9.9-3.9 14.8-1.3 5.7-3.3 11.1-5.8 16.4-.2.4.4.8.6.4 5.6-9 6.1-20.1 9.4-29.9 1.7-5.1 5-8.8 8.7-12.5 2.9-2.8 6-5.7 7.5-9.5 4.1-9.9 1.4-22.3-1-32.4-2.7-11.8-5.9-23.3-6.1-35.5v-.1c10.4-7.2 27.5-10.5 36.1 1.2-3.4 15.2-4.8 31.1-5.2 46.6 0 .2.5.2.5 0 2.3-15.5 2.3-31.2 6.3-46.6 2.3-3.3 7.7-8.7 6.4-13.5M264.2 470.5c-.3-3.3-3.2-4.2-6.1-3.7.5-1.5 1.1-2.9 1.8-4.3.2-.3-.3-.7-.6-.4-1.6 1.7-2.3 4.1-3 6.3-.9 2.8-1.6 5.7-2.6 8.5-1 2.7-2.3 5.5-4.6 7.2-2.7 2-6.2 1-9.1 0-.2-.1-.4.3-.2.4 5.7 3.1 10.7 1.3 13.6-4.4 2.1-4.1 3.1-8.7 4.6-13 4 .2 5.8 2 5.1 6.1-.8 4.4-3.2 8.6-5.4 12.5-2.4 4.2-5.1 8.3-7.8 12.4-1.4 2.1-3.5 4.4-4.2 6.8-.1.3.4.6.6.2 1.6-2.9 3.7-5.5 5.5-8.3 3.1-4.6 6.1-9.4 8.7-14.3 1.8-3.5 4.1-7.9 3.7-12M267.4 491.1c-2.4 3.9-5.5 7.6-8.7 10.9-2.5 2.6-8.6 8.8-12.2 4.8-.1-.2-.4 0-.3.2 5.5 8.4 19.5-11.4 21.8-15.6.1-.3-.4-.6-.6-.3M276.7 473.4c-1.6 2.6-2.7 5.5-4.1 8.2-1.5 3-3 5.9-4.4 8.9-.1.2.1.3.2.1 1.9-2.7 3.4-5.7 4.9-8.6 1.4-2.7 3-5.5 4-8.3.2-.4-.4-.6-.6-.3"/><path d="M283.5 476.5c-3.5 6.3-5.8 13.1-9.6 19.2-2.1 3.3-4.6 6.5-7.8 8.9-3.3 2.5-6.6 3.1-10.5 3.7-.3 0-.3.6 0 .6 7.3 1.2 13.9-5.4 17.7-10.7 4.6-6.3 8.1-14.1 10.5-21.5.1-.2-.2-.3-.3-.2"/><path d="M288.7 474.1c-2.6 5.4-4.1 11.2-7.1 16.5-3.1 5.5-7.5 9.3-12.3 13.2-.1.1 0 .3.2.2 5.3-2.8 9.5-7.4 12.6-12.5 1.5-2.4 2.7-5.1 3.8-7.7 1.3-3.1 2.7-6.3 3.5-9.5.1-.3-.5-.6-.7-.2M290.4 420.2c-.2-.5-1-.3-.9.2 1.6 7.6 1 15.1 0 22.8-1 7.4-2.4 15.4-.6 22.8 0 .1.2.1.2 0-.5-8 .5-15.7 1.6-23.6 1-7.3 2.1-15.2-.3-22.2M151 420.2c-1.2 5.4-2.5 10.7-4 16-1.5 5.5-3.9 11.1-4.7 16.7 0 .4.5.7.6.3 2.2-4.9 3.3-10.6 4.8-15.8 1.6-5.6 3.1-11.2 3.9-16.9.2-.6-.5-.8-.6-.3M169 427.3c-5.2 6.2-10.3 12.4-15.1 18.9-4.8 6.4-9.3 13.4-11.7 21-.1.2.2.3.3.1 3.3-7.4 7.4-14.2 12.3-20.7 4.8-6.4 10.3-12.3 14.9-18.9.3-.3-.4-.8-.7-.4M210.8 458.5c-1.1-5.1-3.3-10-5.3-14.8-2.2-5.3-4.4-10.5-6-16s-2.2-10.6-.6-16.1c1.4-4.8 3.9-9.4 4-14.6 0-.2-.3-.3-.4-.1-1 5.2-3.3 10-4.9 15.1-1.5 4.8-.8 9.6.4 14.4 1.4 5.5 3.6 10.8 5.7 16 2.2 5.4 4.3 10.8 6.2 16.4.2.5 1 .2.9-.3"/><path d="M248.7 346.8c-5.8 12.1-3.2 26.3-4.4 39.2-1.2 13.5-9.3 26.3-6.1 40-4.1-5.6-10.9-8.9-16.5-12.8-.1-.1-.3.1-.2.2 6.2 5 14.2 9.2 17.7 16.7 2.2 4.9 2.3 10.7 1.1 15.8s-4 9.8-5.2 14.9c-1.9 0-4 .6-5.8 1l-1.2.3c-.1-.2-.4-.1-.5.1L221 464c-5.3 1.5-10.4 2.5-15.8 3.4-.3 0-.2.4.1.5 4.8.6 9.8-1 14.4-2.2 2.6-.7 5.3-1.5 7.9-2.1-.2 7.7-.7 15.2-2 22.8-1.4 7.9-3.2 15.7-4.6 23.6-1.5 8.3-2.5 16.7-3.9 25-1.1 6.8-2.4 13.7-3.3 20.6-.3 1.1-.6 12.2-.8 13.3-.5 1.4-.8 2.9-.9 4.4-.3 1.6-.6 3.3-.9 4.9-.7 3-1.2 6-1.7 8.9-1.1 6-2 12.1-2.4 18.3 0 .5.7.6.8.1 1.2-6 2-12 3-18 .5-2.9 1.2-5.9 1.8-8.8.6-1.8.9-3.7 1.1-5.6.2-1.1.3-2.2.5-3.2 3-16.8 5-43.7 8-60.4 1.5-8.2 3.4-16.3 4.7-24.6 1.1-6.9 2.3-14.5 1.4-21.5 2.5-.6 5.3-.8 7.7-1.6.4-.1.4-.6.1-.7 4-9.8 8.4-20.2 4.4-30.7-.4-.9-.8-1.8-1.3-2.6-.7-7.1-.5-13.7 1.1-20.6 1.6-6.5 4-12.6 4.9-19.3.8-6.7.5-13.5.6-20.2.1-7 1-13.8 3.3-20.5.2-.5-.3-.7-.5-.4"/><path d="M233.4 438.2c-1.1-5.5-5.9-10.2-9.4-14.3-4.5-5-9-10.4-9.7-17.3 0-.3-.5-.3-.5 0 .2 6.1 3.5 11 7.2 15.6 2.1 2.6 4.3 5 6.4 7.7s3.6 5.6 5.3 8.6c.2.4.8.1.7-.3M202.2 338c-.6-6.2-.9-12.3-1-18.5-.3-12.2.4-24.3 1.1-36.5 0-.3-.4-.3-.4-.1-1.8 12.1-2 24.4-1.7 36.6.3 12.1.8 24.8 3.6 36.6.1.4.7.3.7-.1-.8-6.1-1.7-12-2.3-18M159.6 380c-4.7-4.1-9.8-7.8-14.7-11.6-4.8-3.8-9.6-7.8-14.1-12-9.4-8.6-17.7-18.4-23.9-29.6-.1-.2-.5 0-.4.2 5.8 11.3 13.8 20.9 23 29.5 4.7 4.4 9.7 8.5 14.7 12.5 4.9 3.9 9.8 7.9 14.9 11.5.4.3.8-.2.5-.5M173.1 386.5c-10.1-6.7-19.5-14.5-27.9-23.3-8.6-9.1-15.5-19.2-21.7-30-.2-.3-.5 0-.4.2 4.7 11.1 12.6 21.1 20.8 29.8 8.5 9.1 18.3 17.2 29 23.5.2.1.3-.1.2-.2M120.7 389c-7.1-2.4-14.2-5.1-20.8-8.6-7.1-3.7-13-8.6-19-13.6-.3-.2-.6.1-.4.4 4.9 5.7 11.7 10.1 18.2 13.7 6.9 3.8 14.3 6.7 21.9 8.7.3 0 .5-.5.1-.6M137.7 391.7c-17.8-4.3-31-16.4-43.5-29-.3-.3-.7.1-.5.5 5.8 6.7 12.4 12.7 19.5 17.9s15.5 9.8 24.3 11.1c.4 0 .5-.4.2-.5M150.8 537.3V533c0-.2.2-.4.3-.4 0-.1 0-.2-.1-.2.2-5.6.3-11.1.1-16.6 0-.3-.4-.3-.4 0-.4 4.3-.7 8.7-.8 13.1-1.1-2.8-2.6-5.6-4-8.1-3.2-5.6-6.7-11.1-9.7-16.8-.1-.3-.6-.1-.5.2 1.8 5.4 5 10.3 7.9 15.2 1.6 2.7 3 5.4 4.3 8.2.8 1.8 1.4 3.7 1.9 5.6l-.3 10.9c-.3 9.4-1.2 29-.6 38.3 0 .5.7.5.8 0 1.2-9.3.8-29 1-38.3.1-2.1.1-4.2.2-6.3 0-.3-.1-.4-.1-.5M202.8 504.2c-8.4 5.4-17.2 10.1-25.6 15.5-7.9 5.1-15.7 11.2-20 19.8-.1.2.2.4.3.2 10.2-17.3 30.4-23.3 45.7-34.7.5-.3.1-1.1-.4-.8M133.5 510.6c-2.6 12.4-8.9 23.1-15.9 33.5-6.6 9.7-14.4 23.9-17.4 35.5-.2.6.7.8 1 .3 2.4-5.9 5-15.5 8.3-21 3.2-5.2 6.7-10.2 10.1-15.3 6.7-10 12.9-20.7 14.4-32.8-.1-.4-.5-.5-.5-.2M41.5 528.3c1.7-14.3 4.3-28.9 4.5-43.4 0-.4-.6-.4-.6 0-1.9 14.1-3.1 28.3-4.9 42.4-1.8 14.4-4 33.1-3.6 47.6-1.6 6.9-.3 16.1 2.5 22.3.2.4.9.1.7-.3-1.4-4.1-2.3-7.8-2.4-12.1-.1-3.6.4-7.1.1-10.7.5-6.9.8-17.7 1.4-24.6.6-7 1.5-14.1 2.3-21.2M94.7 497.9c-10.5-.5-21.6-3.7-32.1-1.5-.2 0-.2.4.1.4 5.2-.4 10.3-.2 15.4.4 5.5.7 11 1.6 16.6 1.4.4 0 .4-.7 0-.7M107.7 494.2c-6-.8-12.1-1.3-18.1-1.9-5.9-.6-11.9-1.1-17.9-.8-.2 0-.2.2 0 .3 6 .4 11.9.8 17.9 1.4 6 .7 12.1 1.6 18.1 1.9.5 0 .5-.9 0-.9"/></g></svg>