
<svg id="Layer_1" xmlns="http://www.w3.org/2000/svg" xmlns:xlink="http://www.w3.org/1999/xlink" x="0px" y="0px"
	 viewBox="0 0 2194 1968.8" style="enable-background:new 0 0 2194 1968.8;" xml:space="preserve">
<style type="text/css">
	.st0{display:none;opacity:0.5;fill:#ECEDE6;enable-background:new    ;}
	.st1{opacity:0.5;fill:#9BD6E8;enable-background:new    ;}
	.st2{clip-path:url(#SVGID_00000178914907678168094670000000253536763401010828_);fill:#D5EBFE;}
	.st3{clip-path:url(#SVGID_00000119815410302895674250000017415270153745786815_);}
	.st4{fill:#303C60;}
	.st5{fill:#F09959;}
	.st6{fill:#6791C9;}
	.st7{fill:#75A1DE;}
	.st8{opacity:0.5;fill:#6791C9;enable-background:new    ;}
	.st9{fill:#E38540;}
	.st10{fill:#F5CE5C;}
	.st11{fill:#4381DB;}
	.st12{fill:#2E5B9A;}
	.st13{fill:#9CBEED;}
	.st14{fill:#FFFFFF;}
	.st15{fill:#232E4F;}
	.st16{fill:#1B243D;}
	.st17{fill:#FFD24F;}
	.st18{fill:#EDC055;}
	.st19{fill:#2A66C6;}
	.st20{fill:#63ACC2;}
	.st21{fill:#0F2D5C;}
	.st22{fill:#9EC8FF;}
	.st23{clip-path:url(#SVGID_00000076590466900528084400000017062932672950028212_);fill:#D5EBFE;}
	.st24{clip-path:url(#SVGID_00000054266976182047437310000004473292150802110894_);}
	.st25{fill:#255096;}
	.st26{fill:#FFC34E;}
	.st27{fill:#A1A654;}
	.st28{fill:#C1C765;}
</style>
<path class="st0" d="M2086.1,1282.8c162-254.9,126.2-680.9-120.8-920C1759.4,163.6,1419.8-8.4,1040.7,13.6S342.4,117.9,223.6,248.3
	c-97.1,106.8-22.4,201.5,31.7,284.3c72.4,110.6,99.2,206.2-59,434.6c-180.6,260.7-225.1,352.6-196,552.3
	c23.6,162.4,195.7,344.7,370,332.3c242.8-17.3,306.4-153.1,519.8-288.5c171.1-108.6,304.4-112.7,494.9-38
	C1575.4,1599.9,1848.3,1656.9,2086.1,1282.8"/>
<path class="st1" d="M1969.4,1832.3c-299.3-0.8-968.1,12.1-1493.7,39.4c-525.5,27.3-80.7,88.4,281.2,62.4
	c362-26,615.2,56.9,1058.2,28.9S2316.7,1833.1,1969.4,1832.3"/>
<g>
	<defs>
		<circle id="SVGID_1_" cx="567.5" cy="1175.9" r="320.2"/>
	</defs>
	<clipPath id="SVGID_00000105409776721556433650000002453030835842429373_">
		<use xlink:href="#SVGID_1_"  style="overflow:visible;"/>
	</clipPath>
	
		<circle style="clip-path:url(#SVGID_00000105409776721556433650000002453030835842429373_);fill:#D5EBFE;" cx="567.5" cy="1175.9" r="320.2"/>
</g>
<g>
	<defs>
		<circle id="SVGID_00000082337020259302213690000005542312128645343161_" cx="567.5" cy="1175.9" r="320.2"/>
	</defs>
	<clipPath id="SVGID_00000140000830934294777730000013617934504398234259_">
		<use xlink:href="#SVGID_00000082337020259302213690000005542312128645343161_"  style="overflow:visible;"/>
	</clipPath>
	<g style="clip-path:url(#SVGID_00000140000830934294777730000013617934504398234259_);">
		<path class="st4" d="M515.8,918c48.6-43.3,84.4-17.5,111,11.4c21.2,23,24.2,28.1,41.7,52c2.6,3.5,4.6,7.5,4.7,11.9
			c0.5,26.4,14,137.8-1,176.3c-17.5,44.8-233,65.3-233,65.3L515.8,918z"/>
		<path class="st4" d="M653.8,1195.3c-1.3,0-2.4-1-2.4-2.3c-0.1-1.3,1-2.5,2.3-2.6c6.3-0.3,11.5-3.2,15.8-8.7
			c24.1-31.2,10.5-135.7-1.3-192.5c-0.3-1.3,0.6-2.6,1.9-2.9c1.3-0.3,2.6,0.6,2.9,1.9c2.6,12.4,11.2,56.5,13.9,102.4
			c2.8,47.2-1.8,78.8-13.6,94.1c-5.1,6.6-11.6,10.2-19.4,10.6H653.8 M534,905.1c-93.5,51.7-36.5,226.5-155,288.8
			c-32.8,17.3-133.8,104.9-67.6,220.4c43.2,75.6,172.5,59.3,215.1-7.6C569,1339.8,534,905.1,534,905.1"/>
		<path class="st4" d="M285.3,1302.7c-1.3,0-2.4-1.1-2.4-2.4v-0.3c0.1-0.6,2.1-15.4,11.5-34.9c8.6-18,25.3-43.6,56-63.1
			c54.8-34.9,91.2-67.8,134.2-229.8c0.3-1.3,1.7-2.1,3-1.7c1.3,0.3,2.1,1.7,1.7,3c-20.8,78.4-41.4,131.4-64.9,166.8
			c-21.8,32.9-44.3,48.7-71.4,65.9c-56.9,36.2-65.2,93.9-65.3,94.5C287.5,1301.8,286.5,1302.7,285.3,1302.7"/>
		<path class="st4" d="M287.3,1257.4c-0.5,0-0.9-0.1-1.3-0.4c-1.1-0.7-1.5-2.2-0.8-3.3c13.6-21.5,30.9-39.1,51.4-52.4
			c77-49.8,89.7-78.4,153.3-242.4c0.5-1.3,1.9-1.9,3.2-1.4s1.9,1.9,1.4,3.2c-31.8,82-50.8,130.1-71.6,164.2
			c-22.3,36.6-47.6,57.3-83.6,80.6c-19.9,12.9-36.7,30-49.9,50.9C288.9,1257,288.1,1257.4,287.3,1257.4"/>
		<path class="st5" d="M530.8,1014.2c-32.2,66.8-27.2,127.5-27.2,127.5s3.7,23.5,18.6,28.5c14.8,4.9,35.9-9.9,34.7-29.7
			c-1.2-19.8,5-68.1,12.4-85.4C576.6,1037.7,530.8,1014.1,530.8,1014.2"/>
		<path class="st6" d="M360.8,1478.6c2,18.2-2.5,16.7,13.7,19.8s45.1-8.1,45.1-8.1l-32.4-60.3L360.8,1478.6L360.8,1478.6z"/>
		<path class="st5" d="M507.4,1105.7c-9.1,29.6-77.5,6.8-101.4,13.7c-23.9,6.8-44.5,107.2-47.9,197.2
			c-3.4,90.1,1.1,161.8,10.3,173.2s159.6,16,173.2,11.4s-114-61.6-114-61.6s-8-104.9,2.3-158.4c10.3-53.6,102.6-124.2,102.6-124.2
			L507.4,1105.7L507.4,1105.7z M539.4,1114.9c23.9,36.5,86.6,31.9,108.3,61.6c21.7,29.6,67.2,192.6,67.2,192.6l47.9-165.3
			c0,0,38.8-6.5,26.2,20.5c-22.4,48.1-30.8,203.2-55.1,225.3c-27,24.5-53.9,4.6-69.1-38.3c-14.7-41.5-51.3-131.1-77.5-165.3
			s-54.7-88.9-54.7-88.9L539.4,1114.9L539.4,1114.9z"/>
		<path class="st7" d="M435.6,1119.4c47.9,55.8,141.3,53.6,161.9,46.7l20.5-6.8c0,0,16-5.7,29.6,10.3s46.7,116.3,52.4,139.1
			s14.8,60.4,14.8,60.4s-24.4,29.3-24.4,59s10.4,29.9,10.4,29.9s-30.4-6.8-37.2-25.1s-68.4-183.5-68.4-183.5l-169.8,3.4l2.3,186.9
			c0,0-14.8-13.7-35.3,0s-27.3,45.6-23.9,50.2s-6.8,4.6-6.8,1.1s-19.4-86.6-5.7-223.4s39.9-151.6,54.7-152.7
			C425.4,1113.7,435.6,1119.4,435.6,1119.4"/>
		<g>
			<path class="st6" d="M693.9,1455.6c0.3,0.1,0.5,0.1,0.5,0.1L693.9,1455.6z"/>
			<path class="st6" d="M700.4,1373.2c-9.9,3-26.6,38-26.6,38s-38-82.8-49.4-197.6l-13.6,77.8c18.7,50.3,48.1,129.2,52.7,141.4
				c6.3,16.7,31.5,23.6,34.9,24.4c-0.9-0.3-3-1.6-4.8-6.6c-1-0.9-6.7-3.6-7.8-4.6c-9.1-8.4-5.3-28.1,0.8-50.2
				C692.8,1373.9,710.3,1370.2,700.4,1373.2"/>
		</g>
		<path class="st6" d="M433.6,1252.6l-18.8-86.1c-20.5,28.9-22.8,127.7-14.4,195.3c6.8,55.5,17.1,69.9,24.2,75.6
			c2.1,1.2,3.2,2.3,3.2,2.3l-2.3-186.9L433.6,1252.6L433.6,1252.6z"/>
		<path class="st7" d="M379,1165.7c35,94.2,17.5,113.2,63.5,223.8c25.7,61.8,75.2,108.3,75.2,108.3s39.9,10.3,90.1,6.8
			c50.2-3.4,86.9-6.9,86.9-6.9s-52.7-31.9-54.9-53.6s-12.2-107.6,0.8-168.3c10.1-47.5-31.5-94.9-31.5-94.9l-69.5-3.4L379,1165.7
			L379,1165.7z"/>
		<path class="st8" d="M440.6,1310.1c-6.1-22,25.8,6.8,78.3,12.2s111-3,82.1,6.1s-107.9-4.6-93.5,24.3c17,34,37.1,66.9,66.1,86.6
			c19,12.9,64.6,25.1,20.5,18.2c-44.1-6.8-91.2-58.5-111.7-91.9C461.8,1332.2,441.9,1315,440.6,1310.1"/>
		<path class="st9" d="M556.7,1131.7c0.5-22.8,6-61.6,12.5-76.7c5.3-12.4-16.7-28-29.6-35.8l-10.9-0.5c-1.7,3.6-3.2,7.2-4.7,10.8
			c-11.5,75.7,23,106.9,39.4,113.2c7.1,2.7,15.1,3,21.9,2.4C575.1,1141.5,565.2,1137.4,556.7,1131.7"/>
		<path class="st10" d="M535.8,1165.5c-4,0-8.1-0.5-12.2-1.5c-9.5-2.3-32.3-11.2-37.6-42.9c-0.1-0.8,0.4-1.5,1.1-1.6
			c0.8-0.1,1.5,0.4,1.6,1.1c5,30.1,26.5,38.5,35.5,40.7c14,3.4,28.8,0.3,34.5-7.3c4.5-6.1,1.8-19,1.8-19.1c-0.2-0.7,0.3-1.5,1.1-1.6
			c0.8-0.2,1.5,0.3,1.6,1.1c0.1,0.6,3,14.3-2.3,21.4C556.3,1161.9,546.6,1165.5,535.8,1165.5"/>
		<path class="st5" d="M643,1043.9c-7.7,40.8-25.6,73.8-55.8,67.6s-62-49.3-53.6-90c8.4-40.7,39.6-68.7,69.9-62.5
			S653.3,989.5,643,1043.9 M750.6,1245.5c0,0-55.8,150.1-58.5,165.7s2.7,25.5,4.2,25.5s49-81.3,49-81.3L750.6,1245.5L750.6,1245.5z
			 M752.9,1238.9c4.6-15.2-2.5-34.4-2.5-34.4l20.3,2.5L752.9,1238.9z"/>
		<path class="st11" d="M775.2,1213h-56.5c-3.4,0-5.9-3.3-4.9-6.6l35.7-119.7c0.7-2.2,2.7-3.7,4.9-3.7h56.5c3.4,0,5.9,3.3,4.9,6.6
			l-35.7,119.7C779.4,1211.5,777.4,1213,775.2,1213"/>
		<path class="st12" d="M782.2,1213h-56.5c-3.4,0-5.9-3.3-4.9-6.6l35.7-119.7c0.7-2.2,2.7-3.7,4.9-3.7h56.5c3.4,0,5.9,3.3,4.9,6.6
			l-35.7,119.7C786.5,1211.5,784.5,1213,782.2,1213"/>
		<path class="st13" d="M741.3,1126.3c-6,21.7-10.1,39.6-9.1,39.8c1,0.3,6.7-17.1,12.8-38.8c6.1-21.7,10.1-39.6,9.1-39.8
			C753,1087.2,747.3,1104.5,741.3,1126.3"/>
		<path class="st5" d="M779.7,1248.6c1.7-19.7,18.8-38.2,25.3-44.1c2-1.8,3.1-4.3,3.1-7c-0.1-9.8-0.5-33.1-2.6-35.8
			c-2.6-3.4-9.1-47.9-12.1-46.2c-3,1.7,0.9,40.6,0.9,40.6s-7.3-3.4-11.2-5.2s-19.9,16-19.9,16s-7.5,18.9,13,10.8
			c24.3-9.6,6.1,17.2-10.1,34.4c-13.4,14.2-2,17.3-2,17.3l10.8-0.4L779.7,1248.6L779.7,1248.6z"/>
		<path class="st10" d="M773.6,1264.2c-1.8,0-3.8-0.3-5.9-0.9c-5.3-1.7-14.5-7-17-24c-0.1-0.8,0.4-1.5,1.2-1.6s1.5,0.4,1.6,1.2
			c2,14.3,8.9,19.6,14.3,21.5c4.5,1.6,8.3,1,9.4,0.4c0.1-0.4,0.4-0.8,0.8-1c0.7-0.3,1.5,0.1,1.8,0.8c0.3,0.7,0.1,1.4-0.4,2
			C778.5,1263.6,776.3,1264.2,773.6,1264.2"/>
		<path class="st10" d="M771.5,1259.3c-1.7,0-3.4-0.1-5.1-0.4c-9.8-1.4-16.4-6.4-18.1-13.7c-0.2-0.7,0.3-1.5,1-1.7s1.5,0.3,1.7,1
			c1.5,6.6,7.4,9.6,12.2,10.8c7.1,1.9,13.9,0.9,14.8-0.1c0.4-0.7,1.2-0.9,1.9-0.5s0.9,1.2,0.5,1.9
			C779.3,1258.5,775.6,1259.3,771.5,1259.3"/>
		<path class="st14" d="M608.4,1065.3c-0.6,0-1.3-0.1-1.9-0.2c-9.7-1.5-15.6-14-13.4-28.4s11.6-24.6,21.3-23.1s15.6,14,13.4,28.4
			C625.7,1055.6,617.4,1065.3,608.4,1065.3 M612.5,1018.4c-6.4,0-12.9,8.4-14.6,19.1c-1.7,11.3,2.5,21.8,9.3,22.8s14-7.7,15.7-19
			s-2.5-21.8-9.3-22.8C613.3,1018.4,612.9,1018.4,612.5,1018.4 M640,1065.3c-0.3,0-0.7,0-1-0.1c-6.5-1-9.9-11.5-7.9-24.4
			s8.4-21.9,14.8-20.9c6.5,1,9.9,11.5,7.9,24.4c-0.9,5.8-2.8,11.2-5.3,15S643,1065.3,640,1065.3 M645,1023.6
			c-3.6,0-8.6,7.1-10.2,17.9c-1.7,11.2,1.2,19.6,4.8,20.2c1.8,0.3,3.9-1.3,5.9-4.3c2.3-3.4,4-8.3,4.8-13.6
			c1.7-11.2-1.2-19.6-4.8-20.2L645,1023.6"/>
		<path class="st14" d="M597.9,1027.6c-0.2,0-0.4,0-0.7-0.1l-74.5-21.3c-1.3-0.4-2-1.7-1.7-3c0.4-1.3,1.7-2,3-1.7l74.5,21.3
			c1.3,0.4,2,1.7,1.7,3C599.9,1026.9,598.9,1027.6,597.9,1027.6"/>
		<path class="st4" d="M651.1,981.1c-115.2,67.9-121.6,22.3-121.6,22.3l6.8-64.8l68.4,3.8L651.1,981.1L651.1,981.1z"/>
		<path class="st5" d="M538.4,1018.4c2.7,11.5-1,22.1-8.2,23.8s-15.2-6.3-17.9-17.7c-2.7-11.5,1-22.1,8.2-23.8
			S535.7,1007,538.4,1018.4"/>
		<path class="st10" d="M530.5,1033.5c0,2.5-2,4.5-4.5,4.5s-4.5-2-4.5-4.5s2-4.5,4.5-4.5S530.5,1031,530.5,1033.5"/>
		<path class="st5" d="M563.7,1466.4c0,0,31.2-13.7,40.3-7.6s35.5,33.9,35.5,33.9L563.7,1466.4z"/>
		<path class="st12" d="M637.7,1495.2c-0.6,0.7-1.5,1.1-2,0.7l-64.1-47.7c-3.4-2.6-5.1-6.5-3.4-8.6c1.7-2.1,5.9-1.3,9.1,1.5
			l60.6,52.1C638.4,1493.6,638.3,1494.5,637.7,1495.2"/>
		<path class="st5" d="M469.4,1460.6c0,0,51.7,20.5,57.8,20.5s40-22.8,51.4-19.8s67.1,31.2,65.6,33.4s-17.5,7.6-64.6,6.1
			s-123.9-8.4-123.9-8.4L469.4,1460.6L469.4,1460.6z"/>
	</g>
</g>
<path class="st15" d="M1296.5,1822.7c0,0-271-188.2-385.6-79.7c-91.5,86.7,70.9,188.4,278.8,161.1c146.3-19.3,162.9,8.7,188.5,8.1
	c190.7-14.6,447.6-71.7,322.6-161.3c-170.3-122.1-285.5,7.3-344.9,39.6L1296.5,1822.7L1296.5,1822.7z"/>
<path class="st16" d="M1646.9,1746.3c-71.2-14.7-342.5,85.9-342.5,85.9s-236.3-71.2-292.8-78s-82.5,14.7-82.5,14.7
	s26.7-30.1,57.7-32.8s75.7-10.2,75.7-10.2s452.2-21.5,512.1-7.9S1646.9,1746.3,1646.9,1746.3"/>
<path class="st17" d="M1262.6,1380.1c-10.8,1.7-177.8,74.6-179.8,105.1c-2.1,30.5,45.8,278.1,138.2,310.3s195.9,0,195.9,0
	s108.5-267.9,76.3-318.8s-178-96.7-178-96.7L1262.6,1380.1z"/>
<path class="st17" d="M1139.8,1437.8c-159.6,85.5-198.8,239.9-156.6,273.9c29.6,23.8,141.1,76.6,237.7,73.2s187.4,5.7,187.4,5.7
	s165.8-33.7,198.9-83.4c33.1-49.7-58.7-211.1-140.9-257.7C1384.1,1402.8,1139.8,1437.8,1139.8,1437.8"/>
<path class="st5" d="M1292,1476.8c-22.1,0-40.1-18.1-40.1-40.1v-135.1c0-22.1,18.1-40.1,40.1-40.1s40.1,18.1,40.1,40.1v135.1
	C1332.1,1458.7,1314.1,1476.8,1292,1476.8"/>
<path class="st9" d="M1292,1261.4c-22.1,0-40.1,18.1-40.1,40.1V1412c23.7,19.8,46.6,9.4,80.3-16.7v-93.8
	C1332.1,1279.5,1314.1,1261.4,1292,1261.4"/>
<path class="st5" d="M1380.1,1307c-6.6,13.5-17.3,20.9-23.9,16.7s-6.6-18.6,0-32.1s17.3-20.9,23.9-16.7
	C1386.7,1279.2,1386.7,1293.5,1380.1,1307 M1224.8,1292.6c7.6,12.2,9.1,27.1,3.3,33.1s-16.7,0.9-24.3-11.3s-9.1-27.1-3.3-33.1
	S1217.2,1280.3,1224.8,1292.6"/>
<ellipse class="st5" cx="1293.8" cy="1306.1" rx="69" ry="88.9"/>
<path class="st18" d="M1444.3,1526.1c45.2,24.1,84.6,115.5,84.6,115.5s-101.7,15.8-122.8,31.7c-21.1,15.8,3-6,15.1-49.7
	S1444.3,1526.1,1444.3,1526.1 M1129.5,1519.5c10.6,48.2,61,182.9,61,182.9s-46.8-53.3-96.5-56.3s-68.1-3.8-67.8,8.3
	c0.1,2.4,8.3-53.5,46.7-88.2C1111.4,1531.6,1129.5,1519.5,1129.5,1519.5"/>
<path class="st19" d="M1432.6,1823.2h-273c-11,0-20.4-7.9-22.2-18.8l-32.9-196.5c-2.3-13.7,8.3-26.2,22.2-26.2h338.9
	c13.9,0,24.5,12.5,22.2,26.2l-32.9,196.5C1453,1815.2,1443.6,1823.2,1432.6,1823.2"/>
<path class="st20" d="M1432.6,1823.2h-273c-11,0-20.4-7.7-22.2-18.1l-32.9-189.4c-2.3-13.2,8.3-25.3,22.2-25.3h338.9
	c13.9,0,24.5,12.1,22.2,25.3l-33,189.3C1453,1815.5,1443.6,1823.2,1432.6,1823.2"/>
<path class="st16" d="M1332.1,1900.6c-1.6-0.3-176.3-44-215.3-11.8s130.6,32.8,161.1,25.7
	C1308.4,1907.4,1332.1,1900.6,1332.1,1900.6 M1371.1,1908.4c0,0,37.3-28.1,86.5-23s91.6,15.8,49.2,29.1s-86.5,15-106.8,13.3
	C1379.6,1926.1,1371.1,1908.4,1371.1,1908.4"/>
<path class="st21" d="M1271.8,1180.9c-44.8,13.6-29.2,139.8,22,135.7s53.3-58.7,49.7-94.1C1339.9,1187.1,1318,1166.8,1271.8,1180.9"
	/>
<path class="st21" d="M1255.7,1274.4c-12.5-11.9-29.6,25.7-22.9,42.2s-2.7,26.2,6.4,43.9s-16.8-11.3-20.5-32.6s-5.7-58.2-10.9-74.8
	s0.3-45.5,23.4-51.4s28.6-16.6,37.4-17.2s50.9,3.6,71.7,15.1s32.2,28.6,30.7,54.6c-1.6,26-8.3,92.5-14.6,103.4s-9.5,8.3-7.6,2.1
	s8.6-43.7,3.4-57.2s-2.6-46.8-16.1-49.4s-10.4,20.4-26.5,22.2S1255.7,1274.4,1255.7,1274.4"/>
<path class="st22" d="M1009.9,993.2H763.8c-7.8,0-14.2-6.4-14.1-14.3l1.3-102.3c0.1-7.8,6.6-14.3,14.4-14.3h246.2
	c7.8,0,14.2,6.4,14.1,14.3l-1.3,102.3C1024.3,986.7,1017.8,993.2,1009.9,993.2"/>
<path class="st14" d="M997.8,982.5H776.1c-6.8,0-12.3-5.6-12.2-12.4l1.1-84.7c0.1-6.8,5.7-12.4,12.5-12.4h221.7
	c6.8,0,12.3,5.6,12.2,12.4l-1.1,84.7C1010.3,976.9,1004.6,982.5,997.8,982.5"/>
<path class="st22" d="M859.4,987.2c-1.5,53.9-27.1,70.6-27.1,70.6s11.5-30.9,3-46s-22.7-21.4-22.7-21.4L859.4,987.2z M987.8,903.2
	H844.9c-2.3,0-4.2-1.9-4.2-4.3v-0.2c0-2.3,2-4.3,4.3-4.3h142.9c2.3,0,4.2,1.9,4.2,4.3v0.2C992.1,901.2,990.1,903.2,987.8,903.2
	 M987.6,921.4H844.7c-2.3,0-4.2-1.9-4.2-4.3v-0.2c0-2.3,2-4.3,4.3-4.3h142.9c2.3,0,4.2,1.9,4.2,4.3v0.2
	C991.9,919.5,989.9,921.4,987.6,921.4 M987.3,942H844.4c-2.3,0-4.2-1.9-4.2-4.3v-0.2c0-2.3,2-4.3,4.3-4.3h142.9
	c2.3,0,4.2,1.9,4.2,4.3v0.2C991.6,940.1,989.6,942,987.3,942 M827.7,917.8c-0.2,15.5-10.7,28.2-23.3,28.2s-22.8-12.6-22.6-28.2
	s10.7-28.2,23.3-28.2S827.9,902.3,827.7,917.8 M1215.7,1179.4H966.4c-7.9,0-14.4-6.5-14.3-14.4l1.3-103.6
	c0.1-7.9,6.7-14.4,14.6-14.4h249.3c7.9,0,14.4,6.5,14.3,14.4l-1.3,103.6C1230.2,1172.9,1223.6,1179.4,1215.7,1179.4"/>
<path class="st14" d="M1203.4,1168.6H978.8c-6.9,0-12.4-5.6-12.4-12.5l1.1-85.8c0.1-6.9,5.8-12.5,12.7-12.5h224.6
	c6.9,0,12.4,5.6,12.4,12.5l-1.1,85.8C1216,1163,1210.3,1168.6,1203.4,1168.6"/>
<path class="st22" d="M1097.2,1173.4c0.1,54.6,25.6,71.5,25.6,71.5s-10.8-31.3-1.8-46.6s23.6-21.7,23.6-21.7L1097.2,1173.4
	L1097.2,1173.4z M1116.8,1095.5H994.7c-2.2,0-3.9-1.8-3.9-4v-0.9c0-2.2,1.8-4,4-4H1117c2.2,0,3.9,1.8,3.9,4v0.9
	C1120.8,1093.7,1119,1095.5,1116.8,1095.5 M1116.6,1114H994.4c-2.2,0-3.9-1.8-3.9-4v-0.9c0-2.2,1.8-4,4-4h122.1c2.2,0,3.9,1.8,3.9,4
	v0.9C1120.6,1112.2,1118.8,1114,1116.6,1114 M1116.3,1134.9H994.2c-2.2,0-3.9-1.8-3.9-4v-0.9c0-2.2,1.8-4,4-4h122.1
	c2.2,0,3.9,1.8,3.9,4v0.9C1120.3,1133.1,1118.5,1134.9,1116.3,1134.9 M1175.6,1142.1h-17.7c-7.9,0-14.4-6.5-14.3-14.4l0.5-36.1
	c0.1-7.9,6.7-14.4,14.6-14.4h17.7c7.9,0,14.4,6.5,14.3,14.4l-0.5,36.1C1190.1,1135.6,1183.6,1142.1,1175.6,1142.1"/>
<g>
	<g>
		<defs>
			<circle id="SVGID_00000018930636865053454470000014633754187592804760_" cx="1405.9" cy="581.1" r="351"/>
		</defs>
		<clipPath id="SVGID_00000043425544149196778480000005844631789453411238_">
			<use xlink:href="#SVGID_00000018930636865053454470000014633754187592804760_"  style="overflow:visible;"/>
		</clipPath>
		
			<circle style="clip-path:url(#SVGID_00000043425544149196778480000005844631789453411238_);fill:#D5EBFE;" cx="1405.8" cy="581" r="351"/>
	</g>
</g>
<g>
	<g>
		<defs>
			<circle id="SVGID_00000010269335281684778710000008738894248740731320_" cx="1405.8" cy="581" r="351"/>
		</defs>
		<clipPath id="SVGID_00000178185407632053110740000003366556586143610272_">
			<use xlink:href="#SVGID_00000010269335281684778710000008738894248740731320_"  style="overflow:visible;"/>
		</clipPath>
		<g style="clip-path:url(#SVGID_00000178185407632053110740000003366556586143610272_);">
			<path class="st25" d="M1347.9,595.5c0,0-12.3,11.4-27.7,4c-15.4-7.4-71.5-47-69.8-56.7s27.9-12,27.9-12
				S1359.6,595.1,1347.9,595.5"/>
			<path class="st26" d="M1333.1,594c10.5-1.7-24.1-29.2-35.4-40.6s-18.6-16.7-18.6-16.7s-19.3,2.3-19.3,6.1s55.5,48.1,55.5,48.1
				S1328.3,594.8,1333.1,594"/>
			<path class="st5" d="M1401,643.5c0,0-20.2-34.1-29.9-43.2c-9.7-9.1-42.3-26.8-47.3-26.9c-8.5-0.2,29.1,25.2,29.1,25.2
				s-5.1,33-0.6,45s52.3,27.9,52.3,27.9L1401,643.5z"/>
			<path class="st27" d="M1438.6,679.4c0,0-33-49.5-40.4-46.1s-27.3,46.1-27.3,46.1s58,60.3,58,48.9S1438.6,679.4,1438.6,679.4"/>
			<path class="st5" d="M1529.8,414.2c0,0,34.1,120.6,56.9,170.7c22.8,50.1,34.1,143.4,29.6,307.3s27.3,159.3-20.5,179.8
				s-218.5-13.7-241.3-66s15.2-265.5,71.7-343.7c55.7-77.2,80.8-104.7,80.8-122.9s-22-95.6-22-95.6L1529.8,414.2L1529.8,414.2z"/>
			<path class="st28" d="M1354.6,1006c-22.8-52.3,15.2-265.5,71.7-343.7c26-36,45.3-61.1,58.5-79.6c27-16.1,56.9-31.2,85.5-39.9
				c5.7,16.1,11.4,30.9,16.5,42.1c22.8,50.1,34.1,143.4,29.6,307.3s27.3,159.3-20.5,179.8C1548,1092.5,1377.3,1058.4,1354.6,1006"/>
			<path class="st28" d="M1590.5,521.2c-0.6-9.4-122.2,38.7-122.9,47.8c-0.8,9.1-7.9,43.1-18,61.4s169.3,120.5,162.7,70.7
				C1605.7,651.4,1592,546.3,1590.5,521.2"/>
			<path class="st9" d="M1507,541.5c0.1-0.7,0.1-1.4,0.1-2c0-18.2-22-95.6-22-95.6l44.8-29.6c0,0,7.9,28,18.7,62.6
				C1534.6,518.4,1521.6,532.6,1507,541.5"/>
			<path class="st5" d="M1404.2,473.3c9.5,42.9,39.1,73.4,73.3,65c25.1-6.2,63.7-41.3,51.3-92.5c-10.3-42.7-45.1-71.5-79.5-63.9
				C1415,389.5,1394.8,430.4,1404.2,473.3 M1365.4,752.6c-31.1-53.7-34.6-103.8-56.6-119.5c-31-22-56.4-71.3-45.2-73.2
				s56.6,39.7,56.6,39.7s-11.8-16.2-9-17.5s25.7,15.3,29.2,34.9s47.5,109.8,84.3,138.6C1461.7,784.4,1396.4,806.3,1365.4,752.6"/>
			<path class="st27" d="M1566.7,617.3c55.1,13.7,29.9,180-16.6,278.7s-133.7,13.4-166.3-10.7c-12.4-9.2-20.6-18.5-25.9-26.5
				c10.5-58.9,28.4-122,50.6-166.4C1460.5,753.4,1485.2,597.1,1566.7,617.3"/>
			<path class="st28" d="M1550.1,605.4c69.2,6.9,31.3,179.8-19.3,249.6s-122.7,2.3-145.5-37.9s-68.8-108.6-68.8-153.1
				c0-8.3,17.1-10,37.6-8.5c19.3,1.4,106.4,121.4,106.4,121.4S1489.6,599.3,1550.1,605.4"/>
			<path class="st21" d="M1383.1,383.9c-42.3,17.8-17,74.2,5.3,76.3s48.1-39,61.4-40.5s-2.7,23,9.1,28.6
				c11.8,5.6,22.8,14.9,26.2,29.5c3.4,14.6,12.9,46.5-2.5,47.9c-15.4,1.4-32.2-15.4-42.6-16s-19.6,2.3-19.6,2.3s26.6,36.7,46.1,38.8
				s40.8-26.4,56-50.5c15.2-24.1,8.7-40.2,8.7-40.2s15.5,17.5,25.3,16.1s-14.7-15.4-15.3-56.5s-18.8-62.8-41.2-62.8
				s-19.5-11.4-53.6-10.5C1415.7,347.3,1393,379.7,1383.1,383.9"/>
			<path class="st5" d="M1476.2,468c-1,10.6,4.5,19.8,12.2,20.5s14.8-7.3,15.8-18c1-10.6-4.5-19.8-12.2-20.5
				C1484.2,449.3,1477.2,457.3,1476.2,468"/>
		</g>
	</g>
</g>
</svg>
