<svg xmlns="http://www.w3.org/2000/svg" xmlns:xlink="http://www.w3.org/1999/xlink"  viewBox="0 0 2194 1968.8"><path d="M2086.1 1282.8c162-254.9 126.2-680.9-120.8-920-205.9-199.2-545.5-371.2-924.6-349.2S342.4 117.9 223.6 248.3c-97.1 106.8-22.4 201.5 31.7 284.3 72.4 110.6 99.2 206.2-59 434.6C15.7 1227.9-28.8 1319.8.3 1519.5c23.6 162.4 195.7 344.7 370 332.3 242.8-17.3 306.4-153.1 519.8-288.5 171.1-108.6 304.4-112.7 494.9-38 190.4 74.6 463.3 131.6 701.1-242.5" opacity=".5" fill="#ecede6"/><path d="M1969.4 1832.3c-299.3-.8-968.1 12.1-1493.7 39.4-525.5 27.3-80.7 88.4 281.2 62.4 362-26 615.2 56.9 1058.2 28.9s501.6-129.9 154.3-130.7" opacity=".5" fill="#9bd6e8"/><defs><circle id="prefix__a" cx="567.5" cy="1175.9" r="320.2"/></defs><clipPath id="prefix__b"><use xlink:href="#prefix__a" overflow="visible"/></clipPath><circle cx="567.5" cy="1175.9" r="320.2" clip-path="url(#prefix__b)" fill="#d5ebfe"/><defs><circle id="prefix__c" cx="567.5" cy="1175.9" r="320.2"/></defs><clipPath id="prefix__d"><use xlink:href="#prefix__c" overflow="visible"/></clipPath><g clip-path="url(#prefix__d)"><path d="M515.8 918c48.6-43.3 84.4-17.5 111 11.4 21.2 23 24.2 28.1 41.7 52 2.6 3.5 4.6 7.5 4.7 11.9.5 26.4 14 137.8-1 176.3-17.5 44.8-233 65.3-233 65.3L515.8 918z" fill="#303c60"/><path d="M653.8 1195.3c-1.3 0-2.4-1-2.4-2.3-.1-1.3 1-2.5 2.3-2.6 6.3-.3 11.5-3.2 15.8-8.7 24.1-31.2 10.5-135.7-1.3-192.5-.3-1.3.6-2.6 1.9-2.9 1.3-.3 2.6.6 2.9 1.9 2.6 12.4 11.2 56.5 13.9 102.4 2.8 47.2-1.8 78.8-13.6 94.1-5.1 6.6-11.6 10.2-19.4 10.6h-.1M534 905.1c-93.5 51.7-36.5 226.5-155 288.8-32.8 17.3-133.8 104.9-67.6 220.4 43.2 75.6 172.5 59.3 215.1-7.6 42.5-66.9 7.5-501.6 7.5-501.6" fill="#303c60"/><path d="M285.3 1302.7c-1.3 0-2.4-1.1-2.4-2.4v-.3c.1-.6 2.1-15.4 11.5-34.9 8.6-18 25.3-43.6 56-63.1 54.8-34.9 91.2-67.8 134.2-229.8.3-1.3 1.7-2.1 3-1.7 1.3.3 2.1 1.7 1.7 3-20.8 78.4-41.4 131.4-64.9 166.8-21.8 32.9-44.3 48.7-71.4 65.9-56.9 36.2-65.2 93.9-65.3 94.5-.2 1.1-1.2 2-2.4 2" fill="#303c60"/><path d="M287.3 1257.4c-.5 0-.9-.1-1.3-.4-1.1-.7-1.5-2.2-.8-3.3 13.6-21.5 30.9-39.1 51.4-52.4 77-49.8 89.7-78.4 153.3-242.4.5-1.3 1.9-1.9 3.2-1.4s1.9 1.9 1.4 3.2c-31.8 82-50.8 130.1-71.6 164.2-22.3 36.6-47.6 57.3-83.6 80.6-19.9 12.9-36.7 30-49.9 50.9-.5.6-1.3 1-2.1 1" fill="#303c60"/><path d="M530.8 1014.2c-32.2 66.8-27.2 127.5-27.2 127.5s3.7 23.5 18.6 28.5c14.8 4.9 35.9-9.9 34.7-29.7-1.2-19.8 5-68.1 12.4-85.4 7.3-17.4-38.5-41-38.5-40.9" fill="#f09959"/><path d="M360.8 1478.6c2 18.2-2.5 16.7 13.7 19.8s45.1-8.1 45.1-8.1l-32.4-60.3-26.4 48.6z" fill="#6791c9"/><path d="M507.4 1105.7c-9.1 29.6-77.5 6.8-101.4 13.7-23.9 6.8-44.5 107.2-47.9 197.2-3.4 90.1 1.1 161.8 10.3 173.2s159.6 16 173.2 11.4-114-61.6-114-61.6-8-104.9 2.3-158.4c10.3-53.6 102.6-124.2 102.6-124.2l-25.1-51.3zM539.4 1114.9c23.9 36.5 86.6 31.9 108.3 61.6 21.7 29.6 67.2 192.6 67.2 192.6l47.9-165.3s38.8-6.5 26.2 20.5c-22.4 48.1-30.8 203.2-55.1 225.3-27 24.5-53.9 4.6-69.1-38.3-14.7-41.5-51.3-131.1-77.5-165.3s-54.7-88.9-54.7-88.9l6.8-42.2z" fill="#f09959"/><path d="M435.6 1119.4c47.9 55.8 141.3 53.6 161.9 46.7l20.5-6.8s16-5.7 29.6 10.3 46.7 116.3 52.4 139.1 14.8 60.4 14.8 60.4-24.4 29.3-24.4 59 10.4 29.9 10.4 29.9-30.4-6.8-37.2-25.1-68.4-183.5-68.4-183.5l-169.8 3.4 2.3 186.9s-14.8-13.7-35.3 0-27.3 45.6-23.9 50.2-6.8 4.6-6.8 1.1-19.4-86.6-5.7-223.4 39.9-151.6 54.7-152.7c14.7-1.2 24.9 4.5 24.9 4.5" fill="#75a1de"/><g fill="#6791c9"><path d="M693.9 1455.6c.3.1.5.1.5.1l-.5-.1z"/><path d="M700.4 1373.2c-9.9 3-26.6 38-26.6 38s-38-82.8-49.4-197.6l-13.6 77.8c18.7 50.3 48.1 129.2 52.7 141.4 6.3 16.7 31.5 23.6 34.9 24.4-.9-.3-3-1.6-4.8-6.6-1-.9-6.7-3.6-7.8-4.6-9.1-8.4-5.3-28.1.8-50.2 6.2-21.9 23.7-25.6 13.8-22.6"/></g><path d="M433.6 1252.6l-18.8-86.1c-20.5 28.9-22.8 127.7-14.4 195.3 6.8 55.5 17.1 69.9 24.2 75.6 2.1 1.2 3.2 2.3 3.2 2.3l-2.3-186.9 8.1-.2z" fill="#6791c9"/><path d="M379 1165.7c35 94.2 17.5 113.2 63.5 223.8 25.7 61.8 75.2 108.3 75.2 108.3s39.9 10.3 90.1 6.8c50.2-3.4 86.9-6.9 86.9-6.9s-52.7-31.9-54.9-53.6-12.2-107.6.8-168.3c10.1-47.5-31.5-94.9-31.5-94.9l-69.5-3.4-160.6-11.8z" fill="#75a1de"/><path d="M440.6 1310.1c-6.1-22 25.8 6.8 78.3 12.2s111-3 82.1 6.1-107.9-4.6-93.5 24.3c17 34 37.1 66.9 66.1 86.6 19 12.9 64.6 25.1 20.5 18.2-44.1-6.8-91.2-58.5-111.7-91.9-20.6-33.4-40.5-50.6-41.8-55.5" opacity=".5" fill="#6791c9"/><path d="M556.7 1131.7c.5-22.8 6-61.6 12.5-76.7 5.3-12.4-16.7-28-29.6-35.8l-10.9-.5c-1.7 3.6-3.2 7.2-4.7 10.8-11.5 75.7 23 106.9 39.4 113.2 7.1 2.7 15.1 3 21.9 2.4-10.2-3.6-20.1-7.7-28.6-13.4" fill="#e38540"/><path d="M535.8 1165.5c-4 0-8.1-.5-12.2-1.5-9.5-2.3-32.3-11.2-37.6-42.9-.1-.8.4-1.5 1.1-1.6.8-.1 1.5.4 1.6 1.1 5 30.1 26.5 38.5 35.5 40.7 14 3.4 28.8.3 34.5-7.3 4.5-6.1 1.8-19 1.8-19.1-.2-.7.3-1.5 1.1-1.6.8-.2 1.5.3 1.6 1.1.1.6 3 14.3-2.3 21.4-4.6 6.1-14.3 9.7-25.1 9.7" fill="#f5ce5c"/><path d="M643 1043.9c-7.7 40.8-25.6 73.8-55.8 67.6s-62-49.3-53.6-90c8.4-40.7 39.6-68.7 69.9-62.5s49.8 30.5 39.5 84.9m107.6 201.6s-55.8 150.1-58.5 165.7 2.7 25.5 4.2 25.5 49-81.3 49-81.3l5.3-109.9zm2.3-6.6c4.6-15.2-2.5-34.4-2.5-34.4l20.3 2.5-17.8 31.9z" fill="#f09959"/><path d="M775.2 1213h-56.5c-3.4 0-5.9-3.3-4.9-6.6l35.7-119.7c.7-2.2 2.7-3.7 4.9-3.7h56.5c3.4 0 5.9 3.3 4.9 6.6l-35.7 119.7c-.7 2.2-2.7 3.7-4.9 3.7" fill="#4381db"/><path d="M782.2 1213h-56.5c-3.4 0-5.9-3.3-4.9-6.6l35.7-119.7c.7-2.2 2.7-3.7 4.9-3.7h56.5c3.4 0 5.9 3.3 4.9 6.6l-35.7 119.7c-.6 2.2-2.6 3.7-4.9 3.7" fill="#2e5b9a"/><path d="M741.3 1126.3c-6 21.7-10.1 39.6-9.1 39.8 1 .3 6.7-17.1 12.8-38.8 6.1-21.7 10.1-39.6 9.1-39.8-1.1-.3-6.8 17-12.8 38.8" fill="#9cbeed"/><path d="M779.7 1248.6c1.7-19.7 18.8-38.2 25.3-44.1 2-1.8 3.1-4.3 3.1-7-.1-9.8-.5-33.1-2.6-35.8-2.6-3.4-9.1-47.9-12.1-46.2-3 1.7.9 40.6.9 40.6s-7.3-3.4-11.2-5.2-19.9 16-19.9 16-7.5 18.9 13 10.8c24.3-9.6 6.1 17.2-10.1 34.4-13.4 14.2-2 17.3-2 17.3l10.8-.4 4.8 19.6z" fill="#f09959"/><path d="M773.6 1264.2c-1.8 0-3.8-.3-5.9-.9-5.3-1.7-14.5-7-17-24-.1-.8.4-1.5 1.2-1.6s1.5.4 1.6 1.2c2 14.3 8.9 19.6 14.3 21.5 4.5 1.6 8.3 1 9.4.4.1-.4.4-.8.8-1 .7-.3 1.5.1 1.8.8.3.7.1 1.4-.4 2-.9 1-3.1 1.6-5.8 1.6" fill="#f5ce5c"/><path d="M771.5 1259.3c-1.7 0-3.4-.1-5.1-.4-9.8-1.4-16.4-6.4-18.1-13.7-.2-.7.3-1.5 1-1.7s1.5.3 1.7 1c1.5 6.6 7.4 9.6 12.2 10.8 7.1 1.9 13.9.9 14.8-.1.4-.7 1.2-.9 1.9-.5s.9 1.2.5 1.9c-1.1 1.9-4.8 2.7-8.9 2.7" fill="#f5ce5c"/><path d="M608.4 1065.3c-.6 0-1.3-.1-1.9-.2-9.7-1.5-15.6-14-13.4-28.4s11.6-24.6 21.3-23.1 15.6 14 13.4 28.4c-2.1 13.6-10.4 23.3-19.4 23.3m4.1-46.9c-6.4 0-12.9 8.4-14.6 19.1-1.7 11.3 2.5 21.8 9.3 22.8s14-7.7 15.7-19-2.5-21.8-9.3-22.8c-.3-.1-.7-.1-1.1-.1m27.5 46.9c-.3 0-.7 0-1-.1-6.5-1-9.9-11.5-7.9-24.4s8.4-21.9 14.8-20.9c6.5 1 9.9 11.5 7.9 24.4-.9 5.8-2.8 11.2-5.3 15s-5.5 6-8.5 6m5-41.7c-3.6 0-8.6 7.1-10.2 17.9-1.7 11.2 1.2 19.6 4.8 20.2 1.8.3 3.9-1.3 5.9-4.3 2.3-3.4 4-8.3 4.8-13.6 1.7-11.2-1.2-19.6-4.8-20.2h-.5" fill="#fff"/><path d="M597.9 1027.6c-.2 0-.4 0-.7-.1l-74.5-21.3c-1.3-.4-2-1.7-1.7-3 .4-1.3 1.7-2 3-1.7l74.5 21.3c1.3.4 2 1.7 1.7 3-.3 1.1-1.3 1.8-2.3 1.8" fill="#fff"/><path d="M651.1 981.1c-115.2 67.9-121.6 22.3-121.6 22.3l6.8-64.8 68.4 3.8 46.4 38.7z" fill="#303c60"/><path d="M538.4 1018.4c2.7 11.5-1 22.1-8.2 23.8s-15.2-6.3-17.9-17.7c-2.7-11.5 1-22.1 8.2-23.8s15.2 6.3 17.9 17.7" fill="#f09959"/><path d="M530.5 1033.5c0 2.5-2 4.5-4.5 4.5s-4.5-2-4.5-4.5 2-4.5 4.5-4.5 4.5 2 4.5 4.5" fill="#f5ce5c"/><path d="M563.7 1466.4s31.2-13.7 40.3-7.6 35.5 33.9 35.5 33.9l-75.8-26.3z" fill="#f09959"/><path d="M637.7 1495.2c-.6.7-1.5 1.1-2 .7l-64.1-47.7c-3.4-2.6-5.1-6.5-3.4-8.6 1.7-2.1 5.9-1.3 9.1 1.5l60.6 52.1c.5.4.4 1.3-.2 2" fill="#2e5b9a"/><path d="M469.4 1460.6s51.7 20.5 57.8 20.5 40-22.8 51.4-19.8 67.1 31.2 65.6 33.4-17.5 7.6-64.6 6.1-123.9-8.4-123.9-8.4l13.7-31.8z" fill="#f09959"/></g><path d="M1296.5 1822.7s-271-188.2-385.6-79.7c-91.5 86.7 70.9 188.4 278.8 161.1 146.3-19.3 162.9 8.7 188.5 8.1 190.7-14.6 447.6-71.7 322.6-161.3-170.3-122.1-285.5 7.3-344.9 39.6l-59.4 32.2z" fill="#232e4f"/><path d="M1646.9 1746.3c-71.2-14.7-342.5 85.9-342.5 85.9s-236.3-71.2-292.8-78-82.5 14.7-82.5 14.7 26.7-30.1 57.7-32.8 75.7-10.2 75.7-10.2 452.2-21.5 512.1-7.9 72.3 28.3 72.3 28.3" fill="#1b243d"/><path d="M1262.6 1380.1c-10.8 1.7-177.8 74.6-179.8 105.1-2.1 30.5 45.8 278.1 138.2 310.3s195.9 0 195.9 0 108.5-267.9 76.3-318.8-178-96.7-178-96.7l-52.6.1z" fill="#ffd24f"/><path d="M1139.8 1437.8c-159.6 85.5-198.8 239.9-156.6 273.9 29.6 23.8 141.1 76.6 237.7 73.2s187.4 5.7 187.4 5.7 165.8-33.7 198.9-83.4c33.1-49.7-58.7-211.1-140.9-257.7-82.2-46.7-326.5-11.7-326.5-11.7" fill="#ffd24f"/><path d="M1292 1476.8c-22.1 0-40.1-18.1-40.1-40.1v-135.1c0-22.1 18.1-40.1 40.1-40.1s40.1 18.1 40.1 40.1v135.1c0 22-18 40.1-40.1 40.1" fill="#f09959"/><path d="M1292 1261.4c-22.1 0-40.1 18.1-40.1 40.1V1412c23.7 19.8 46.6 9.4 80.3-16.7v-93.8c-.1-22-18.1-40.1-40.2-40.1" fill="#e38540"/><path d="M1380.1 1307c-6.6 13.5-17.3 20.9-23.9 16.7s-6.6-18.6 0-32.1 17.3-20.9 23.9-16.7c6.6 4.3 6.6 18.6 0 32.1m-155.3-14.4c7.6 12.2 9.1 27.1 3.3 33.1s-16.7.9-24.3-11.3-9.1-27.1-3.3-33.1 16.7-1 24.3 11.3" fill="#f09959"/><ellipse cx="1293.8" cy="1306.1" rx="69" ry="88.9" fill="#f09959"/><path d="M1444.3 1526.1c45.2 24.1 84.6 115.5 84.6 115.5s-101.7 15.8-122.8 31.7c-21.1 15.8 3-6 15.1-49.7s23.1-97.5 23.1-97.5m-314.8-6.6c10.6 48.2 61 182.9 61 182.9s-46.8-53.3-96.5-56.3-68.1-3.8-67.8 8.3c.1 2.4 8.3-53.5 46.7-88.2 38.5-34.6 56.6-46.7 56.6-46.7" fill="#edc055"/><path d="M1432.6 1823.2h-273c-11 0-20.4-7.9-22.2-18.8l-32.9-196.5c-2.3-13.7 8.3-26.2 22.2-26.2h338.9c13.9 0 24.5 12.5 22.2 26.2l-32.9 196.5c-1.9 10.8-11.3 18.8-22.3 18.8" fill="#2a66c6"/><path d="M1432.6 1823.2h-273c-11 0-20.4-7.7-22.2-18.1l-32.9-189.4c-2.3-13.2 8.3-25.3 22.2-25.3h338.9c13.9 0 24.5 12.1 22.2 25.3l-33 189.3c-1.8 10.5-11.2 18.2-22.2 18.2" fill="#63acc2"/><path d="M1332.1 1900.6c-1.6-.3-176.3-44-215.3-11.8s130.6 32.8 161.1 25.7c30.5-7.1 54.2-13.9 54.2-13.9m39 7.8s37.3-28.1 86.5-23 91.6 15.8 49.2 29.1-86.5 15-106.8 13.3c-20.4-1.7-28.9-19.4-28.9-19.4" fill="#1b243d"/><path d="M1271.8 1180.9c-44.8 13.6-29.2 139.8 22 135.7s53.3-58.7 49.7-94.1c-3.6-35.4-25.5-55.7-71.7-41.6" fill="#0f2d5c"/><path d="M1255.7 1274.4c-12.5-11.9-29.6 25.7-22.9 42.2s-2.7 26.2 6.4 43.9-16.8-11.3-20.5-32.6-5.7-58.2-10.9-74.8.3-45.5 23.4-51.4 28.6-16.6 37.4-17.2 50.9 3.6 71.7 15.1 32.2 28.6 30.7 54.6c-1.6 26-8.3 92.5-14.6 103.4s-9.5 8.3-7.6 2.1 8.6-43.7 3.4-57.2-2.6-46.8-16.1-49.4-10.4 20.4-26.5 22.2-53.9-.9-53.9-.9" fill="#0f2d5c"/><path d="M1009.9 993.2H763.8c-7.8 0-14.2-6.4-14.1-14.3l1.3-102.3c.1-7.8 6.6-14.3 14.4-14.3h246.2c7.8 0 14.2 6.4 14.1 14.3l-1.3 102.3c-.1 7.8-6.6 14.3-14.5 14.3" fill="#9ec8ff"/><path d="M997.8 982.5H776.1c-6.8 0-12.3-5.6-12.2-12.4l1.1-84.7c.1-6.8 5.7-12.4 12.5-12.4h221.7c6.8 0 12.3 5.6 12.2 12.4l-1.1 84.7c0 6.8-5.7 12.4-12.5 12.4" fill="#fff"/><path d="M859.4 987.2c-1.5 53.9-27.1 70.6-27.1 70.6s11.5-30.9 3-46-22.7-21.4-22.7-21.4l46.8-3.2zm128.4-84H844.9c-2.3 0-4.2-1.9-4.2-4.3v-.2c0-2.3 2-4.3 4.3-4.3h142.9c2.3 0 4.2 1.9 4.2 4.3v.2c0 2.3-2 4.3-4.3 4.3m-.2 18.2H844.7c-2.3 0-4.2-1.9-4.2-4.3v-.2c0-2.3 2-4.3 4.3-4.3h142.9c2.3 0 4.2 1.9 4.2 4.3v.2c0 2.4-2 4.3-4.3 4.3m-.3 20.6H844.4c-2.3 0-4.2-1.9-4.2-4.3v-.2c0-2.3 2-4.3 4.3-4.3h142.9c2.3 0 4.2 1.9 4.2 4.3v.2c0 2.4-2 4.3-4.3 4.3m-159.6-24.2c-.2 15.5-10.7 28.2-23.3 28.2s-22.8-12.6-22.6-28.2 10.7-28.2 23.3-28.2 22.8 12.7 22.6 28.2m388 261.6H966.4c-7.9 0-14.4-6.5-14.3-14.4l1.3-103.6c.1-7.9 6.7-14.4 14.6-14.4h249.3c7.9 0 14.4 6.5 14.3 14.4l-1.3 103.6c-.1 7.9-6.7 14.4-14.6 14.4" fill="#9ec8ff"/><path d="M1203.4 1168.6H978.8c-6.9 0-12.4-5.6-12.4-12.5l1.1-85.8c.1-6.9 5.8-12.5 12.7-12.5h224.6c6.9 0 12.4 5.6 12.4 12.5l-1.1 85.8c-.1 6.9-5.8 12.5-12.7 12.5" fill="#fff"/><path d="M1097.2 1173.4c.1 54.6 25.6 71.5 25.6 71.5s-10.8-31.3-1.8-46.6 23.6-21.7 23.6-21.7l-47.4-3.2zm19.6-77.9H994.7c-2.2 0-3.9-1.8-3.9-4v-.9c0-2.2 1.8-4 4-4H1117c2.2 0 3.9 1.8 3.9 4v.9c-.1 2.2-1.9 4-4.1 4m-.2 18.5H994.4c-2.2 0-3.9-1.8-3.9-4v-.9c0-2.2 1.8-4 4-4h122.1c2.2 0 3.9 1.8 3.9 4v.9c.1 2.2-1.7 4-3.9 4m-.3 20.9H994.2c-2.2 0-3.9-1.8-3.9-4v-.9c0-2.2 1.8-4 4-4h122.1c2.2 0 3.9 1.8 3.9 4v.9c0 2.2-1.8 4-4 4m59.3 7.2h-17.7c-7.9 0-14.4-6.5-14.3-14.4l.5-36.1c.1-7.9 6.7-14.4 14.6-14.4h17.7c7.9 0 14.4 6.5 14.3 14.4l-.5 36.1c-.1 7.9-6.6 14.4-14.6 14.4" fill="#9ec8ff"/><g><defs><circle id="prefix__e" cx="1405.9" cy="581.1" r="351"/></defs><clipPath id="prefix__f"><use xlink:href="#prefix__e" overflow="visible"/></clipPath><circle cx="1405.8" cy="581" r="351" clip-path="url(#prefix__f)" fill="#d5ebfe"/></g><g><defs><circle id="prefix__g" cx="1405.8" cy="581" r="351"/></defs><clipPath id="prefix__h"><use xlink:href="#prefix__g" overflow="visible"/></clipPath><g clip-path="url(#prefix__h)"><path d="M1347.9 595.5s-12.3 11.4-27.7 4c-15.4-7.4-71.5-47-69.8-56.7s27.9-12 27.9-12 81.3 64.3 69.6 64.7" fill="#255096"/><path d="M1333.1 594c10.5-1.7-24.1-29.2-35.4-40.6s-18.6-16.7-18.6-16.7-19.3 2.3-19.3 6.1 55.5 48.1 55.5 48.1 13 3.9 17.8 3.1" fill="#ffc34e"/><path d="M1401 643.5s-20.2-34.1-29.9-43.2c-9.7-9.1-42.3-26.8-47.3-26.9-8.5-.2 29.1 25.2 29.1 25.2s-5.1 33-.6 45 52.3 27.9 52.3 27.9l-3.6-28z" fill="#f09959"/><path d="M1438.6 679.4s-33-49.5-40.4-46.1-27.3 46.1-27.3 46.1 58 60.3 58 48.9 9.7-48.9 9.7-48.9" fill="#a1a654"/><path d="M1529.8 414.2s34.1 120.6 56.9 170.7c22.8 50.1 34.1 143.4 29.6 307.3s27.3 159.3-20.5 179.8-218.5-13.7-241.3-66 15.2-265.5 71.7-343.7c55.7-77.2 80.8-104.7 80.8-122.9s-22-95.6-22-95.6l44.8-29.6z" fill="#f09959"/><path d="M1354.6 1006c-22.8-52.3 15.2-265.5 71.7-343.7 26-36 45.3-61.1 58.5-79.6 27-16.1 56.9-31.2 85.5-39.9 5.7 16.1 11.4 30.9 16.5 42.1 22.8 50.1 34.1 143.4 29.6 307.3s27.3 159.3-20.5 179.8c-47.9 20.5-218.6-13.6-241.3-66" fill="#c1c765"/><path d="M1590.5 521.2c-.6-9.4-122.2 38.7-122.9 47.8-.8 9.1-7.9 43.1-18 61.4s169.3 120.5 162.7 70.7c-6.6-49.7-20.3-154.8-21.8-179.9" fill="#c1c765"/><path d="M1507 541.5c.1-.7.1-1.4.1-2 0-18.2-22-95.6-22-95.6l44.8-29.6s7.9 28 18.7 62.6c-14 41.5-27 55.7-41.6 64.6" fill="#e38540"/><path d="M1404.2 473.3c9.5 42.9 39.1 73.4 73.3 65 25.1-6.2 63.7-41.3 51.3-92.5-10.3-42.7-45.1-71.5-79.5-63.9-34.3 7.6-54.5 48.5-45.1 91.4m-38.8 279.3c-31.1-53.7-34.6-103.8-56.6-119.5-31-22-56.4-71.3-45.2-73.2s56.6 39.7 56.6 39.7-11.8-16.2-9-17.5 25.7 15.3 29.2 34.9 47.5 109.8 84.3 138.6c37 28.8-28.3 50.7-59.3-3" fill="#f09959"/><path d="M1566.7 617.3c55.1 13.7 29.9 180-16.6 278.7s-133.7 13.4-166.3-10.7c-12.4-9.2-20.6-18.5-25.9-26.5 10.5-58.9 28.4-122 50.6-166.4 52 61 76.7-95.3 158.2-75.1" fill="#a1a654"/><path d="M1550.1 605.4c69.2 6.9 31.3 179.8-19.3 249.6s-122.7 2.3-145.5-37.9-68.8-108.6-68.8-153.1c0-8.3 17.1-10 37.6-8.5 19.3 1.4 106.4 121.4 106.4 121.4s29.1-177.6 89.6-171.5" fill="#c1c765"/><path d="M1383.1 383.9c-42.3 17.8-17 74.2 5.3 76.3s48.1-39 61.4-40.5-2.7 23 9.1 28.6c11.8 5.6 22.8 14.9 26.2 29.5 3.4 14.6 12.9 46.5-2.5 47.9-15.4 1.4-32.2-15.4-42.6-16s-19.6 2.3-19.6 2.3 26.6 36.7 46.1 38.8 40.8-26.4 56-50.5c15.2-24.1 8.7-40.2 8.7-40.2s15.5 17.5 25.3 16.1-14.7-15.4-15.3-56.5-18.8-62.8-41.2-62.8-19.5-11.4-53.6-10.5c-30.7.9-53.4 33.3-63.3 37.5" fill="#0f2d5c"/><path d="M1476.2 468c-1 10.6 4.5 19.8 12.2 20.5s14.8-7.3 15.8-18c1-10.6-4.5-19.8-12.2-20.5-7.8-.7-14.8 7.3-15.8 18" fill="#f09959"/></g></g></svg>