<svg xmlns="http://www.w3.org/2000/svg" viewBox="0 0 408.1 369.5"><style>.prefix__st0{fill:#fff}.prefix__st1{fill:#3a3a3a}.prefix__st2{fill:#b59e6f}.prefix__st5{fill:#fcd2c8}.prefix__st6{fill:#e4edef}.prefix__st7{fill:#c9c9c9}.prefix__st11{fill:#cc9a50}.prefix__st12{fill:#c6c6c6}.prefix__st13{fill:#af8b61}.prefix__st14{fill:#d1d1d1}.prefix__st17{fill:#8feaea}.prefix__st19{fill:#80cfff}.prefix__st21{fill:#8ac9dd;stroke:#3a3a3a;stroke-miterlimit:10}.prefix__st22{fill:#e09b41}.prefix__st25,.prefix__st26{fill:#fcfca7;stroke:#3a3a3a;stroke-miterlimit:10}.prefix__st26{fill:#fff}.prefix__st27{fill:#eaeaea}.prefix__st31{fill:#f9b964}.prefix__st35{fill:#d3d3d3}</style><g id="prefix__OBJECTS"><path class="prefix__st0" d="M270 100.7s-3-1.5-3.6-3.7c-.6-2.2-2.4-11.2-2.4-11.2s3.7-3.3 4.7-1.8c1 1.5 3.5 8.6 3.5 8.6s1.9-4.6 2.3-3.7c.4.9-1.4 6-1.8 6.7s0 3.9 0 3.9"/><path class="prefix__st1" d="M269.9 100.9c-.1-.1-3.1-1.6-3.7-3.8-.6-2.2-2.4-11.1-2.4-11.2v-.1l.1-.1c.1-.1 2.7-2.5 4.2-2.3.3 0 .6.2.8.5.8 1.3 2.7 6.4 3.3 8.1.7-1.7 1.6-3.4 2.1-3.4.1 0 .3 0 .4.3.5 1-1.4 6.2-1.8 6.9-.3.5-.1 2.5 0 3.7l-.5.1c0-.3-.4-3.3 0-4 .5-.8 2-5.5 1.8-6.4-.4.3-1.2 2.1-1.9 3.6l-.2.6-.2-.6c0-.1-2.5-7.1-3.5-8.5-.1-.2-.3-.3-.5-.3-1-.1-3 1.4-3.8 2.1.2 1.1 1.8 9 2.4 11 .6 2.1 3.5 3.5 3.5 3.5l-.1.3z"/><path class="prefix__st2" d="M331.8 117.5l-2 21.7-37.9.9-.9-21s-10.3 11.1-13.8 11.3-7.9-30-7.2-30.2c.7-.2 2.6-1.7 2.6-1.7l8.8 17.6s9.7-23.4 12.4-27.4c2.7-4.1 10.6.6 10.6 1l6.1-.1 10.6.1s2.9 1 5.5-.3 11.1 6.6 17.1 20.1 6.1 16.4 6.1 16.4v2.5"/><path class="prefix__st1" d="M291.7 140.4l-.9-20.7c-1.9 2-10.4 10.8-13.6 11-2.5 0-4.8-11.8-6-18.9-.5-2.9-.9-5.8-1.2-8-.4-3.6-.2-3.7 0-3.7.5-.2 2-1.2 2.5-1.6l.2-.2 8.7 17.4c1.4-3.4 9.8-23.2 12.3-27 1.5-2.2 4.4-1.9 6.5-1.3 1.8.5 3.9 1.6 4.4 2.2l6-.1 10.7.2s2.8 1 5.3-.3c.5-.2 1.1-.2 1.8 0 3.9 1.4 10.8 9.3 15.5 20.2 5.9 13.5 6.1 16.4 6.1 16.5v2.5h-.5V126s-.2-3-6.1-16.3c-5.2-11.9-12.1-18.8-15.3-20-.6-.2-1.1-.2-1.5-.1-2.5 1.3-5.3.4-5.6.3l-10.5-.1-6.4.1v-.2c-.4-.4-4-2.5-7-2.5-1.4 0-2.5.5-3.2 1.6-2.6 4-12.3 27.2-12.4 27.4l-.2.5-8.9-17.8c-.5.4-1.7 1.3-2.3 1.5-.2 1.6 3 24.9 6.2 29.3.2.3.5.6.8.5 3.3-.2 13.6-11.1 13.7-11.3l.4-.4.9 21.3 37.4-.9 2-21.5h.5l-2 21.9-38.3 1.1z"/><path class="prefix__st1" d="M274 123.9c1.5-.4 3.1-.4 4.5.1.7.2 1.4.6 2.1 1 .5.4 1.7 1.1 1.7 1.8 0 .3.5.3.5 0-.1-1.4-2.2-2.5-3.4-3-1.8-.7-3.7-.9-5.6-.4-.3.1-.1.6.2.5zM290.8 119.7c1.3-2.5 2.3-5.2 2.9-8.1.1-.3-.4-.4-.4-.1-.6 2.8-1.5 5.4-2.8 7.9-.3.3.1.5.3.3zM292 118.7c.1-.3.3-.5.4-.8.1-.3-.3-.5-.4-.2-.1.3-.3.5-.4.8-.1.2.3.4.4.2zM293.1 116.4c.2-.3.3-.6.4-.9.1-.3-.4-.4-.4-.1-.1.3-.2.6-.4.8-.2.2.2.4.4.2z"/><g><path class="prefix__st1" d="M292 120.3c.3 0 .3-.5 0-.5s-.3.5 0 .5z"/></g><g><path class="prefix__st2" d="M329.5 111.4l5.2 14-20.3 6.3.6 4.5s36.4 7.2 37 0c.6-7.2-5.2-19-5.2-19"/><path class="prefix__st1" d="M342.1 139.6c-10.7 0-26.2-3-27.1-3.2h-.2l-.6-4.8.2-.1 20.1-6.2-5.1-13.8.4-.2 5.3 14.2-20.3 6.3.5 4.1c2.4.5 30.3 5.7 35.7 1.6.5-.4.8-.9.9-1.4.6-7-5.1-18.8-5.2-18.9l.4-.2c.2.5 5.8 12 5.2 19.2-.1.7-.4 1.3-1 1.7-1.7 1.2-5.1 1.7-9.2 1.7z"/><path class="prefix__st1" d="M334.2 125.8c1.5-.6 3.1-1 4.7-1.1.3 0 .3-.5 0-.5-1.7.1-3.3.5-4.8 1.1-.3.2-.2.6.1.5zM335.5 124.6c.1-.1.3-.1.4-.2.3-.1 0-.5-.2-.4-.1.1-.3.1-.4.2-.3.1-.1.5.2.4zM337 124c1.1-.4 2.3-.5 3.5-.2.3.1.4-.4.1-.4-1.3-.3-2.5-.2-3.7.2-.3.1-.2.5.1.4zM329.4 115.9c-.2.9-.3 1.9-.5 2.8-.1.3.4.4.4.1.2-.9.3-1.9.5-2.8.1-.3-.4-.4-.4-.1zM330.4 117.2c-.1 2.2-.4 4.4-.8 6.6-.1.3.4.4.4.1.4-2.2.7-4.5.8-6.7.1-.3-.4-.2-.4 0zM329.3 120.2l-.3 2.1c-.1.3.4.4.4.1.1-.7.3-1.5.3-2.2 0-.3-.4-.3-.4 0zM345.3 139c-.1-1.8 1.2-3.7 2.3-5 1-1.2 2.3-2.2 3.7-2.9.3-.1 0-.5-.2-.4-1.6.8-3.1 1.9-4.2 3.4-1 1.3-2.2 3.1-2.1 4.9.1.3.6.3.5 0z"/><g><path class="prefix__st0" d="M314.4 131.8s-5.6-1.1-6.2-.9c-.6.2-8.9 4.1-8.8 5s4.8.5 6.1-.3 9.2.1 9.2.1l-.3-3.9z"/><path class="prefix__st1" d="M301.2 136.7c-.7 0-1.2-.1-1.6-.2-.3-.1-.4-.3-.5-.5-.2-1.2 8.8-5.2 8.9-5.3.6-.2 5 .6 6.3.8h.2l.2 4.4h-.3c-3.1-.4-8.1-.7-9-.2-.6.6-2.7 1-4.2 1zm7.3-5.6h-.2c-1.2.5-8.5 4-8.6 4.8 0 0 .1.1.2.1 1 .4 4.5 0 5.5-.6 1.2-.8 7.5-.1 9 .1l-.2-3.5c-2.4-.5-5-.9-5.7-.9z"/></g></g><g><path class="prefix__st0" d="M310.6 87.6c.1.4 0 .8.2 1.1l.3.3c.4.3.8.5 1.3.8.6.4 1.3.9 2.1.9.5 0 1.1-.1 1.6-.2l4.5-1.2c.2-.9.2-1.8.1-2.7"/><path class="prefix__st1" d="M310.4 87.6c.1.7.1 1.1.7 1.5.8.6 1.7 1.3 2.7 1.6.9.3 1.8.1 2.7-.1 1.4-.4 2.8-.7 4.2-1.1.1 0 .1-.1.2-.2.1-.9.2-1.8.1-2.7 0-.3-.5-.3-.5 0 0 .5.1 1.2 0 1.8-.2.9-.6.8-1.3 1l-3.3.9c-1.4.3-2.3-.1-3.5-.8-.3-.2-.8-.4-1.1-.7-.4-.4-.4-.8-.4-1.3-.2-.3-.6-.1-.5.1z"/></g><g><path d="M308.3 60.7c-.1-.9-.2-1.9-.2-2.8 0-1.3.1-2.7.7-3.8 1.1-1.8 3.4-2.4 5.4-2.2s3.9 1.1 5.8 1.9c1.5.6 3.1 1.2 4.6 2 1.5.8 2.8 1.9 3.7 3.3.9 1.4 1.1 3.3.4 4.8-.1.2-.2.3-.1.5 0 .2.1.3.2.5 1.8 2.3 2.3 5.5 1.1 8.2-1.2 2.6-4.1 4.5-6.9 4.2-.4-1.4-.4-2.9 0-4.3.1-.4.3-.9.4-1.3.1-1.1-.6-2.2-1.3-3.1-.2-.3-.4-.6-.5-1-.1-.7.3-1.3.7-1.8.8-1.2 1.3-2.8.6-4-.2-.4-.6-.6-.9-.9-3-2.3-6.9-3.8-10.6-2.8-.8.2-1.6.6-2.1 1.3-.3.4-.4 1-.7 1.4" fill="#e08e17"/><path class="prefix__st1" d="M308.5 60.7c-.4-3.2-.7-7.3 3.1-8.4 3-.9 6 .8 8.7 1.9 2.8 1.2 6.1 2.3 7.7 5.1.9 1.5.9 3 .4 4.6-.3 1 .4 1.5.9 2.3 1.4 2.7 1.3 6.1-.7 8.4-.9 1.1-2.1 1.9-3.5 2.3-.4.1-1.4.5-1.9.3-.7-.3-.4-2.3-.4-2.9.1-1.1.8-2.2.5-3.4-.1-.5-.3-1-.6-1.5-.2-.3-.5-.6-.7-1-.5-.9-.5-1.4 0-2.3 1.1-1.9 1.8-3.9-.2-5.4-2.2-1.7-5-3-7.8-3.2-1.2-.1-2.5.1-3.7.6-1.3.6-1.5 1.5-2.2 2.6-.2.3.2.5.4.2.3-.4.4-1 .7-1.4.5-.7 1.3-1.1 2.1-1.3 1.5-.4 3-.3 4.5 0 1.3.3 2.6.9 3.8 1.5 1.4.8 3.2 1.8 3.1 3.6-.1 1.3-1.1 2.2-1.5 3.3-.4 1.1.3 1.7.9 2.6.5.8.9 1.7.8 2.7-.1.6-.4 1.2-.5 1.8-.2 1.2-.1 2.5.2 3.7 0 .1.1.2.2.2 3.1.1 6.2-1.8 7.3-4.7.6-1.5.7-3.3.3-4.9-.2-.7-.5-1.5-.8-2.1-.3-.5-.6-.9-.7-1.4-.1-.6.3-1.2.3-1.8.4-3.6-2.7-6.2-5.7-7.6-1.9-.9-3.9-1.7-5.8-2.4-1.7-.7-3.5-1.2-5.3-1-1.6.2-3.2 1-4 2.5-1.1 1.9-.7 4.5-.5 6.6.2.2.6.2.6-.1z"/><path d="M304 73.1s-3.4 4.8-2.4 9.8 10.7 4.8 10.9 4.8c.2 0 9.5 1 10.1-3.7.6-4.7.3-6.8.6-7.9.3-1.1-.2-3.1-.2-3.1s-4.5 4.2-5 4.5c-.4.3-4.2-1.4-4.2-1.7 0-.3-2.7-1.9-4.2-2s-4.3-.1-4.3-.1l-1.3-.6z" fill="#ffbb43"/><path class="prefix__st1" d="M314.8 88c-.8 0-1.6 0-2.2-.1h-.1c-1.7 0-10.1-.1-11.1-5-1.1-5 2.3-9.8 2.4-10l.1-.2 1.5.8c.4 0 2.8-.1 4.2.1 1.3.1 4.1 1.5 4.4 2.2.3.4 3.4 1.7 3.8 1.6.3-.2 3.7-3.3 4.9-4.5l.3-.3.1.4c0 .1.5 2 .2 3.2-.1.5-.1 1.1-.2 2.1 0 1.3-.1 3.1-.4 5.8-.3 3.3-4.6 3.9-7.9 3.9zm-2.3-.6h.2c2.1.2 9.2.4 9.7-3.5.3-2.7.4-4.5.4-5.8 0-1 0-1.7.2-2.2.2-.8 0-1.9-.1-2.5-1 1-4.3 4-4.7 4.3-.6.4-3.5-1.1-3.6-1.1-.8-.4-.9-.6-1-.7-.3-.3-2.6-1.7-4-1.8-1.5-.1-4.2-.1-4.2-.1h-.1l-1.3-.7c-.6.9-3.1 5.2-2.2 9.5 1 4.6 9.7 4.6 10.7 4.6zm1.2-11.4zm.4-.2s0 .1 0 0c0 .1 0 0 0 0z"/><path class="prefix__st0" d="M310.6 57.3s-4.5 3.3-5.7 10.2c-1.2 7-1 6.6-1 6.6v1.2l4.6-.6s2.9.2 4.4 1.8 3.4 3.1 4.7 2.3 6.9-6.8 6.9-8.3c0-1.5-2.1-1.7-1.9-3.1s2.5-3.8 2.5-3.8.3-5.9-14.5-6.3z"/><path class="prefix__st1" d="M316.7 79.2c-1.1 0-2.4-.9-4-2.6-1.4-1.5-4.2-1.7-4.2-1.7l-4.8.6V74c0-.4.2-1.8 1-6.6 1.2-7 5.7-10.4 5.8-10.4h.2c8.4.2 11.9 2.2 13.4 3.9 1.3 1.4 1.2 2.7 1.2 2.7v.1l-.1.1s-2.2 2.3-2.4 3.7c-.1.5.3.9.8 1.3s1.1.9 1.1 1.7c0 1.7-5.7 7.7-7 8.4-.3.2-.6.3-1 .3zm-8.2-4.7c.2 0 3 .2 4.6 1.9 1.3 1.4 3.2 3 4.4 2.2 1.3-.8 6.8-6.7 6.8-8.1 0-.6-.4-1-.9-1.4-.5-.4-1.1-.9-1-1.7.2-1.3 2.1-3.4 2.5-3.8 0-.3-.1-1.2-1.1-2.3-1.4-1.6-4.9-3.5-13-3.7-.5.4-4.4 3.7-5.5 10-.7 4.3-.9 5.8-1 6.3v1.2l4.2-.6z"/><path class="prefix__st1" d="M311.4 68.2c-.7.9-4.4 4.7-1.5 5 .3 0 .3-.4 0-.5-1.6-.2.3-2.3.6-2.6.4-.6.9-1.2 1.3-1.7.2-.2-.2-.4-.4-.2zM316.7 65.7c1-.1 1.9.3 2.5 1.1.2.2.6 0 .4-.2-.7-.9-1.8-1.5-2.9-1.4-.3 0-.3.5 0 .5zM309.7 63.5c-1.2-.2-2.4.3-3.3 1.2-.2.2.1.5.3.3.8-.8 1.9-1.2 3-1 .3 0 .3-.5 0-.5zM307.3 66.4c.2.3.2.7.1 1.1-.2.6.7.8.9.2.2-.6.1-1.2-.2-1.8-.2-.5-1.1-.1-.8.5zM316 68c.1.4.1.8 0 1.2-.1.6.8.8.9.2.1-.6.1-1.1 0-1.7-.2-.5-1.1-.3-.9.3z"/><path class="prefix__st5" d="M319.2 72.1c0 .7-.8 1.4-1.7 1.4s-1.7-.6-1.7-1.4c0-.7.8-1.4 1.7-1.4s1.7.6 1.7 1.4z"/><g><path class="prefix__st5" d="M308.4 71.1c-.3.7-1.3.8-2.1.4s-1.2-1.3-.9-2 1.3-.8 2.1-.4c.8.5 1.2 1.3.9 2z"/></g><g><path d="M307.1 77.4c.4.1.6.5.9.7.4.2.6 0 1-.1.5-.1 1.6.6 1.8-.3 0-.2-.3-.3-.3-.1 0 .2-.7.1-.8.1-.2 0-.2-.1-.3-.1-.3 0-.5.2-.7.2-.7.1-.8-.6-1.4-.7-.3-.1-.4.2-.2.3zM308.4 79c.4.2.9.2 1.3.2.2 0 .2-.3 0-.3-.4 0-.8-.1-1.2-.2-.2-.2-.3.2-.1.3zM303.7 85.4c-.3-1.2-.4-2.4-.3-3.7 0-.2-.3-.2-.3 0-.1 1.3 0 2.5.3 3.8 0 .3.4.2.3-.1zM303.7 80.6c.1-.1.1-.3.2-.4.1-.2-.3-.3-.3-.1-.1.1-.1.3-.2.4-.1.2.2.3.3.1zM318.2 87.5c1-1.7 1.4-3.6 1.3-5.6 0-.2-.4-.2-.3 0 .2 1.9-.3 3.8-1.2 5.4-.3.3 0 .4.2.2zM319.3 81v-.6c0-.2-.3-.2-.3 0v.6c0 .3.3.3.3 0zM320.1 87.1c.8-1.6 1.2-3.4 1-5.2 0-.2-.4-.2-.3 0 .2 1.8-.2 3.5-1 5.1-.1.1.2.3.3.1zM321 80.4v-.8c0-.2-.3-.2-.3 0v.8c-.1.3.3.3.3 0zM306 86.5c-.2-1.1-.2-2.1 0-3.2 0-.2-.3-.3-.3-.1-.2 1.1-.2 2.2 0 3.4 0 .2.3.1.3-.1zM306.2 81.7c.1-.2.1-.4.2-.6.1-.2-.3-.3-.3-.1-.1.2-.1.4-.2.6-.1.3.3.4.3.1z"/></g><g><path class="prefix__st0" d="M324.6 70.5c.3-.5 1.1-.5 1.5-.1s.6 1 .5 1.6c-.1 1.7-1.3 3.2-2.9 3.7-.1 0-.2.1-.3 0 0 0-.1-.1-.1-.2-.1-.5-.2-1-.2-1.4 0-.2-.1-.5 0-.7 0-.3.2-.5.3-.8.3-.6.6-1.2.9-1.7"/><path class="prefix__st1" d="M324.7 70.6c1-1.1 1.7.6 1.7 1.4 0 .4-.1.7-.2 1.1-.3.9-1 1.6-1.8 2.1-.2.1-.6.4-.8.3-.1-.1-.2-1.3-.2-1.4 0-1.2.6-2.1 1.2-3.1.1-.3-.3-.5-.4-.2-.4.8-1 1.6-1.2 2.4-.2.6 0 2 .3 2.5.5.9 2-.4 2.5-.9.9-.9 1.5-2.5 1.1-3.8-.3-1-1.5-1.7-2.4-.8-.3.3 0 .6.2.4z"/></g></g><g><path class="prefix__st0" d="M306.4 87c-.3-.3-.9-.2-1.2 0-.4.3-.6.6-.8 1-.3.6-.7 1.2-1 1.8-.1.1-.2.3-.1.4 0 .1.1.3.2.4 1.3 1.6 3 2.9 4.8 3.9.3.2.7.3 1 .1.2-.1.2-.2.3-.4.2-.3.4-.7.6-1 .3-.6.7-1.2 1.3-1.5s1.5-.1 1.7.5c.4-.5.5-1.2.2-1.7l-1.7-1.1-1.1-1.7-4.2-.7z"/><path class="prefix__st1" d="M306.5 86.8c-1.4-.8-2.2.8-2.8 1.8-.3.4-.9 1.1-.8 1.7.1.6.9 1.2 1.3 1.6l2.1 1.8c.6.4 1.6 1.3 2.4 1.3.5 0 .7-.2.9-.6.3-.4.5-.9.8-1.3.4-.6 1.6-2.1 2.4-.7.1.2.3.1.4 0 .3-.5.6-1.2.3-1.8-.2-.4-.4-.4-.7-.7-.3-.2-1-.6-1.1-.7-.3-.4-.6-.9-.8-1.4-.4-.6-.9-.5-1.6-.6-.9-.2-1.9-.3-2.8-.4-.3-.1-.5.4-.2.4.8.1 1.5.2 2.3.3.5.1.9.1 1.4.2.1 0 .3 0 .4.1.1 0-.2-.1 0 .1.5.5.6 1.2 1.1 1.7.9.8 2.5.9 1.4 2.5h.4c-.4-.7-1.2-.9-2-.6-.4.2-.6.4-.9.7-.4.5-.7 1.5-1.2 1.9-1.3.9-3.9-1.7-4.7-2.6-.3-.3-.6-.5-.8-.8-.3-.5-.3-.8 0-1.3.4-.7 1.3-2.9 2.5-2.2.3.1.6-.3.3-.4z"/></g><g><path class="prefix__st0" d="M315.4 90.7c-.3.3-.4.8-.2 1.2.1.1.2.3.3.3.2 0 .3-.3.5-.4.3-.2.7-.2 1 .1s.4.6.4 1c.1.7.2 1.5 0 2.2 1.6.6 3.4.3 5-.3.9-.3 1.9-.7 2.6-1.4s1.3-1.5 1.4-2.5c.1-1.1-.4-2.1-1.1-2.9s-1.8-1.2-2.8-1.4c-.6-.1-1.5 0-1.6.6-.1.3.1.7 0 1-.1.2-.2.4-.4.5-1.4 1.1-3.5.9-4.9 2.1"/><path class="prefix__st1" d="M315.2 90.6c-.3.4-.6 1.7.2 1.8.3.1.3-.2.5-.2 1.7-.4 1.4 1.9 1.3 2.9 0 .1.1.2.2.2 3.6 1.1 12.1-2 8.6-6.9-.8-1.2-3.6-2.9-5-1.7-.2.2-.3.4-.4.8-.1.6-.1 1-.8 1.5-.3.2-.7.3-1 .4-1.2.4-2.4.6-3.4 1.4-.2.2 0 .6.2.4 1-.8 2.3-1 3.5-1.4.7-.2 1.7-.6 1.9-1.4V88c.1-.6.3-1.2 1.1-1.1.7 0 1.5.3 2.2.7 1.7 1 2.4 3.2 1.2 4.9-.9 1.2-2.4 1.9-3.8 2.3-.8.2-1.6.4-2.5.4-.4 0-1 .1-1.3-.1-.4-.2-.3-.3-.3-.8-.1-.8 0-1.9-.7-2.5-.2-.2-.6-.3-.9-.2-.1 0-.3.2-.3.2-.3.4-.4.2-.2-.8.2-.4-.2-.7-.3-.4z"/></g><g><path class="prefix__st6" d="M301.9 134.8h-41.1c-2.9 0-5.2-2.3-5.2-5.2v-22.7c0-2.9 2.3-5.2 5.2-5.2h41.1c2.9 0 5.2 2.3 5.2 5.2v22.7c0 2.9-2.3 5.2-5.2 5.2z"/><path class="prefix__st1" d="M302.3 135h-41.8c-2.8 0-5.1-2.3-5.1-5.1v-23.4c0-2.8 2.3-5.1 5.1-5.1h41.8c2.8 0 5.1 2.3 5.1 5.1V130c0 2.8-2.3 5-5.1 5zm-41.8-33c-2.5 0-4.6 2.1-4.6 4.6V130c0 2.5 2.1 4.6 4.6 4.6h41.8c2.5 0 4.6-2.1 4.6-4.6v-23.4c0-2.5-2.1-4.6-4.6-4.6h-41.8z"/><g><path class="prefix__st0" d="M284.3 112.6c0 1.8-1.5 3.2-3.2 3.2s-3.2-1.4-3.2-3.2 1.5-3.2 3.2-3.2 3.2 1.4 3.2 3.2z"/></g></g><g><path class="prefix__st6" d="M255.2 134.1h52.4v2.3h-52.4z"/><path class="prefix__st1" d="M307.8 136.7h-52.9v-2.8h52.9v2.8zm-52.4-.4h51.9v-1.9h-51.9v1.9z"/></g><g><path class="prefix__st7" d="M164.7 136.5h215.7v8H164.7z"/><path class="prefix__st1" d="M380.6 144.7H164.5v-8.5h216.1v8.5zm-215.6-.4h215.2v-7.5H165v7.5z"/><path d="M169.5 144.5c.3 0 11.6 76.4 11.6 76.4h7.5l4.2-6.9 152.3-.6s.4 8.1 1.3 7.5c.9-.6 11 0 11 0l17.6-76.4" fill="#e1ecef"/><path class="prefix__st1" d="M357.8 221.4h-.4c-4.8-.3-10.1-.4-10.8-.1-.2.1-.4.1-.6 0-.7-.3-1.1-2.8-1.4-7.4l-151.6.6-4.2 6.9h-8.1l-.1-.4c-3.8-25.8-11.2-74.9-11.6-76.3l.4-.1v-.6c.4 0 .4 0 1 3.7.3 2 .8 4.9 1.4 8.7 1 6.3 2.3 15.2 4 26.3 2.6 17.4 5.2 34.9 5.6 37.8h6.8l4.2-6.9h.3l152.8-.6v.4c.1 2.9.5 6.2.9 7 1.6-.4 7.6-.1 10.7 0l17.5-76 .9.2-17.7 76.8zm-11.7-.9z"/><path fill="#cddce0" d="M172.8 145.9l2.1 5.4h193.3l2.6-5.1"/><path d="M211.4 125.3c-.8-.2-1.6-.6-2.2-1.2-.4-.4-.8-.9-.8-1.5s.3-1.2.8-1.4c.7-.2 1.3.2 1.9.6-1.1-.9-2-2.1-2.4-3.5-.3-1-.2-2.5.8-2.8.5-.2 1.1.1 1.5.5.4.4.6.9.9 1.4-.5-2 .1-4.2 1.5-5.7.4-.5 1.1-.9 1.7-.7.9.3.9 1.5.7 2.4-.2 1.1-.6 2.2-1.1 3.2.7-.9 1.5-1.7 2.6-1.9 1.1-.2 2.4.6 2.4 1.7 0 .8-.6 1.5-1.2 2.1-.5.5-1.1.9-1.6 1.3.5-.5 1.5-.3 1.9.3s.3 1.5-.2 2.1c-.4.6-1.2.9-1.9 1.1.5-.3 1.2.3 1.2.9s-.5 1.1-1.1 1.4c-.7.4-1.5.7-2.3.7" fill="#bbea78"/><path class="prefix__st1" d="M211.5 125c-.9-.2-1.7-.6-2.3-1.4-.3-.4-.9-1.4-.4-1.9.5-.1 1.1-.2 1.6-.2.2.1.4.3.6.4.2.2.5-.2.3-.4-1.1-.9-2-2.1-2.4-3.5-.2-.7-.2-1.6.4-2.1 1.2-.9 2 .7 2.4 1.6.1.2.5.1.4-.2-.4-1.9 0-3.9 1.4-5.3.6-.6 1.9-1.1 2.2.1.1.4 0 .9 0 1.3-.2 1.1-.6 2.1-1 3.1-.1.2.2.5.4.3.9-1.1 2.3-2.4 3.8-1.6 2.3 1.3-.8 3.6-1.9 4.4-.2.2 0 .6.2.4 1.3-.9 2.2 1 1.5 2.1-.4.6-1.1.9-1.7 1 0 .1.1.3.1.4.9.6 1 1.1.4 1.6-.2.2-.4.3-.6.4-.6.4-1.3.5-2 .6-.3 0-.3.5 0 .5 1.2-.1 3.1-.6 3.5-2 .3-.9-.4-1.8-1.4-1.6-.3.1-.2.5.1.4 1.3-.3 2.7-1.3 2.4-2.9-.2-1.2-1.5-1.8-2.5-1.1.1.1.2.3.2.4 1.3-.9 4.1-3 2.4-4.8-1.6-1.7-3.8-.2-4.9 1.2.1.1.2.2.4.3.5-1 2.6-6.6-.5-6-1.2.2-2 1.6-2.5 2.6-.5 1.3-.6 2.6-.4 4 .1-.1.3-.1.4-.2-.4-.9-.9-1.9-1.9-2-.8-.1-1.4.3-1.7 1-.8 2 1 4.5 2.5 5.7.1-.1.2-.2.3-.4-1.1-.8-2.8-1.2-3.1.6-.2 1.7 1.7 2.9 3.1 3.3.3.5.4 0 .2-.1z"/><path class="prefix__st11" d="M209.3 136.5l-2.2-9.7h13.7l-2.8 9.7z"/><path class="prefix__st1" d="M218.2 136.7h-9l-2.3-10.2h14.3l-3 10.2zm-8.7-.4h8.3l2.7-9.2h-13.1l2.1 9.2z"/><path class="prefix__st11" d="M206.6 125.1h14.8v3.5h-14.8z"/><path class="prefix__st1" d="M221.6 128.8h-15.2v-3.9h15.2v3.9zm-14.8-.5h14.3v-3h-14.3v3z"/><g><path class="prefix__st1" d="M216.8 119.1c.3-.1.5-.3.7-.5.2-.2-.1-.5-.3-.3-.2.2-.4.3-.6.4-.3.1 0 .5.2.4z"/></g><g><path class="prefix__st1" d="M218.4 117.8c.2-.1.4-.3.5-.6.1-.3-.3-.5-.4-.2-.1.2-.2.3-.4.4-.2.1 0 .5.3.4z"/></g><g><path class="prefix__st1" d="M214.4 116.5c.1-.1.1-.3.2-.4.1-.3-.3-.5-.4-.2-.1.1-.1.3-.2.4-.2.2.2.5.4.2z"/></g><g><path class="prefix__st1" d="M215.1 114c.1-.3.2-.6.2-.9.1-.3-.4-.4-.4-.1-.1.3-.2.6-.2.9-.2.3.3.4.4.1z"/></g><g><path class="prefix__st0" d="M176.9 13h48.6v57.3h-48.6z"/><path class="prefix__st1" d="M226.5 71.2H176V12h50.5v59.2zm-48.6-1.8h46.8V13.9h-46.8v55.5z"/><g><path class="prefix__st12" d="M188.8 24.6h26.4v31.8h-26.4z"/></g></g><g><path class="prefix__st0" d="M109.8 36.6H147v43.8h-37.2z"/><path class="prefix__st1" d="M147.9 81.3h-39V35.7h39v45.6zm-37.2-1.8H146v-42h-35.3v42z"/><g><path class="prefix__st12" d="M118.9 45.5h20.2v24.3h-20.2z"/></g></g><g><path class="prefix__st0" d="M248.3 1.2h68.6v46.2h-68.6z"/><path class="prefix__st1" d="M318.4 0v48.5h-71.5V0h71.5zm-2.9 46.2V2.3h-65.7v43.9h65.7z"/><g><path class="prefix__st12" d="M262.3 11h38v25.1h-38z"/></g></g><path class="prefix__st7" d="M190.9 217l153.9-.8 1.3 4.3-157.2.8"/></g><g><path class="prefix__st7" d="M99.9 204c-15.7 3-31.3 6.3-46.8 9.9-2.1.5-4.8 1.7-4.5 3.9.1.8.6 1.4 1.1 2 1.8 1.8 4.5 2.4 7 2.9 7.4 1.5 14.8 2.9 22.1 4.4 3.7.7 7.5 1.5 11.2 1.3 5.2-.3 10.1-2.5 14.9-4.6 7.1-3.1 14.1-6.2 21.2-9.3 1.8-.8 3.9-2.4 3.1-4.2-.4-.9-1.5-1.3-2.4-1.5-9-2.7-18.3-4.5-27.7-5.5"/><path class="prefix__st13" d="M73 194.5s3.1 34.2 5 32.6 3.6-31.5 3.6-31.5"/><path class="prefix__st1" d="M77.9 227.4h-.2c-2-.8-4.5-27.5-5-32.8 0-.1.1-.2.2-.3.1 0 .2.1.3.2 1.4 15.4 3.5 32 4.7 32.4 1.3-1.1 2.8-19.4 3.5-31.4 0-.1.1-.2.2-.2s.2.1.2.2c-.2 3.1-1.7 30.1-3.7 31.7 0 .1-.1.2-.2.2z"/><path class="prefix__st13" d="M45.2 185.3s3.1 34.2 5 32.6 3.6-31.5 3.6-31.5"/><path class="prefix__st1" d="M50.1 218.2h-.2c-2-.8-4.5-27.5-5-32.8 0-.1.1-.2.2-.3.1 0 .2.1.3.2 1.4 15.4 3.5 32 4.7 32.4 1.3-1.1 2.8-19.4 3.5-31.4 0-.1.1-.2.2-.2s.2.1.2.2c-.2 3.1-1.7 30.1-3.7 31.7 0 .1-.1.2-.2.2z"/><path class="prefix__st13" d="M94.8 175.2s3.1 34.2 5 32.6 3.6-31.5 3.6-31.5"/><path class="prefix__st1" d="M99.7 208.1h-.2c-2-.8-4.5-27.5-5-32.8 0-.1.1-.2.2-.3.1 0 .2.1.3.2 1.4 15.4 3.5 32 4.7 32.4 1.3-1.1 2.8-19.4 3.5-31.4 0-.1.1-.2.2-.2s.2.1.2.2c-.2 3.1-1.7 30.1-3.7 31.7 0 .1-.1.2-.2.2z"/><g><path class="prefix__st13" d="M121.4 179.2s3.1 34.2 5 32.6c2-1.6 3.6-31.5 3.6-31.5"/><path class="prefix__st1" d="M126.2 212.1h-.2c-2-.8-4.5-27.5-5-32.8 0-.1.1-.2.2-.3.1 0 .2.1.3.2 1.4 15.4 3.5 32 4.7 32.4 1.3-1.1 2.8-19.4 3.5-31.4 0-.1.1-.2.2-.2s.2.1.2.2c-.2 3.1-1.7 30.1-3.7 31.7 0 .2-.1.2-.2.2z"/></g><g><path class="prefix__st14" d="M58 113.7s-26.4-1-26.8 5.9c-.4 6.9 4.2 57.6 12.1 58.7s54.4-9.7 54.4-9.7-5.9-56.9-10.5-57.4c-4.7-.4-29.2 2.5-29.2 2.5z"/><path class="prefix__st1" d="M44.7 178.7c-.6 0-1.1 0-1.5-.1-8.3-1.2-12.7-53-12.3-59 .4-7 25.7-6.2 27-6.2 1.2-.1 24.6-2.9 29.2-2.4.8.1 3.1.3 7.2 29.1 2 14.1 3.5 28.4 3.5 28.5 0 .1-.1.2-.2.3-1.7.4-42.1 9.8-52.9 9.8zm10-64.8c-7 0-23 .6-23.3 5.8-.5 7.6 4.3 57.4 11.9 58.5 7.5 1.1 50.7-8.9 54.1-9.7-2.4-22.8-7-56.6-10.3-56.9-4.5-.5-28.8 2.4-29.1 2.4-.1 0-1.3-.1-3.3-.1z"/><g><path class="prefix__st14" d="M40.5 176s.1 7.3 5.1 11.6 35.6 8.3 38 7.9c2.4-.4 44.7-11 47.6-13s2.9-12.4 2.3-12.4-5.8-1.1-5.8-1.1L90 164.8 40.5 176z"/><path class="prefix__st1" d="M83.2 195.8c-4.7 0-32.7-3.8-37.7-8-5-4.3-5.2-11.7-5.2-11.7 0-.1.1-.2.2-.2l49.6-11.2h.1l37.7 4.2c2.1.4 5.3 1.1 5.7 1.1.2 0 .3.3.4.4.5 1.6.2 10.6-2.5 12.5-2.9 2.1-45.1 12.6-47.7 13.1-.2-.2-.4-.2-.6-.2zm-42.4-19.6c.1 1.2.6 7.4 5 11.2 5 4.2 35.5 8.3 37.8 7.9 2.5-.4 44.7-11 47.5-13 2.6-1.8 2.8-11 2.3-12-.9-.1-5.2-1-5.7-1.1L90.1 165l-49.3 11.2z"/><path class="prefix__st14" d="M43.8 176.8c.3.4 36 8.6 39.8 7.5l47.6-12.2"/><path class="prefix__st1" d="M82.7 184.6c-3.7 0-14-2-20.3-3.3-6.2-1.3-18.4-4-18.7-4.4-.1-.1-.1-.3 0-.3.1-.1.2-.1.3 0 .6.3 9.5 2.4 18.8 4.3 11.7 2.4 19.3 3.6 20.8 3.2 3.8-1 47.2-12 47.6-12.2.1 0 .3 0 .3.2s0 .3-.2.3c-.4.1-43.8 11.2-47.6 12.2h-1z"/><g><path class="prefix__st1" d="M83.7 186.9c3.5-.5 6.9-1.5 10.1-2.8.3-.1.2-.6-.1-.5-3.3 1.3-6.7 2.2-10.1 2.8-.3.1-.2.5.1.5zM85.3 188.6c1-.2 2-.5 3-.9.3-.1 0-.5-.2-.4-.9.5-1.9.7-2.9.9-.4 0-.2.4.1.4z"/></g></g></g><g><path d="M57.2 107.9c-1.3-1.1-2.5-2.2-3.5-3.6-2.9-3.8-3.3-9.1-1.5-13.5 1.8-4.4 5.6-7.8 10-9.7 3.2-1.3 6.8-1.9 10.2-1.3 3.4.6 6.7 2.4 8.8 5.1 2.3 2.9 3.3 6.9 2.6 10.5-.6 2.8-2 5.3-2 8.2 0 3.1 1.8 5.8 3.9 8.1s4.4 4.3 6.1 6.9 2.4 6 1 8.7c-1.1 2-3.3 3.3-5.5 3.7s-4.6 0-6.8-.6" fill="#575d96"/><path class="prefix__st1" d="M57.4 107.7c-2.8-2.5-5.2-5.1-5.9-9-.6-3.7.3-7.4 2.3-10.5 4.2-6.3 12.4-9.6 19.5-7.9 3.5.8 6.8 2.9 8.8 6.2 2.1 3.5 2.1 7.5.8 11.3-1 3.2-1.9 6.1-.5 9.3 1.4 3.2 4 5.6 6.3 8 2.8 2.9 6.1 7.6 3.8 11.9-2.4 4.4-8.1 4.1-12.1 3-.3-.1-.4.4-.1.5 3.5 1 7.7 1.4 10.8-1.1 2.7-2.1 3.1-5.7 1.9-8.9-1.5-4-5-6.5-7.6-9.5-1.4-1.6-2.7-3.6-3.2-5.8-.5-2.4.2-4.7 1-6.9 1.2-3.6 1.5-7.3-.1-10.8-1.5-3.4-4.5-5.9-7.8-7.1-7.1-2.7-15.8.1-20.7 6.1-2.5 3-3.9 6.9-3.6 11 .2 2 .7 3.9 1.6 5.6 1.1 2 2.8 3.6 4.5 5.1.2 0 .5-.3.3-.5z"/><path class="prefix__st1" d="M58.5 95c1.4-3 3.8-5.3 6.7-6.7.3-.1 0-.5-.2-.4-3 1.4-5.4 3.8-6.9 6.8-.2.4.2.6.4.3zM66.6 87.8l.9-.3c.3-.1.2-.5-.1-.5l-.9.3c-.3.1-.2.6.1.5zM81.3 112.5c-2.4-2.2-2.9-5.7-1.1-8.5.2-.3-.2-.5-.4-.2-1.9 3-1.4 6.7 1.2 9.1.2.1.6-.2.3-.4zM81.3 102.1c.1-.4.3-.7.4-1.1.1-.3-.4-.4-.5-.1-.1.4-.3.7-.4 1.1-.1.2.3.4.5.1zM57.4 105.9c-.3-1.6-.4-3.1-.4-4.7 0-.3-.5-.3-.5 0 0 1.6.1 3.2.4 4.8.1.3.5.2.5-.1zM81.4 97.8c.7-2.2-.7-4.9-1.7-6.8-.1-.3-.6 0-.4.2.9 1.7 2.3 4.4 1.6 6.4 0 .4.4.5.5.2zM92.1 128.5c.8-.9.3-2.7.1-3.8-.3-1.7-1-3.3-1.9-4.8-.2-.3-.6 0-.4.2.7 1.2 1.3 2.4 1.6 3.8.3 1 .9 3.4.2 4.3-.2.2.2.6.4.3zM89.6 118.5c0-.2-.1-.3-.1-.5-.1-.3-.5-.2-.5.1 0 .2.1.3.1.5.1.4.6.2.5-.1z"/><g><path class="prefix__st1" d="M52.8 95.5c-.6 1.5-.9 3.1-1.1 4.8 0 .3.5.3.5 0 .1-1.6.5-3.1 1.1-4.6.1-.3-.3-.5-.5-.2z"/></g><g><path class="prefix__st0" d="M44.3 159.2l2.7 2.4 2.5-5.4-.6-.4c.1 0-3.9 1.2-4.6 3.4z"/><path class="prefix__st1" d="M47 161.8c-.1 0-.1 0-.2-.1l-2.7-2.4c-.1-.1-.1-.2-.1-.3.8-2.2 4.7-3.5 4.8-3.6h.2l.6.4c.1.1.1.2.1.3l-2.5 5.4c0 .2-.1.3-.2.3zm-2.4-2.7l2.4 2.1 2.3-5-.3-.2c-.7.2-3.7 1.4-4.4 3.1z"/><g><path d="M51.8 113.8s-7.4 1.7-9.1 4.7-8.7 17.4-6.1 33.1c0 0 3.3 6.9 7.3 7.9 0 0 3.1-3.5 5-3.8 2-.3-1.2-5.2-1.2-5.2s0-4.7.3-6.6c.3-1.8 1.1-2.4 1.4.2s1.1 10.8 1.1 10.8l6.4.5 30.3-.8v-7.5l9.3-9.5s-6.3-6.7-6.7-9.2c-.5-2.4-2.6-13.2-6-14.8s-10.3-1.3-10.3-1.3-9.1 12-21.7 1.5z" fill="#f98fde"/><path class="prefix__st1" d="M43.9 159.8c-4.1-1.1-7.4-7.8-7.5-8.1v-.1c-2.7-16.6 5.2-31.6 6.1-33.3 1.7-3.1 9-4.8 9.3-4.8.1 0 .1 0 .2.1 3.9 3.3 7.8 4.7 11.7 4.3 5.9-.6 9.6-5.4 9.6-5.5 0-.1.1-.1.2-.1.3 0 7.1-.3 10.4 1.3 3.2 1.5 5.3 11 6.1 15 .4 2.3 6.6 9 6.7 9 .1.1.1.2 0 .3l-9.2 9.4v7.4c0 .1-.1.2-.2.2l-30.3.8-6.4-.5c-.1 0-.2-.1-.2-.2s-.8-8.3-1.1-10.8c-.2-1.4-.4-1.5-.4-1.5-.1 0-.3.4-.5 1.4-.3 1.7-.3 5.9-.3 6.5.4.6 2.3 3.7 1.8 5-.1.3-.4.5-.7.5-1.9.3-4.9 3.7-4.9 3.7h-.4zm-7.1-8.2c.2.5 3.4 6.6 7 7.7.6-.6 3.2-3.5 5.1-3.8.3 0 .3-.2.4-.3.4-.9-1.1-3.6-1.8-4.6v-.1c0-.2 0-4.8.3-6.6.1-.7.4-1.8 1-1.8.4 0 .7.6.9 2 .3 2.3.9 9.4 1.1 10.6l6.2.4 30-.8V147c0-.1 0-.1.1-.2l9.2-9.3c-1-1.1-6.2-6.8-6.6-9.1-.6-3.1-2.7-13.2-5.8-14.6-3-1.4-9.2-1.3-10.1-1.2-.6.7-4.3 4.9-9.9 5.6-4 .4-8-1-12-4.3-.9.2-7.3 1.8-8.8 4.6-1.1 1.8-9 16.7-6.3 33.1z"/><path class="prefix__st1" d="M48.4 143.3c.8-2 2-4 2.4-6.1.4-1.9.2-3.9.3-5.7 0-.3-.5-.3-.5 0 0 2 .2 4.1-.3 6-.5 1.9-1.5 3.8-2.3 5.7-.1.3.3.4.4.1zM47.7 150.1c-1.5.3-2.8 1-3.9 2.1-.2.2.1.6.3.3 1-1 2.2-1.7 3.7-2 .3 0 .2-.4-.1-.4zM42.5 153.4c-.3.2-.6.5-.8.8-.1.3.3.5.4.2.2-.3.4-.5.6-.6.3-.1 0-.5-.2-.4z"/><path class="prefix__st1" d="M47.5 149.9c-1.3-.1-2.6.1-3.8.7-.3.1 0 .6.2.4 1.1-.6 2.3-.8 3.5-.7.4.1.4-.4.1-.4zM87.2 148.2c.6-1.7-.2-3.5-.1-5.2.2-1.9.8-3.7.7-5.6-.1-3.5-3-6.3-5.1-8.9-.2-.2-.5.1-.3.3 2.2 2.8 5.1 5.6 4.9 9.4-.1 1.6-.6 3.2-.7 4.8-.2 1.6.6 3.6.1 5.1 0 .3.4.4.5.1zM67.6 140.7c4.1-1.1 8.3-1.5 12.6-1.4.3 0 .3-.5 0-.5-4.3-.2-8.6.3-12.7 1.4-.4.2-.2.6.1.5z"/><g><path class="prefix__st1" d="M73.5 140.8c.7-.2 1.4-.3 2.1-.3.3 0 .3-.5 0-.5-.7 0-1.5.1-2.2.3-.3.1-.2.5.1.5z"/></g></g></g><g><path class="prefix__st0" d="M61.8 120.5c-7.1 0-9.8-5.1-10.3-6.3 2.2-.7 6-4.8 7-6.2.7-1.1.7-4.4.6-6l2.5 3.6.1.1c.1 0 6.7 3.2 8.5 5.5.1.1.2.2.2.3 1.1 1.2 2.7 1.4 3.8 1.4.8 0 1.4-.1 1.6-.2.5.4-.1 2.5-.7 3.8v.2s-.1 1.8-10.1 3.6c-1.1.1-2.2.2-3.2.2z"/><path class="prefix__st1" d="M59.4 102.8l2 2.9c0 .1.1.1.2.2.1 0 6.6 3.2 8.4 5.4l.3.3c1.2 1.2 2.8 1.5 4 1.5.7 0 1.2-.1 1.5-.1.2.4-.1 1.9-.8 3.4v.2c-.1.1-.9 1.7-9.9 3.4-1.1.2-2.1.3-3.1.3-6.6 0-9.3-4.5-10-5.9 2.4-.9 6-4.9 6.9-6.2.4-1.1.5-3.7.5-5.4m-.6-1.6s.4 5.3-.5 6.6c-.9 1.4-5 5.8-7.1 6.2 0 0 2.4 6.7 10.7 6.7 1 0 2-.1 3.2-.3 10.8-2 10.3-3.9 10.3-3.9s1.6-3.6.5-4.1c0 0-.7.2-1.6.2-1.1 0-2.6-.3-3.6-1.4-.1-.1-.2-.2-.2-.3-1.8-2.4-8.6-5.5-8.6-5.5l-3.1-4.2z"/><g><path class="prefix__st0" d="M60.6 98.9s-3.1-4.1-3.7-1.8c-.6 2.2 1.8 4.8 1.8 4.8s2.4 1.7 1.8 2.9 3.3 5.1 6.5 5.8c3.3.7 3.1 1.8 6.2-1.5 3.2-3.4 3.5-5.1 3.5-5.1s2.4-5.3.5-9.1-5.1-6.7-7.4-5.9c-2.3.6-9.2 9.9-9.2 9.9z"/><path class="prefix__st1" d="M70.1 111.5c-.4 0-.9-.1-1.4-.3-.4-.1-1-.3-1.7-.5-2.8-.6-5.8-3.4-6.6-5-.2-.5-.2-.8-.1-1.1.4-.8-1.2-2.1-1.8-2.5-.1-.1-2.6-2.7-1.9-5 .2-.6.5-.8.7-.8 1-.2 2.6 1.6 3.1 2.3 1.1-1.5 7-9.1 9.2-9.9 2.6-.9 5.8 2.4 7.7 6 1.9 3.7-.3 8.8-.5 9.3-.1.3-.5 2.1-3.5 5.2-1.5 1.7-2.3 2.3-3.2 2.3zM57.6 96.6c-.1 0-.3.1-.5.5-.6 2.1 1.8 4.5 1.8 4.6.2.2 2.6 1.9 1.9 3.1-.1.1 0 .4.1.7.7 1.5 3.7 4.2 6.3 4.8.7.2 1.3.3 1.7.5 1.6.5 1.9.6 4.3-1.9 3-3.2 3.4-5 3.4-5v-.1c0-.1 2.4-5.3.5-8.9-1.7-3.4-4.8-6.6-7.1-5.8-2.2.8-9.1 9.9-9.2 10l-.2.3-.2-.4c-.7-.9-2.1-2.4-2.8-2.4z"/><path class="prefix__st1" d="M71.6 105.5c.5 0 1.1.3 1.5-.1.2-.2.2-.4.1-.7 0-.3-.1-.7-.2-1 0-.3-.5-.2-.5.1 0 .3.3 1.2.1 1.3-.1.1-.4 0-.5 0-.2 0-.4-.1-.5-.1-.3.1-.4.5 0 .5zM67.2 106.9c.5 1.4 3.4 2.1 4.3.7.2-.3-.2-.5-.4-.2-.7 1-3 .4-3.4-.6-.1-.3-.6-.1-.5.1z"/><circle class="prefix__st17" cx="68.8" cy="100" r="3.5"/><path class="prefix__st1" d="M68.8 103.7c-2 0-3.7-1.7-3.7-3.7s1.7-3.7 3.7-3.7 3.7 1.7 3.7 3.7-1.7 3.7-3.7 3.7zm0-6.9c-1.8 0-3.2 1.4-3.2 3.2s1.4 3.2 3.2 3.2 3.2-1.4 3.2-3.2-1.4-3.2-3.2-3.2z"/><path class="prefix__st17" d="M78.4 100c0 1.9-1.1 3.5-2.5 3.5s-2.5-1.5-2.5-3.5c0-1.9 1.1-3.5 2.5-3.5s2.5 1.6 2.5 3.5z"/><path class="prefix__st1" d="M75.9 103.7c-1.5 0-2.7-1.7-2.7-3.7s1.2-3.7 2.7-3.7c1.5 0 2.7 1.7 2.7 3.7s-1.2 3.7-2.7 3.7zm0-6.9c-1.2 0-2.2 1.4-2.2 3.2s1 3.2 2.2 3.2c1.2 0 2.2-1.4 2.2-3.2s-1-3.2-2.2-3.2z"/><path class="prefix__st1" d="M73.8 99.6c-.2-.8-1.2-.9-1.7-.3-.2.3.2.5.4.2s.7-.2.8.2c.1.3.6.2.5-.1z"/><g><path class="prefix__st1" d="M68.6 100.1c.1.1.1.2.1.3 0 .3.4.4.5.1 0-.3 0-.5-.1-.7-.2-.2-.7 0-.5.3z"/></g><g><path class="prefix__st1" d="M75.6 99.7v.5c0 .3.5.3.5 0v-.5c0-.3-.5-.3-.5 0z"/></g><g><path class="prefix__st5" d="M67.8 102.4c0 1-.8 1.9-1.9 1.9s-1.9-.8-1.9-1.9.8-1.9 1.9-1.9 1.9.8 1.9 1.9z"/></g></g></g><g><path class="prefix__st1" d="M59.8 159.9c-.1-.3-.1-.5-.2-.8-.1-.3-.5-.2-.5.1.1.3.1.5.2.8.1.3.5.2.5-.1z"/></g><g><path d="M125.7 150.8l-42 4H78s16.8 10.2 17.7 10c.9-.1 30-14 30-14z" fill="#5b9eb2"/><path class="prefix__st1" d="M95.7 165.1c-1.1 0-13.9-7.7-17.8-10.1-.1-.1-.1-.2-.1-.3 0-.1.1-.2.2-.2h5.6l42-4c.1 0 .2.1.3.2 0 .1 0 .2-.1.3-3 1.5-29.1 13.9-30.1 14.1.1 0 0 0 0 0zM78.9 155c6.6 4 16 9.5 16.8 9.6.8-.2 19.9-9.2 28.6-13.4L83.7 155h-4.8z"/><path class="prefix__st19" d="M54.2 179.9c-1.7-.9-16.1-7.6-10.4-13.7s9.9-24.4 16-23 35.4 21.6 35.9 21.6-3.5 4.9-5.6 5.8-5.4 2.6-5.7 2.1c-.3-.5-20.7-7-20.7-7s-5.2 2.6-4.8 6.7 2.4 7.5 2.4 7.5h-7.1z"/><path class="prefix__st1" d="M61.4 180.2h-7.2-.1c-.1-.1-.3-.2-.5-.3-2.6-1.3-10.5-5.4-11.2-9.9-.2-1.4.2-2.7 1.4-3.9 2.3-2.4 4.3-6.7 6.3-10.9 3.1-6.7 6.1-13 10-12.1 4.6 1.1 21.7 12.3 30.9 18.3 2.6 1.7 4.7 3.1 5 3.2.1 0 .2.1.2.2.1.6-3.8 5.2-5.8 6-.6.2-1.2.5-1.8.8-2.7 1.2-3.8 1.7-4.1 1.3-.7-.5-12.6-4.4-20.5-6.9-.7.4-5 2.8-4.5 6.4.4 4 2.4 7.4 2.4 7.4v.2c-.4.1-.4.2-.5.2zm-7.2-.5H61c-.5-1-1.9-3.9-2.3-7.2-.5-4.2 4.7-6.9 4.9-7h.2c7.5 2.4 20 6.5 20.8 7.1.3.1 2.3-.8 3.6-1.4.6-.3 1.3-.6 1.9-.8 1.8-.8 5-4.6 5.5-5.4-.4-.2-1.5-.9-5-3.2-8.5-5.6-26.2-17.2-30.7-18.3-3.5-.8-6.5 5.6-9.4 11.8-2 4.2-4 8.6-6.4 11.1-1 1.1-1.4 2.3-1.2 3.5.5 2.9 4.2 6.1 11 9.6.1.1.2.1.3.2zm30.4-7.1z"/><path class="prefix__st1" d="M64.3 165.4c-1.8-.9-3.2-2.3-4.2-4-.1-.3-.6 0-.4.2 1 1.8 2.5 3.3 4.4 4.2.2.1.5-.3.2-.4z"/><path class="prefix__st19" d="M83.7 173.7c.8-.9 24-16.7 29.8-19.3 5.8-2.7 11.9-3.9 15-3.5 3.1.4 3.7 8 1.8 10.7-1.8 2.7-28.1 20.3-43.8 18.4l-2-.8-.8-5.5z"/><path class="prefix__st1" d="M88.9 180.3c-.9 0-1.7 0-2.5-.1h-.1l-2-.8c-.1 0-.1-.1-.1-.2l-.8-5.5c0-.1 0-.1.1-.2.8-.9 24.2-16.8 29.9-19.4 5.4-2.5 11.8-4 15.1-3.5.9.1 1.7.8 2.3 2.1 1.2 2.7 1.1 7-.3 9-1.6 2.3-25.4 18.6-41.6 18.6zm-2.4-.6c8.4 1 19.3-3.5 27-7.5 8.8-4.5 15.8-9.6 16.6-10.8 1.2-1.8 1.3-6 .2-8.5-.3-.7-.9-1.7-1.9-1.8-2.8-.4-8.7.7-14.8 3.5-5.6 2.5-28 17.7-29.6 19.2l.7 5.2 1.8.7z"/><g><path class="prefix__st0" d="M85.3 172.5s0-1.1-1.1-.7c-1 .5-19.7-6.8-20-6.9-.3-.2-5.9.5-6.3 5.3-.4 4.8 1.5 10.2 3.7 10.5s22.1 0 22.1 0 2.9.9 2.8.1l-.1-.8s-2.6-5.5-1.1-7.5z"/><path class="prefix__st1" d="M85.9 181.3c-.8 0-1.8-.3-2.2-.4-1.2 0-19.8.2-22.1 0-2.6-.3-4.3-6.1-4-10.7.2-2.5 1.8-3.9 3.1-4.6 1.6-.9 3.3-1.1 3.6-.9 1 .5 18.7 7.2 19.8 6.9.4-.2.7-.2.9 0 .4.3.5.8.5.9v.1c-1.4 1.9 1.1 7.2 1.2 7.3v.1l.1.8c0 .2 0 .3-.2.4-.2 0-.4.1-.7.1zm-2.2-.9c1.2.4 2.4.5 2.6.4l-.1-.7c-.2-.5-2.5-5.5-1.2-7.6 0-.1-.1-.4-.2-.4-.1-.1-.3-.1-.5 0-1.2.5-20.1-6.9-20.2-7-.2 0-2.3.2-3.9 1.4-1.2.9-1.9 2.2-2.1 3.7-.4 4.8 1.4 10 3.5 10.2 2.3.2 21.9 0 22.1 0z"/><path class="prefix__st1" d="M66.5 176.4c.8-2.2 2.3-3.5 4.2-4.9.2-.2 0-.6-.2-.4-1.9 1.5-3.5 2.9-4.4 5.2-.1.2.3.3.4.1z"/><path class="prefix__st1" d="M67.1 171c.2 1.3.7 2.4 1.3 3.5.5.9.9 1.6 1.9 1.8.3.1.4-.4.1-.5-1.1-.2-1.5-1.4-1.9-2.2-.4-.9-.8-1.8-.9-2.8-.1-.2-.5-.1-.5.2zM73.1 176.2c1.4-1.1 2.4-2.5 3-4.1.1-.3-.4-.4-.5-.1-.5 1.6-1.5 2.9-2.8 3.9-.1.1.1.5.3.3z"/><path class="prefix__st1" d="M73.6 172.2c0 1.6.7 3.9 2.3 4.6.3.1.5-.3.2-.4-1.4-.6-2.1-2.8-2-4.2 0-.3-.5-.3-.5 0zM79.7 176.6c1.1-.6 1.9-1.8 2.1-3.1 0-.3-.4-.4-.5-.1-.2 1.2-.8 2.2-1.9 2.8-.2.2.1.6.3.4z"/><g><path class="prefix__st1" d="M79.9 173.5c-.3 1.4.4 2.9 1.8 3.5.3.1.5-.3.2-.4-1.1-.5-1.8-1.7-1.6-3 .1-.3-.4-.4-.4-.1z"/></g></g><g><path class="prefix__st0" d="M105.1 176.3s8.4 5.6 13.4 3.7c5-1.9 7.4-3.4 9-7.9 1.5-4.5-1.8-6.8-1.8-6.8l-20.6 11z"/><path class="prefix__st1" d="M116.1 180.6c-4.9 0-10.8-3.9-11.1-4.1-.1 0-.1-.1-.1-.2s.1-.2.1-.2l20.6-11.1h.2s3.4 2.4 1.9 7.1c-1.5 4.5-3.9 6.1-9.1 8.1-.8.3-1.6.4-2.5.4zm-10.5-4.3c1.6 1 8.6 5.1 12.8 3.4 5-1.9 7.3-3.5 8.8-7.8 1.3-3.8-1-6-1.6-6.4l-20 10.8z"/></g></g><g><path d="M70.6 133.6c.4-.3 48.5-2.8 48.5-2.8l-2.6 22.3-34.7 2.7-9.4-5.9-1.8-16.3z" fill="#999"/><path class="prefix__st1" d="M81.8 156h-.1l-9.4-5.9c-.1 0-.1-.1-.1-.2l-1.8-16.2c0-.1 0-.2.1-.2.3-.3 26.6-1.7 48.7-2.9.1 0 .1 0 .2.1s.1.1.1.2l-2.6 22.3c0 .1-.1.2-.2.2L81.8 156zm-9.2-6.3l9.3 5.8 34.4-2.6 2.6-21.8c-15.9.8-45.3 2.4-48 2.7l1.7 15.9z"/><g><path class="prefix__st14" d="M97.6 143.3c0 1.5-1.2 2.8-2.8 2.8-1.5 0-2.8-1.2-2.8-2.8 0-1.5 1.2-2.8 2.8-2.8 1.6 0 2.8 1.3 2.8 2.8z"/></g></g></g></g><g><path class="prefix__st7" d="M86.1 348.3c.5.1 1.1.3 1.6.4h3.4l-5-.4zM122.4 353.7c-.6-.6-1.4-.8-2.2-1.1-3.1-1-6.3-1.8-9.5-1.1l3.8.6c-4.3-.1-8.6.3-12.7 1.2-.9-.8-2.3-1.3-3.4-1.6-3.6-.9-7.2-1.9-10.7-2.8l-50.7.6c-10.8.1-23.4 1.3-29.3 11.6 7.2 1.2 14.5 2.3 21.7 3.5l5.7.9c2.3.4 4.7.7 7 1.1 14.4 2.3 29.1 4.6 43.4 1.6 6-1.3 12.3-3.7 16.2-9.1 2.5.2 5 .1 7.5.1 4.2 0 8.6-.1 12.3-2 .6-.3 1.2-.7 1.5-1.3.4-.7.1-1.7-.6-2.2z"/><path class="prefix__st21" d="M16.6 276.6s-7.4 20.1 14.1 16.1S76.3 281 76.3 281l-4.2 72.5s5.9 1.7 6.6 0 19.6-81.8 13.9-86.5-36.1-3.5-36.9-1.5"/><path class="prefix__st22" d="M80 353.4s.5-1.7-1.8-2c-2.2-.4-7.6-1.1-7.7-.6-.1.5.7 3.9.7 3.9s-6.3 3.9-4.5 5.4c1.8 1.5 18.8 6.6 20.2 6.5s-5.6-8.3-6.6-9.1c-1-.7-.3-4.1-.3-4.1z"/><path class="prefix__st1" d="M86.9 367c-2 0-18.7-5.1-20.3-6.6-.3-.3-.4-.6-.4-1 .1-1.7 3.8-4.2 4.8-4.8-.2-1-.8-3.4-.7-3.8.1-.2.2-.8 8 .4.9.1 1.5.5 1.8 1 .4.6.2 1.3.2 1.4-.3 1.2-.4 3.3.3 3.9.7.5 7.3 7.9 6.9 9.3-.1 0-.3.1-.6.2.1 0 0 0 0 0zm-16.1-16c0 .5.4 2.2.7 3.7v.2l-.2.1c-1.3.8-4.6 3.1-4.7 4.5 0 .2.1.4.2.5 1.8 1.5 18.4 6.4 19.9 6.4-.1-1.1-5.6-7.7-6.7-8.6-1.2-.9-.5-4.1-.5-4.4 0 0 .1-.5-.2-.9-.2-.4-.7-.6-1.4-.7-2.8-.6-6.4-1-7.1-.8z"/><path class="prefix__st1" d="M72 354.8c.2.2.6.4.9.4.4 0 .4-.6 0-.6-.2 0-.4 0-.5-.2-.2-.2-.6.2-.4.4z"/><g><path class="prefix__st1" d="M74.2 355.3c.4 0 .8.1 1.2.1.4 0 .4-.5 0-.6-.4 0-.8-.1-1.2-.1-.4 0-.4.6 0 .6z"/></g><g><path class="prefix__st21" d="M53.6 262s24.6-13.2 28.1-6.9c3.5 6.4 26.5 70.4 26.5 70.4l-6.4 1.7-33.6-60.7-13.4.9"/><path class="prefix__st22" d="M109.2 324c0-.6-9.5.9-9.2 2.1.2 1.2 1.4 2.8 1.4 2.8s-2.6 5.4-.6 6.5c2 1.1 22.3-4 22.8-5 .5-.9-1.3-2.7-3.2-2.8s-11.2-.4-11.2-3.6z"/><path class="prefix__st1" d="M101.8 335.9c-.5 0-.9-.1-1.1-.2-2.1-1.1-.1-5.7.4-6.7-.3-.4-1.2-1.8-1.4-2.8 0-.2.1-.5.3-.7 1.4-1 8.3-2.3 9.2-1.8.2.1.2.3.2.3 0 1.3 1.8 2.9 10.6 3.4h.4c1.5.1 2.8 1.1 3.3 1.9.3.5.3.9.1 1.3-.1.1-.2.4-2.4 1.1-4.5 1.5-15.7 4.2-19.6 4.2zm6.8-11.7c-1.4 0-5.9.7-7.8 1.6-.5.2-.6.4-.6.4.2 1.1 1.4 2.7 1.4 2.7l.1.1-.1.1c-.7 1.4-2.2 5.4-.7 6.1 1.9 1 21.6-4 22.4-4.9.1-.2 0-.6-.1-.7-.4-.8-1.6-1.6-2.8-1.7h-.4c-2.7-.2-10.9-.6-11.1-3.8-.1.1-.2.1-.3.1z"/><path class="prefix__st1" d="M102.4 328.7c.6-.1 1.1-.2 1.7-.3.3-.1.2-.6-.1-.5-.6.1-1.1.2-1.7.3-.4 0-.3.5.1.5z"/><g><path class="prefix__st1" d="M105.3 328.1c.4 0 .4-.6.1-.6h-.1c-.4 0-.4.6 0 .6z"/></g></g><g><path d="M94.2 246.7c1-.4 14.1-24.9 14.1-24.9l-26.2-7.3-17.2 31-1.1 4.3 23.1 6.7 7.3-9.8z" fill="#a8a8a8" stroke="#3a3a3a" stroke-miterlimit="10"/><path fill="#d1eced" d="M83.7 218.3l-15.4 29.2 18.6 6.1 17.1-30z"/><path class="prefix__st25" d="M52.3 204.9s13.8-1.2 23.4-9S96.8 172 96.8 172l3.5 2.5s-29.8 44-42.9 45.4"/><path class="prefix__st1" d="M58.7 165c-6.5 0-14.4.1-17.9 12.6-1.2 1.4-2.2 2.9-3.1 4.5-1.2 2.2-1.9 5.1-3 7.7-1.9 2.5-4.1 5.1-6.4 7.6h-.1c-.1 0-.2.2-.2.3-2.5 2.6-5 5.2-7.5 7.6-.8.5-1.6 1-2.5 1.4-6.1 3.4-13 7-15.7 13.9-1 2.4-1.3 5-.8 7.5-1.7 5.4-2.6 11.3.6 13 6 3.2 15.1 4.4 23.2-1.7s26.4-26.8 26.9-27.4l16-37c.1.1-2.8-10-9.5-10zM6.2 218c-.7.7-2.7 4.6-4.3 9.1-.3-3.2.7-6.5 2.5-9.2 2.6-4 6.8-6.6 10.9-9l3.6-2.1c-6.5 6-12 10.5-12.7 11.2zm29.4-29.4c.4-1.3.9-2.5 1.3-3.7.9-2.2 2.1-4.2 3.5-6.1 0 .1-.1.2-.1.3-.5 2.9-2.3 6.1-4.7 9.5z"/><path class="prefix__st0" d="M61.3 196.1s-3.8 11-3.2 12.4c.6 1.4-7.9-1.2-7.9-1.2l3.2-14.8s-4.5-3.8-2-4.7 3.6 0 3.6 0 6.5-14.2 5.5-19.2c0 0 3.4-.3 7.9 6.6 4.5 6.8 6.1 15.3 3.2 16.9s-8.7 5.3-14.2 3.9"/><path class="prefix__st1" d="M57.3 209.1c-1.8 0-5.5-1-7.2-1.6l-.2-.1 3.2-14.9c-.6-.5-2.9-2.6-2.7-4.1.1-.3.3-.8.9-1 1.9-.7 3-.4 3.5-.2.9-2.1 6.3-14.2 5.4-18.8l-.1-.3h.3c.1 0 3.6-.2 8.2 6.7 3.4 5.2 5.3 11.7 4.5 15.2-.3 1-.7 1.7-1.4 2.1-.3.1-.5.3-.8.5-2.3 1.3-5.7 3.2-9.3 3.6-1.5 4.2-3.6 11.1-3.2 12.1.1.2.1.4-.1.5-.2.3-.5.3-1 .3zm-6.8-2c3.2.9 6.7 1.7 7.3 1.5-.5-1.5 2.3-10 3.1-12.2-1.2.1-2.5 0-3.7-.3l.1-.5c4.9 1.2 10.1-1.7 13.2-3.4.3-.2.6-.3.8-.5.5-.3.9-.9 1.1-1.7.8-3.3-1.1-9.6-4.4-14.7-3.6-5.4-6.4-6.3-7.3-6.4.7 5.3-5.3 18.5-5.6 19l-.2.4-.3-.3s-.9-.8-3.3.1c-.4.1-.6.3-.6.6-.2 1.1 1.9 3 2.7 3.7l.1.1-3 14.6z"/><path class="prefix__st1" d="M67.6 179.4c1 .6 1.6 1.7 1.5 2.8 0 .4.5.4.6 0 .1-1.4-.6-2.6-1.8-3.3-.3-.2-.6.3-.3.5zM63.2 181.9c0 .5.2 1 .7 1.3.2.2.6.2.8 0 .2-.2.2-.6 0-.8-.2-.1-.3-.3-.3-.5 0-.3-.2-.6-.6-.6-.3 0-.6.3-.6.6zM66.6 176.2c0 .5.4 1 .9 1.1.7.2 1-.9.3-1.1 0 0-.1 0-.1-.1-.1-.6-1.2-.6-1.1.1z"/><path class="prefix__st5" d="M65.9 186.3c.4.9-.3 2-1.4 2.5-1.2.5-2.4.2-2.8-.7s.3-2 1.4-2.5c1.2-.5 2.4-.2 2.8.7z"/><path class="prefix__st1" d="M62.1 179.2c-.7.7-1 1.7-.7 2.6.1.3.6.2.5-.1-.2-.8 0-1.5.6-2.1.3-.2-.1-.6-.4-.4zM65.3 175c.3-.4.7-.7 1.2-.8.3-.1.2-.6-.1-.5-.6.1-1.2.5-1.5 1-.2.4.2.6.4.3z"/><g><path class="prefix__st1" d="M69.8 184.4c-.4.9.1 1.9 1.1 2.1.3.1.5-.5.1-.5-.6-.1-1-.8-.7-1.3.1-.4-.4-.7-.5-.3z"/></g><path class="prefix__st25" d="M56.5 261c-.5 6.2-3.2 9-5.1 10.6-1.9 1.6-28.5 9.9-36.7 3.9-8.2-6 26.2-65.6 29.2-70s10.5-2.7 10.8-2.1c0 0 1.2 7 5 5.4"/><path class="prefix__st26" d="M97.5 172.4s-1.3-5.4 2.3-9.8 6.1-5.9 6-5.2-2.6 5.3-2.6 5.3 1.4 1.9 2.1 3.7c.7 1.8-5 7.4-5 7.4"/><g><path class="prefix__st25" d="M47.2 217.1s-9.4 41.3 0 41.8 39.7-6.6 39.7-6.6l-1.6-4.8s-28.2 1.4-28.2-3.8c0-5.1 4.6-21.9 2.7-26.7-1.9-4.8-7.4-3.5-7.4-3.5"/><path class="prefix__st26" d="M85.5 248.2s2.8-2.7 4.2-2.9c1.4-.1 1.8.1 1.5.8-.2.7 1.5.9 3 .6s4.5-2.9 4.5-2.9 1.9.1.7 2.2-2.4 5.8-3.4 5.9c-1.1.1-9.1.4-9.1.4"/></g></g><g><path class="prefix__st1" d="M17.5 298.5s-9.5 60.7-8 62.2c1.4 1.4 1-1.9 1.9-2.6.9-.7 10.1-59.6 10.1-59.6M52.5 297.2s9.5 60.7 8 62.2c-1.4 1.4-1-1.9-1.9-2.6-.9-.7-10.1-59.6-10.1-59.6"/><path class="prefix__st27" d="M71.9 282.6c-11.2-5.1-24.8-1.8-36.1-6.9-4.9-2.2-8.9-5.8-13.7-8.1s-10.9-3.3-15.1-.1c-4.1 3.1-5 8.9-5 14 0 4.2.5 8.6 2.5 12.4 2.7 5.1 8 8.5 13.6 10s11.5 1.4 17.3.9c12.4-1 25.6-4.2 33.7-13.6 1.3-1.5 2.5-3.2 2.8-5.2-.1.1.3-3.2 0-3.4z"/><path class="prefix__st1" d="M72 282.4c-12.2-5.4-26.6-1.5-38.4-8-5.6-3.1-10.6-7.7-17.1-8.9-5.4-1-10.7 1-13.1 6.2-2.3 5-2.1 11.4-1.1 16.6 1.1 5.9 4.6 10.7 9.9 13.6 5.7 3.2 12.4 3.8 18.8 3.6 6.1-.2 12.3-1 18.2-2.5 6.2-1.6 12.2-4.2 17.1-8.5 2.3-2 5-4.7 5.7-7.8.2-.8.2-1.6.3-2.3 0-.6.2-1.6-.3-2-.2-.2-.6.2-.3.4.3.3 0 1.8 0 2.1-.1.8-.2 1.6-.5 2.4-1 2.8-3.5 5.2-5.8 7.1-4.3 3.6-9.4 5.9-14.7 7.5-5.3 1.6-10.9 2.3-16.4 2.8-6.3.5-12.9.5-18.9-1.9-5.5-2.2-10.1-6.2-11.9-11.9-1-3-1.2-6.3-1.2-9.5 0-2.7.2-5.3 1-7.9.9-2.7 2.5-5.1 5-6.5 2.7-1.5 5.9-1.5 8.9-.8 6 1.3 10.6 5.6 15.9 8.5 11.9 6.7 26.4 2.7 38.7 8.2.3.1.5-.4.2-.5z"/><path class="prefix__st1" d="M29.3 301.3s-3.8 61.4-2.3 62.6c1.5 1.3.9-2 1.7-2.8.8-.8 4.6-60.2 4.6-60.2"/><path class="prefix__st1" d="M17.3 317.5l-.3-.5c.5-.4 13.5-9.1 13.6-9.2l.1-.1h.1l22.8 6.9-.2.5-22.7-6.9c-1.1 1-12.9 8.9-13.4 9.3z"/><g><path class="prefix__st1" d="M30 319.9L17 307l.4-.4 12.7 12.6 21.5-12.7.3.5z"/></g></g></g><g><path class="prefix__st7" d="M395.6 347.3s-1.4-4.3-17.5-4.2c-16.1.1-55.4 4.2-55.4 4.2H317l-5 4.4-78.1 2.9s-5.7 5 0 5.7 78.1-2 78.1-2 87.6 2.7 83.6-11z"/><path d="M380.1 246.3c.7 1.9 11.8 11.2 8.9 18.3s-83 10-83 10l36.9 60.7-4.6 4.3s-68.9-65.7-67.1-73.1 72.1-16.4 74.2-16.8" fill="#76c4d6"/><path class="prefix__st1" d="M338.3 339.9l-.2-.2c-2.8-2.7-69-65.9-67.2-73.4 1.4-5.8 40.2-12.3 72.5-16.7 1.1-.2 1.8-.2 2-.3l.1.5c-.2 0-.9.1-2 .3-44.7 6.1-71 12-72 16.3-1.4 5.8 43 50 66.8 72.7l4.2-3.9-37-60.9h.5c27.7-1 80.5-4.3 82.7-9.8 2.1-5.2-3.5-11.6-6.8-15.4-1.1-1.3-1.9-2.2-2.1-2.7l.5-.2c.2.4 1 1.4 2 2.5 3.4 3.9 9.1 10.5 6.9 16-2.8 7-75.5 9.9-82.8 10.1l36.7 60.4-4.8 4.7z"/><path d="M343.1 331.5l-7.7 7.1 2.3 2.9s-3.4 10-4.1 9.8c-.7-.2-5.4 1.6-5.4 1.6s3.9 2.9 8.4 1.1c4.5-1.8 10.2-8.9 10.2-8.9s5.9-5.4 4.6-6.4c-1.2-1.1-6.2-3.9-6.2-3.9l-2.1-3.3z" fill="#a88d5d"/><path class="prefix__st1" d="M333.6 354.9c-3.1 0-5.4-1.6-5.5-1.7l-.4-.3.5-.2c1.1-.4 4.5-1.7 5.4-1.6.5-.5 2.3-5.1 3.8-9.5l-2.4-2.9 8.1-7.5 2.3 3.4c.6.3 5 2.9 6.2 3.9.2.1.3.4.3.6 0 1.7-4.4 5.8-4.9 6.2-.2.3-5.8 7.2-10.3 9-1 .4-2.1.6-3.1.6zm-4.7-1.9c1.1.7 4.3 2.1 7.7.8 4.3-1.7 10-8.8 10.1-8.8 1.9-1.8 4.8-4.7 4.8-5.8 0-.1 0-.2-.1-.2-1.2-1-6.2-3.9-6.2-3.9h-.1l-2-3-7.2 6.7 2.3 2.8v.1c-3.5 10.2-4.2 10.1-4.4 10-.5-.2-2.8.5-4.9 1.3z"/><g><path d="M352.4 178.6l-3.1 42.2L306 217v3.7s45.1 15 51.2 9.8c6.1-5.2 5-41.6 5-41.6" fill="#eaa757"/><path class="prefix__st1" d="M352.2 231.9c-13.3 0-44.7-10.4-46.3-10.9l-.2-.1v-4.2l43.3 3.7 3.1-41.9h.6l-3.1 42.5-43.3-3.7v3.2c3.2 1 45 14.6 50.7 9.8 5.9-5 4.9-41 4.9-41.3h.6c0 1.5 1 36.6-5.1 41.8-1 .8-2.8 1.1-5.2 1.1z"/><path class="prefix__st1" d="M349.2 220.8c1.1.2 2 .8 2.6 1.8.2.3.6 0 .5-.3-.6-1.1-1.7-1.9-2.9-2-.4 0-.5.5-.2.5zM349.9 220.1c.4-.3 1-.4 1.4-.2.3.1.6-.3.3-.5-.7-.3-1.5-.2-2.1.3-.3.2.1.6.4.4z"/><g><path class="prefix__st1" d="M352.9 220.2c.4 0 .8.4.9.8.1.3.6.2.5-.1-.2-.7-.7-1.1-1.4-1.2-.4-.1-.4.5 0 .5z"/></g><g><path class="prefix__st0" d="M306 217s-3.6-3.6-6.9-2.9c-3.3.7-17.4 7.6-15.6 8.3 1.8.7 11.2-1.5 11.2-1.5s11.3 1.3 11.3-.2V217z"/><path class="prefix__st1" d="M284.7 222.9c-.5 0-1 0-1.2-.2-.2-.1-.3-.3-.3-.5.1-1.7 13.1-7.8 16-8.4 3.4-.7 7 2.8 7.2 2.9l.1.1v3.9c0 .1 0 .3-.2.5-1.3 1.1-10.1.2-11.4 0-1.2.3-7.3 1.7-10.2 1.7zm-1-.7c1.5.5 8.4-1 11-1.6 5.8.7 10.8.7 11 .1v-3.6c-.5-.5-3.7-3.3-6.6-2.7-3.3.8-14.8 6.6-15.4 7.8z"/></g><g><path class="prefix__st31" d="M334.6 168.1c.1-.4-5.4 6.5-5.5 12.5-.1 6.1 1.6 39.2 1.6 39.2s8.4 7.9 9.6 12.7c1.3 4.8-8.8 17.7-5.6 18.6s12.9.9 14.4 0 26.8-.1 29.7.7 6.2 4.9 6.1 1.6-12.3-43.4-12.3-48-12.8-46.9-25.4-42.1"/><path class="prefix__st1" d="M384.3 254.9c-.6 0-1.4-.5-2.4-1.2s-2.1-1.4-3.1-1.7c-3.2-.8-28.2-1.4-29.5-.7-1.6.9-11.2 1-14.6 0-.3-.1-.6-.3-.7-.6-.5-1.2.8-4 2.6-7.5 2-3.9 4.2-8.3 3.5-10.6-1.3-4.7-9.5-12.5-9.6-12.5l-.1-.1v-.1c0-.3-1.7-33.3-1.6-39.3.1-5.9 5.1-12.6 5.6-12.8l.1-.1.3.2v.2h-.3l.1.2c-.6.4-5.2 6.7-5.3 12.3-.1 5.8 1.5 37 1.6 39.1.9.9 8.4 8.1 9.6 12.7.7 2.5-1.6 7-3.6 11-1.5 3-3 6.1-2.6 7.1l.3.3c3.1.9 12.7.9 14.1 0 1.6-.9 27.1-.1 29.9.6 1.1.3 2.3 1.1 3.3 1.7.9.6 1.9 1.3 2.2 1.1.1 0 .2-.2.2-.9-.1-1.3-2.4-9.7-4.9-18.6-3.5-12.5-7.4-26.7-7.4-29.4 0-4-8.9-33.7-19.1-40.8-2.1-1.4-4.1-1.8-6-1.1l-.2-.5c2.1-.8 4.2-.4 6.5 1.1 10.3 7.1 19.3 37.2 19.3 41.2 0 2.6 4.1 17.4 7.4 29.3 2.6 9.3 4.8 17.3 4.9 18.7 0 .5 0 1.1-.4 1.4.2.3.1.3-.1.3zm-50-86.9h.3-.3z"/></g><g><path class="prefix__st0" d="M335.5 161.2c0 .5-3.6 24-.6 22.1s8.7-13.3 8.7-13.3 4-5.4 3.6-5.4-5.4-8.8-5.4-8.8"/><path class="prefix__st1" d="M334.6 183.7c-.2 0-.3-.1-.4-.1-1.3-.8-1-7.3.8-21.1.1-.7.2-1.2.2-1.3h.6c0 .1 0 .3-.2 1.3-2.3 17.1-1.7 20.2-1.1 20.6h.2c2.9-1.8 8.5-13.1 8.6-13.2 1.6-2.1 3.3-4.5 3.5-5.1-.4-.4-1.6-2.1-5.3-8.8l.5-.3c1.7 3.1 4.6 8.1 5.2 8.7h.1l.1.2c.1.2.2.5-3.6 5.6-.2.4-5.8 11.5-8.8 13.4-.2 0-.3.1-.4.1z"/><g><path d="M350.3 130.9c2.3.7 3.6 3.3 3.6 5.6 0 2.4-.9 4.7-1.6 6.9s-1.3 4.7-.6 7c.3 1 .9 2 1 3 .2 1.8-1.1 3.6-2.8 4.4-1.7.8-3.6.8-5.4.6-1.7-.3-3.6-1.1-3.9-2.8 0 0-1.1-8.1-3.7-9.1s-17.6-5.2-17.6-5.2c-4.3-.5-8.5-3.3-9.7-7.4-.8-2.7-.3-5.7.5-8.4.1-.4.3-.9.6-1.2.6-.6 1.6-.5 2.4-.3 8.2 1.5 16.6 2.1 24.9 2 2.4-.1 4.9-.2 7.3.4s4.6 2.1 5.5 4.4c.3.8.3 1.9-.4 2.3" fill="#6d5a8c"/><path class="prefix__st1" d="M350.2 131.2c3 1 3.7 4.5 3.2 7.3-.5 2.7-1.8 5.2-2.2 7.9-.2 1-.2 2.1-.1 3.2.2 1.5 1.2 2.8 1.2 4.4 0 3.5-4 4.7-6.8 4.5-2-.1-4.4-.7-4.9-3-.2-1.2-.4-2.3-.7-3.5-.6-2.2-1.3-4.9-3.7-5.7-5.2-1.8-10.6-3.2-15.9-4.7-.7-.2-1.3-.3-2.1-.5-2.3-.4-4.6-1.6-6.2-3.2-2.1-2.1-2.9-4.8-2.7-7.7.1-1.4.4-2.8.8-4.1.3-1.1.6-1.6 1.9-1.6.8 0 1.7.3 2.4.4 6.6 1.1 13.2 1.7 19.9 1.7 3.4 0 6.9-.4 10.2.3 1.4.3 2.9.9 4 1.9.9.8 3 3.3 1.5 4.4-.3.2 0 .7.3.5 1.5-1.1.4-3.3-.5-4.4-1.7-2-4.2-2.9-6.7-3.1-3.3-.4-6.8 0-10.1-.1-3.6-.1-7.3-.3-10.9-.7-1.9-.2-3.7-.4-5.6-.7-1.5-.2-3.1-.7-4.7-.7-2.5.1-2.7 3.5-2.9 5.3-.7 5.2 1.8 9.7 6.7 11.8 1.3.5 2.7.7 4.1 1.1 1.3.4 2.5.7 3.8 1.1 3.6 1 7.2 2 10.7 3.1 1.1.3 2.5.6 3.3 1.5 1.3 1.4 1.7 3.6 2.2 5.4.3 1.1.3 2.5.8 3.5.9 1.8 3.1 2.3 4.9 2.4 2.7.2 5.7-.5 7-3 .6-1.1.7-2.2.3-3.4-.2-.9-.7-1.7-.9-2.6-.3-1.2-.2-2.4 0-3.6.6-3.4 2.7-6.7 2.3-10.3-.2-2.3-1.5-4.5-3.8-5.3-.3-.4-.4.1-.1.2z"/><path class="prefix__st1" d="M349.3 157.4c-1.2-1.5-1.1-3.4-.9-5.2 0-.4-.5-.4-.6 0-.1 2-.2 4 1.1 5.6.3.3.7-.1.4-.4zM348.1 151c0-.2 0-.5-.1-.7-.2-.3-.7 0-.5.3.1.1.1.2.1.3-.1.3.4.4.5.1zM317.7 134.6c-2.1 0-4.1-.8-5.5-2.3-.2-.3-.6.1-.4.4 1.5 1.7 3.6 2.5 5.9 2.5.4 0 .4-.6 0-.6zM311.3 131.4l-.1-.1c-.3-.3-.6.1-.4.4l.1.1c.2.3.6-.1.4-.4zM317 137.9c-1-.1-1.9-.5-2.7-1-.3-.2-.6.3-.3.5.9.6 1.9.9 3 1 .4.1.4-.5 0-.5zM312.8 135.8l-.4-.4c-.3-.3-.6.1-.4.4l.4.4c.3.3.7-.1.4-.4zM337.2 140.8c-.8-1.1-1.7-1.8-2.9-2.4-1.6-.7-3.5-.4-5-1.3-.3-.2-.6.3-.3.5 1.1.6 2.3.6 3.6.8 1.7.3 3.1 1.2 4.1 2.6.2.4.7.1.5-.2z"/><g><path class="prefix__st1" d="M327.8 136.1c-.2-.1-.3-.2-.4-.4-.1-.3-.7-.2-.5.1.2.4.4.6.8.8.3.2.4-.3.1-.5z"/></g><g><path class="prefix__st0" d="M342.8 154.5s-.5 5.1-4.9 8.2c-4.4 3.1-11.3 3.4-11.3 3.4l-5.4-10.7-1.9-1 1-3.4s-1.7-11.8-1.7-13.8 1.7-4 4.4-4.4c0 0 2.4 5.5 5 5.8s7.9 1.9 8.2 3.6 3-.1 4.2.4 2.6 3.1 1.4 4.5c-1.1 1.4 1.5 5.4 1 7.4z"/><path class="prefix__st1" d="M326.5 166.4l-5.4-10.8-2-1 1-3.6c-.1-1-1.7-11.8-1.7-13.8s1.6-4.3 4.6-4.7h.2l.1.2c0 .1 2.3 5.3 4.8 5.7 2.3.3 8 1.9 8.4 3.8 0 .2.1.3.2.4.3.2 1 0 1.7-.1.7-.2 1.5-.4 2-.1.8.3 1.6 1.4 1.9 2.6.2.9.1 1.8-.4 2.4-.6.7-.1 2.2.4 3.7.4 1.3.8 2.6.6 3.5 0 .4-.6 5.3-5 8.4-4.4 3.1-11.2 3.5-11.4 3.5v-.1zm-6.8-12.1l1.8.9 5.3 10.6c1.1-.1 7.1-.7 11-3.4 4.2-3 4.8-8 4.8-8 .2-.8-.2-2.1-.6-3.3-.5-1.7-1-3.3-.3-4.2.5-.6.4-1.3.3-1.9-.2-1-1-2-1.6-2.2-.4-.2-1.1 0-1.7.2-.8.2-1.6.4-2.1 0-.3-.2-.4-.4-.5-.8-.3-1.4-5-2.9-8-3.4-2.5-.3-4.7-4.8-5.1-5.8-2.6.4-4 2.4-4 4.1 0 2 1.6 13.6 1.7 13.8v.1l-1 3.3z"/><path class="prefix__st1" d="M322.6 153.7c-.4.5-.9.9-1.5 1.1-.3.1-.2.7.1.5.7-.3 1.3-.7 1.8-1.3.3-.3-.2-.6-.4-.3zM324.4 146.3c.2.3.4.6.4 1 0 .7 1.1.7 1.1 0 0-.6-.2-1.1-.5-1.6-.2-.2-.5-.4-.8-.2-.2.2-.4.6-.2.8zM327.6 158.5c-.9-.8-2.1.1-2 1.2l.3-.3h-1.2c-.4 0-.4.6 0 .6h1.2c.1 0 .3-.1.3-.3 0-.5.5-1.3 1.1-.8.2.3.6-.1.3-.4zM327.2 143.4c-1.3-.5-2.7-.6-4.1-.3-.7.2-.4 1.2.3 1.1 1.2-.3 2.4-.2 3.5.3.7.2.9-.8.3-1.1z"/><g><path class="prefix__st5" d="M327.4 150.3c0 1.1 1.3 2 2.8 2 1.6 0 2.8-.9 2.8-2s-1.3-2-2.8-2c-1.5 0-2.8.9-2.8 2z"/></g></g></g></g><g><path class="prefix__st31" d="M352.2 183.4l-3.1 42.2-43.3-3.7v3.7s45.1 15 51.2 9.8c6.1-5.2 5-41.6 5-41.6"/><path class="prefix__st1" d="M352 236.7c-13.3 0-44.7-10.4-46.3-10.9l-.2-.1v-4.2l43.3 3.7 3.1-41.9h.6l-3.1 42.5-43.3-3.7v3.2c3.2 1 45 14.6 50.7 9.8 5.9-5 4.9-41 4.9-41.3h.6c0 1.5 1 36.6-5.1 41.8-1 .8-2.8 1.1-5.2 1.1z"/><path class="prefix__st1" d="M349.1 225.6c1.1.2 2 .8 2.6 1.8.2.3.6 0 .5-.3-.6-1.1-1.7-1.9-2.9-2-.4 0-.6.5-.2.5zM349.7 224.9c.4-.3 1-.4 1.4-.2.3.1.6-.3.3-.5-.7-.3-1.5-.2-2.1.3-.3.2.1.6.4.4z"/><g><path class="prefix__st1" d="M352.7 225c.4 0 .8.4.9.8.1.3.6.2.5-.1-.2-.7-.7-1.1-1.4-1.2-.3-.1-.3.5 0 .5z"/></g><g><path class="prefix__st0" d="M305.8 221.8s-3.6-3.6-6.9-2.9c-3.3.7-17.4 7.6-15.6 8.3 1.8.7 11.2-1.5 11.2-1.5s11.3 1.3 11.3-.2v-3.7z"/><path class="prefix__st1" d="M284.5 227.7c-.5 0-1 0-1.2-.2-.2-.1-.3-.3-.3-.5.1-1.7 13.1-7.8 16-8.4 3.4-.7 7 2.8 7.2 2.9l.1.1v3.9c0 .1 0 .3-.2.5-1.3 1.1-10.1.2-11.4 0-1.1.3-7.3 1.7-10.2 1.7zm-1-.7c1.5.5 8.4-1 11-1.6 5.8.7 10.8.7 11 .1v-3.6c-.5-.5-3.7-3.3-6.6-2.7-3.3.8-14.8 6.6-15.4 7.8z"/></g></g></g><g><path class="prefix__st1" d="M336.7 289.2c-.1 1.2-8.3 69.2-6.4 67.3 1.9-1.9 13-65 13-65M378.1 284.6s19.1 70.8 19.8 68.9-11.5-73.2-11.5-73.2"/><path d="M317.1 276.5c-.6-.9.4-16.7 24.1-18.6 23.8-1.9 41.2-5.1 44.7-12.8s12.4-44.1 18.6-47.9c6.2-3.8 1.7 54.7-3.3 69.2-5 14.7-63 42.7-84.1 10.1z" fill="#e2e2e2"/><path class="prefix__st1" d="M347.7 292.2c-10.9 0-23.2-3.2-31.1-15.4-.4-.6-.3-3.6 1.3-6.9 2.5-5 8.5-11.3 23.2-12.5 19.8-1.6 40.5-4.3 44.3-12.4 1.2-2.5 2.9-8.1 4.9-14.6 4.2-13.8 9.5-30.9 13.9-33.6.6-.4 1.2-.3 1.7.1 3.1 2.5 2.1 22.8 1.4 31.3-1 13.8-3.1 31.1-5.7 38.5-3.1 9.1-25.3 22.4-46.7 25-2.2.3-4.6.5-7.2.5zm-30.1-15.9c9.4 14.5 25.5 15.8 37.3 14.4 20.7-2.5 42.8-15.7 45.8-24.3 5.1-14.8 8.5-65.5 4.6-68.6-.1-.1-.2-.1-.4 0-4 2.4-9.4 20.1-13.4 32.9-2 6.5-3.8 12.2-4.9 14.7-3.2 7-16.3 10.8-45.2 13.1-12.9 1-18.8 6.2-21.4 10.3-2.4 3.7-2.5 7-2.4 7.5z"/></g><g><path fill="#bcbbbb" d="M191.9 230.9l31.5 127.4h11.8V350l72.7-.6v6l10.8.5 8.4-126.4"/><path class="prefix__st1" d="M235.5 358.6h-12.4v-.2L191.7 231l.5-.2L223.6 358h11.3v-8.3l73.3-.5v5.9l10.2.6 8.4-126.2h.6L319 356.2l-11.4-.6v-5.9l-72.1.6z"/><path class="prefix__st27" d="M184.6 228.1h146.7v6.2H184.6z"/><path class="prefix__st1" d="M331.6 234.6H184.4v-6.7h147.3v6.7zm-146.7-.5h146.2v-5.6H184.9v5.6z"/><path class="prefix__st35" d="M256.7 221v7.3h44.8l-2-2.8-42.8-4.5z"/><path class="prefix__st1" d="M302.1 228.6h-45.7v-7.9l43.3 4.6 2.4 3.3zm-45.1-.5h44l-1.6-2.2-42.4-4.5v6.7z"/><g><path class="prefix__st0" d="M232.5 124.5c-.8 1.2-6.9 10-5 25.7s13.4 50.8 13.8 51.6c.4.8 4.2 7.9 11.9 8.4"/><path class="prefix__st1" d="M253.2 210.4c-7.9-.5-11.7-7.7-12.1-8.6-.5-1-11.9-36.3-13.9-51.7-1.8-14 2.9-22.7 5-25.8l.5.3c-2 3-6.6 11.6-4.9 25.4 2 15.5 13.4 50.6 13.8 51.5.4.8 4.1 7.8 11.6 8.2v.7z"/><g><path transform="rotate(-13.615 246.593 166.362)" class="prefix__st35" d="M242.7 122.3h7.7v88.1h-7.7z"/><path class="prefix__st1" d="M253 210.5l-20.9-86.2 8-1.9 20.9 86.2-8 1.9zm-20.2-85.8l20.6 85.1 6.9-1.7-20.6-85.1-6.9 1.7z"/></g><g><path class="prefix__st35" d="M246.6 223.9c-.3.3-19.5-3.5-19.5-3.5l13-36.2-1.6-3.4S214 228 218.2 228h28.4v-2.9"/><path class="prefix__st1" d="M246.8 228.3h-28.6c-.2 0-.5-.1-.6-.3-2-3.3 18.4-42.8 20.7-47.3l.3-.5 1.9 4v.1l-12.9 35.9c7.4 1.5 18.3 3.6 19 3.5v.2l.3.2c-.1.1-.4.4-19.7-3.4l-.3-.1 13.1-36.4-1.3-2.8c-9.1 17.5-21.8 44-20.4 46.2l.1.1h28.1v-2.6h.6v3.2z"/></g></g><g><path fill="#a8a5a5" d="M194.1 234.5l.2.7 2.2 9 126.6-3.2 1.4-6.5z"/></g></g></g></g></svg>