<svg xmlns="http://www.w3.org/2000/svg" preserveAspectRatio="none" viewBox="0 0 3840 2160">
<rect width="3840" height="2160" x="0" y="0" fill="#dbeef2"></rect><path d="M0,1427.483C291.92,1413.011,603.431,1479.395,853.259,1327.696C1105.068,1174.794,1233.599,886.782,1341.749,612.756C1445.562,349.72,1505.731,69.145,1460.118,-209.933C1415.021,-485.852,1253.671,-717.496,1087.571,-942.386C908.839,-1184.379,751.104,-1490.959,459.458,-1564.771C168.653,-1638.37,-92.707,-1377.251,-386.233,-1315.388C-714.369,-1246.23,-1103.627,-1393.728,-1362.653,-1180.745C-1623.695,-966.105,-1720.152,-579.686,-1690.403,-243.043C-1662.566,71.961,-1344.249,266.273,-1209.5,552.36C-1077.08,833.502,-1161.191,1232.911,-909.416,1415.08C-658.721,1596.468,-309.054,1442.804,0,1427.483" fill="#ffc037"></path><path d="M3840 3454.415C4084.11 3462.667 4303.616 3332.636 4515.305 3210.795 4736.647 3083.398 4975.974 2959.1620000000003 5093.974 2732.6710000000003 5214.344 2501.631 5264.488 2209.369 5161.771 1969.958 5062.835 1739.359 4770.019 1681.026 4575.02 1523.1019999999999 4421.854 1399.057 4312.406 1235.367 4139.013 1141.656 3931.65 1029.586 3705.047 863.75 3479.072 930.7929999999999 3253.064 997.845 3210.45 1303.801 3040.788 1467.479 2846.877 1654.551 2481.484 1693.795 2417.002 1955.404 2353.714 2212.169 2604.313 2436.517 2747.069 2659.125 2871.126 2852.574 3007.592 3030.893 3193.413 3166.109 3388.17 3307.828 3599.276 3446.277 3840 3454.415" fill="#ffffff"></path>
</svg>