
<svg xmlns="http://www.w3.org/2000/svg" viewBox="0 0 158.05 408.59" style="enable-background:new 0 0 158.05 408.59;" xml:space="preserve">
<style type="text/css">
	.st0{fill:#D7AF98;}
	.st1{fill:#292834;}
	.st2{fill:#343849;stroke:#343849;stroke-width:1.41;stroke-miterlimit:10;}
	.st3{fill:#A8C6BC;stroke:#A8C6BC;stroke-width:1.41;stroke-miterlimit:10;}
	.st4{fill:#FFFFFF;stroke:#FFFFFF;stroke-width:1.41;stroke-miterlimit:10;}
	.st5{fill:#CCDAF1;}
	.st6{fill:#211F23;}
	.st7{fill:#C49D4F;}
	.st8{fill:#211E21;}
	.st9{fill:#A8C6BC;}
</style>
<g id="Layer_2">
</g>
<g id="Layer_1">
	<g>
		<g>
			<path class="st0" d="M82.19,12.55c0,0-6.28,4.78-7.1,8.62s0.35,8.38-1.28,10.48c-1.63,2.1-5.47,5.58-5,6.86
				c0.55,1.18,1.32,2.25,2.27,3.15c0.26,0.49,0.36,1.05,0.26,1.59c-0.1,0.54-0.37,1.04-0.78,1.41c-0.93,0.59,0.2,2,0.64,2
				s-1.16,1,0.22,2.57c1.23,1.44,1.35,1.9,1.28,2.92c-0.08,1.28-1,5.11,3.58,5s8.8-1.09,9.37-0.69c0.57,0.4,6.07,7.2,4,9.73
				l-3.4,0.53c-1.14,0.17-4.1,4.1-4.72,6.72s-2.62,16.94,1.58,16.76s10.56-4.54,14.49-7.94s8.29-7.16,10.3-9.43
				c2.01-2.27,5-8.56,7.16-7.77c0,0-4.8-4.19-5.33-7.34s3.67-15-2.61-25.23S84.21,10.85,82.19,12.55L82.19,12.55z"/>
			<path class="st1" d="M86.44,66.67c-1.3-0.21-2.62-0.24-3.92-0.09c-2.69,0.21-3.06,0-3.68,0.48c-1.26,1.49-2.35,3.12-3.23,4.86
				c-0.81,1.66-2.79,5.71-3,6.62s-4.13,30.3-1.12,34.66c0,0,0.29-0.67,0.37-0.53c2.07,3.9,3.66,3.14,3.75,2.94
				s-4.84-4.54,0.62-11.92c1-1.4,1.13-6.9,1.52-10.39c0.39-3.49,1.71-6.55,1.88-8.42c0.17-1.87,0.58-3.38,1-6.33
				c0.42-2.95,0.51-5.26,1.79-7.45S84.73,67.64,86.44,66.67L86.44,66.67z M122.6,69.46c0,0-1.76-0.1-5.08,1.94
				c-2.84,1.84-5.1,4.44-6.52,7.51c-1.21,2.31-2.61,4.51-4.19,6.58c-1.57,2.21-4.19,8.9-4.83,11.11c-0.47,2.04-1.09,4.05-1.86,6
				c-0.87,1.92-5.09,11.23-6.14,11.52c-1.05,0.29,0.59,2.71,0.59,2.71s5.49-0.9,6.13-0.55s0.58-1.05,0.58-1.69s5.71-13.1,7.8-17.29
				s4.78-9.89,5.48-11.35s3.6-7.8,4.83-9.43s4.7-4.16,8.34-3.65C125.95,71.84,124.24,70.7,122.6,69.46L122.6,69.46z M71.89,115.98
				c0,0-0.87-3.32,0-3.32s1.63,2.56,2.5,2.79c1.88,0.56,3.78,1.01,5.71,1.34c2.33,0.35,14.9,0.18,18.27-0.58
				c3.37-0.76,3,1.28,3.2,2.79s0.7,9,1,11.12s1,9.14,1.23,12.57s0.17,12.05,0,15.78s0.05,10.24,0.64,10.76
				c0.59,0.52,3.14,4.25,4.36,4.89c1.22,0.64,1.69,3.09,1.4,4.37c-0.75,1.98-1.92,3.77-3.44,5.24c-1.28,1.1-1.31,4.79-0.52,4.48
				c1.2-0.61,2.31-1.4,3.28-2.34c1.39-1.23,1.77-1.62,2.45-1.6c1.86,0.21,3.7,0.59,5.5,1.13c2.41,0.69,4.56,1.24,5.37,1.47
				c0.57,0.06,1.11,0.26,1.58,0.58c0.47,0.32,0.86,0.76,1.11,1.27c0.88,1.6,1.26,3.43,1.11,5.25c0.03,2.49-0.15,4.99-0.53,7.45
				c-1.28,7.65-3.08,15.2-5.39,22.61c-3.66,11.62-6.28,21.92-7.33,24.54s-1.4,5.06-0.35,5.24s3.14,3.67,2.44,7.33
				c-0.7,3.66-1,4.89-0.26,5.68c1.23,1.49,1.96,3.32,2.1,5.24c0,1.92-0.44,6.63,0.09,7.24s3,3.06,3.4,4.63s-0.26,6.37,0.44,7.51
				s2.44,7.51,3.58,10.3c1.35,4,2.41,8.09,3.19,12.24c0.35,2.09,1.75,12,2.1,13s2.26,4.89,0.69,6.55s-3.23,2.94-3,4.37
				c0,0-1.4,1.22-13.07,1.53c0,0,0.15-0.86-0.38-1.1s-1.34,0.41-3.26-5.12c-1.92-5.53-3.55-10.07-5.35-12.92
				c-1.8-2.85-3.71-9.49-5.17-11.7c-1.46-2.21-1.24-6.52-2.34-8.44s-3.44-5.41-3.84-5.3c-0.4,0.11-3.2,5.94-4.48,8.91
				s-5,11.87-6.29,15.6s-5.53,14.84-7.1,17.46s-4.66,8.38-6.81,12.63s-3.84,7.57-4.78,9.72c-0.94,2.15-3,7.05-4.88,8
				s-9-1.34-13-5.18s-5.71-10.66-5.48-12.46c0.23-1.8,5-5.24,6.35-8.61s3.78-7.11,4.19-8.33c0.41-1.22,1-7,2.15-9.08
				s2.27-6.63,3.26-12.69c0.99-6.06,3.44-7,3.73-8.9s-2.56-6.87-2-10s3.26-16,3.26-18s4-10.36,5-12.51c1-2.15,0.46-5.48,2-8.91
				s5.41-7.39,4.19-10.42s-2.62-5.41-2.86-7.27s-1.74-10.48-2.5-13.51s-0.41-5.59-1.69-5.7c-1.28-0.11-2.09-10.25-1.51-15
				s1.1-20.49,0.49-25.38s-1.08-10.85,0-14.87s2.39-3.83,2.57-6c0.18-2.17,0-9.66,1.28-16.58
				C70.78,130.85,71.28,115.49,71.89,115.98L71.89,115.98z M55.44,377.04c0,0,1.4-1.16,2,0s1.46-0.06,1.34-1.1
				c-0.12-1.04-3.43-1.34-3.61,0.34c-0.18,1.68,0.7,1.46-0.17,1.69s-0.52,1.87-1.16,2.68s-1.81,1.16-2.86-0.29
				c-1.05-1.45-2.91-5.59-5.06-6.34s0.17-2.86-1.28-4.14s-5.33-2.91-6.11-0.55s-3.49,2.79-4.8,3.75s-5.33,3.15-7.16,5.24
				c-1.83,2.09-1,3.41-5.77,4.72s-10.21,0.78-9.51,3.05c0.7,2.27,3.4,5.15,6.28,7.07s8.6,3.93,17.44,3.23s8.58-2.35,11.9-2.09
				c3.32,0.26,8.64-0.17,8.82-1.48s0.55-10.82,0-13.28S55.44,377.04,55.44,377.04L55.44,377.04z M54.17,395.7c0,0,0.52,3.49,0,3.93
				s-2.62,1-6.07,1.09c-3.45,0.09-7.21-1-8.21,0s-5.24,1.79-7.94,1.61c-3.61-0.33-7.15-1.27-10.44-2.79
				c-3.86-1.65-7.54-3.69-11-6.07c-2.62-1.79-4.72-5.24-3.71-4.85s1.22,0,9.08,5.72c3.24,2.38,10.39,5.9,16.94,5.42
				c6.55-0.48,7.9-1.92,12.26-2S54.1,395.25,54.17,395.7L54.17,395.7z M114.9,346.54c0,0-2.15-4.71,1.34-4.19s8.27,1.8,7,3.73
				c0,0-1,1.63-0.29,1.68s3.61-0.46,4.71,0.41s4.07,1.4,3.78-1.75s-0.17-5.12,0-4.77c0.46,0.96,0.83,1.97,1.11,3
				c0.35,1.34,0.41,5.18,0.87,6.4c0.46,1.22,1.4,4.78,0.35,5.82s-3,1.92-6.69,3.55s-6.64,5.77-8.44,8
				c-2.52,3.18-6.18,5.27-10.2,5.83c-5,0.64-6.17-1.46-8.27-2.51c-2.1-1.05-4.72-1.28-5.7,1.29c0.05-0.86,0.29-1.69,0.71-2.44
				c0.42-0.75,1.02-1.39,1.73-1.87c2.92-2.03,5.61-4.37,8-7c1.52-1.86,8.39-7.45,8.91-8.9S113.91,345.98,114.9,346.54L114.9,346.54z
				"/>
			<path class="st2" d="M135.22,357.98c0.25,0.39,0.41,0.82,0.48,1.28c0.07,0.45,0.05,0.92-0.07,1.36c-0.3,0.87-3.73,4.13-10,6.23
				s-5.08,6.13-10.67,9.13c-5.59,3-12.86,2.56-15.36,2.16s-5.59-4.19-3.73-4.13s4.19,2.26,6.69,2.26s8-0.11,12.17-2.79
				s6.63-7.33,8.85-8.32s2.15,0.06,6.81-2.39S134.81,357.53,135.22,357.98L135.22,357.98z"/>
			<path class="st3" d="M127.77,337.9c0.41,1.08,0.96,2.09,1.66,3c0.7,0.61,1.83,1.14,1.83,1.79c0,0.65,0.66,4.8,0.35,5.41
				s-2.66,3.23-8.38,1.22c-1.69-0.6-3.24-1.52-4.56-2.72c-1.32-1.2-2.39-2.66-3.15-4.28v-2.92
				C115.52,339.4,125.44,339.29,127.77,337.9L127.77,337.9z M58.62,367.35c0,0-1.88,3.29-2.4,4.16c-0.54,1.21-0.68,2.56-0.41,3.86
				c-0.22,0.08-0.4,0.23-0.52,0.43c-0.12,0.2-0.16,0.44-0.12,0.66c0.02,0.46,0.1,0.92,0.23,1.36c0,0-1.08,5.47-3.5,4.62
				s-10.82-14.26-10.82-14.26l3.23-9.79C44.31,358.4,47.56,365.57,58.62,367.35L58.62,367.35z"/>
			<path class="st1" d="M68.31,149.66c0,0-6.11,4.25-6.37,19.94c0,0-3.58,0-3.58,1.54v4.19c0,0-3-1-3.41,0
				c-0.25,0.71-0.25,1.47,0,2.18c0,0-16.3,0.93-16.3,1.75s-0.62,4.77,2.89,5c3.44,0.01,6.87-0.27,10.27-0.81
				c0,0-3.73,5.47-4.19,7.22s-1.86,3.84-3.38,6.86s-4.31,6.06-3.84,9.43s5,7,7.8,8.73s6,5.48,7.68,5.13s10.71-5.24,10.71-5.24
				l-1.15-41.75L65,168.42c0,0-1.38-1.82-1.64-0.95s-0.43-1.48,0.26-5.06c0.69-3.58,1.66-8.82,4.67-11.44L68.31,149.66z"/>
			<path class="st0" d="M138.44,118.49c0,0-1.51-4.31-4-3.14c-2.49,1.17-3,4.07-4,4.07s-1.16,3.49-1.16,6.29s-3.14,8.73-5,11.06
				c-0.56,0.57-0.98,1.28-1.2,2.05c-0.22,0.77-0.25,1.59-0.08,2.37c0,1,0.82,4.42,0.58,6s-2.56,8.5-3.6,12.58
				s-4.14,19.72-6.24,23.21c-2.1,3.49-6.64,9.78-8.26,10.13s-6.52,4.54-8.15,6.4s-2.22,3.61-3.15,4.89
				c-0.93,1.28-2.73,2.56-2.67,3.84c-0.07,2.02-0.41,4.01-1,5.94c-0.47,1.17,2,1.22,3.14-0.87s0.41-2.39,1-2.74
				c1.12-1.1,2.01-2.4,2.62-3.84c0.23-0.93,2.21-1,2-0.23c-0.46,1.45-1.23,2.79-2.27,3.9c-1.28,1.22-0.88,4.29-0.64,4.59
				c0.72,0.48,1.48,0.89,2.27,1.23c0,0-0.53,1.74-0.12,2.5c0.66,0.73,1.45,1.32,2.33,1.75c0,0-0.24,1.92,0.23,2.15
				c0.88,0.26,1.77,0.45,2.68,0.58c0,0,0.12,1.34,2,0.64c1.88-0.7,3.49-3.55,4.07-4.54c0.58-0.99,3-4.65,3.38-6.11
				c0.48-3.25,1.22-6.46,2.21-9.6c0.91-2.78,2.26-5.39,4-7.74c0.81-1.4,2.33-6,3.81-8.91s6.64-12.66,9.34-19.38
				c2.7-6.72,3-10.65,3.58-12.31c0.83-2.66,1.47-5.37,1.92-8.12C138.33,144.86,138.44,118.49,138.44,118.49L138.44,118.49z"/>
			<path class="st4" d="M55.26,393.4c0,0-0.34,1.88-0.86,2.07c-1.75,0.7-3.55,1.28-5.38,1.74c-1.52,0.32-3.07,0.52-4.63,0.6
				c-1.8-0.05-3.59,0.28-5.26,0.95c-2.82,0.78-5.75,1.11-8.68,1c-3.57-0.71-7.06-1.8-10.39-3.27c-2.95-1.09-5.66-2.72-8-4.82
				c-4.25-4.13-5.46-2.89-5.55-3.37s1-2.22,4.56-3c0,0-0.33,1.63,4.17,6c1.54,1.62,3.41,2.9,5.48,3.76
				c2.07,0.86,4.29,1.28,6.52,1.24c3.55,0.34,7.13,0.27,10.67-0.21c3.63-0.67,6.67-1.68,7.37-1.75s4.64,0,5.5,0
				S55.3,393.16,55.26,393.4L55.26,393.4z M95.3,374.98c0,0-0.88-0.64-0.88-1.16c0-0.52,0.59-2.47,1.78-2.66
				c1.22-0.26,2.5-0.11,3.63,0.43c1.59,0.67,2.2,2,4.71,2.52c2.4,0.42,4.86,0.19,7.14-0.68c2.89-1.07,5.42-2.95,7.26-5.42
				c1.32-1.95,2.89-3.72,4.65-5.28c1.57-1.34,3.36-2.41,5.28-3.16c1.55-0.5,2.99-1.25,4.29-2.23c0.46-0.36,0.83-0.83,1.08-1.36
				c0.08-0.24,0.75,1.38,0.82,1.79c-0.44,1.49-1.36,2.79-2.62,3.71c-1.95,1.33-4.1,2.34-6.36,3c-2.24,0.54-2.6,0.17-4.37,2.14
				c-1.57,1.87-3.23,3.66-5,5.34c-1.97,1.97-4.53,3.25-7.29,3.63c-4.57,0.6-6.7,1.18-8.65,0.31c-1.4-0.7-2.85-1.32-4.32-1.85
				C95.66,373.91,95.05,374.07,95.3,374.98L95.3,374.98z M38.44,386.98c0,0-1.69,6.34,0.7,6.05c2.39-0.29,9.84-6.58,9.84-6.58
				s-8.27,4.6-9.26,3.79C38.73,389.43,38.44,386.98,38.44,386.98L38.44,386.98z M28.76,388.59c0,0-4.87-5.89-6.83-5.9
				s0.68-1.5,2.09-1s6.82,6.13,6.86,6.6S29.22,389.13,28.76,388.59L28.76,388.59z M25.56,379.77c0,0-0.14-2,1.36-1.81
				s5,2.49,5.94,4.37s1.84,4.55,1.49,4.85c-0.35,0.3-1.53,0-1.53,0s-0.81-3.84-2.37-5.23C28.89,380.56,26.77,378.91,25.56,379.77
				L25.56,379.77z M29.66,375.75c0.02-0.18,0.08-0.36,0.17-0.52c0.1-0.16,0.23-0.29,0.38-0.4c0.15-0.1,0.33-0.17,0.52-0.2
				c0.18-0.03,0.37-0.01,0.55,0.05c1.38,0.38,5,3.12,6,5c0.15,0.21,0.25,0.44,0.3,0.69c0.05,0.25,0.05,0.51,0.01,0.76
				c-0.05,0.25-0.15,0.49-0.29,0.7s-0.33,0.39-0.54,0.53c0,0-0.84-1-0.75-1.71s-3.29-3.4-4.25-4S29.59,375.98,29.66,375.75
				L29.66,375.75z M33.74,373.08c0.15-0.3,0.39-0.54,0.69-0.7s0.63-0.22,0.96-0.17c0.65,0.11,1.27,0.39,1.78,0.81
				c0.51,0.42,0.91,0.97,1.15,1.59c0.74,1.57,2.27,3.71,1.92,4.45s-1.31,0-1.31,0c-0.26-0.89-0.62-1.74-1.09-2.53
				C37.44,376.18,35.44,372.86,33.74,373.08z M37.57,370.47c0,0-0.52-7.21,0.92-7.3c1.44-0.09,3.16,0.58,1.8,5s-1.16,2.68-1.16,2.68
				C38.66,370.55,38.12,370.42,37.57,370.47z"/>
			<path class="st5" d="M38.54,369.33c0,0-0.47-4.76,0.59-4.58s0.32,3.56,0.32,3.56c-0.25,0.04-0.47,0.16-0.64,0.35
				C38.64,368.85,38.55,369.08,38.54,369.33L38.54,369.33z"/>
			<path class="st4" d="M37.57,370.47c0.93-0.14,1.88,0.01,2.72,0.43c1.17,0.7,4,2.93,4.62,4.37s-0.78,1.57-0.78,1.57
				c-0.55-0.78-1.15-1.52-1.79-2.23C41.16,373.3,36.78,370.52,37.57,370.47z M113.97,366.19c-0.2-0.76-0.64-1.44-1.26-1.93
				s-1.38-0.76-2.17-0.78c-2.59-0.01-5.18,0.12-7.76,0.4c0.08-0.34,0.25-0.64,0.49-0.89c0.24-0.24,0.55-0.41,0.89-0.49
				c2.32-0.56,4.7-0.8,7.08-0.71c1.39,0.24,4.14,1.63,4.28,2.74C115.66,365.64,113.97,366.19,113.97,366.19L113.97,366.19z
				 M116.18,361.73c0,0-5-3.23-9-2.34c0,0,0.29-1.36,1.53-1.4c2.03-0.17,4.07,0.07,6,0.72
				C116.77,359.58,117.58,361.98,116.18,361.73L116.18,361.73z M111.22,355.67c0,0,0.52-1.42,1.52-1.52c1-0.1,5,1.18,5.6,2.46
				s-0.9,1.37-0.9,1.37S114.35,354.55,111.22,355.67z M116.01,352.83c0,0,0.13-7.34,2.48-7.69s4.51,2.92,2.58,4.9
				c-1.93,1.98-3.9,3.43-3.43,3.78c0.58,0.4,1.02,0.97,1.27,1.63c0.13,0.58-2.55-3.09-5.17-2.62c0,0-0.58-0.47,0-0.53
				C114.51,352.39,115.27,352.57,116.01,352.83L116.01,352.83z"/>
			<path class="st2" d="M117.17,351.98c0,0,0.38-5.84,1.62-5.33S121.83,347.98,117.17,351.98z"/>
			<path class="st6" d="M96.12,211.51c0,0-0.44,3.07,0.06,3.59c0.68,0.49,1.41,0.89,2.19,1.2c-0.19,0.72-0.24,1.46-0.17,2.2
				c0.21,0.56,0.7,1.1,2.4,2.08c0,0-0.23,1.62,0.23,2.11c0.79,0.49,1.64,0.88,2.53,1.13c0.01,0.27,0.11,0.52,0.3,0.72
				c0.18,0.2,0.43,0.32,0.7,0.34c0.94-0.03,1.87-0.18,2.77-0.45c0,0-2.19,3.29-3.87,1.38c-0.58-0.66-2.27-0.83-3.09-1.41
				c-0.87-0.74-1.68-1.56-2.42-2.43c-0.74-0.73-1.12-2.59-1.48-3.9c-0.36-1.31-1.2-1.53-1.71-2.56S95.31,212.34,96.12,211.51
				L96.12,211.51z M97.67,206.42c0,0,0.77-0.36,1.06-0.26c0.29,0.1,0.38,0.08,0.27,0.49c-0.23,0.62-0.5,1.23-0.81,1.82
				c-0.31,0.53-0.67,1.02-1.08,1.48c-0.47,0.44-0.82,1-1,1.62c-0.06,0.51-1.33,0-1.69,1.54c-0.36,1.54-1,3.22-2.12,3.48
				s-3-0.39-2.07-2.11c0.09,0.17,0.21,0.31,0.36,0.43c0.15,0.12,0.32,0.2,0.51,0.24c0.18,0.04,0.38,0.05,0.56,0.01
				c0.18-0.04,0.36-0.11,0.51-0.22c0.51-0.26,0.97-0.63,1.33-1.08c0.36-0.45,0.62-0.97,0.77-1.53c0.08-0.55,0.21-1.08,0.37-1.61
				c0.76-0.67,1.41-1.45,1.94-2.31C97.11,207.39,97.34,206.44,97.67,206.42L97.67,206.42z"/>
			<path class="st0" d="M70.93,88.11c0,0,0.09-2.88,0-4.72s0.87-4.45,1.92-5s1.92,0.44,1.66,1.84c-0.2,2.63-0.05,5.27,0.44,7.86
				c0.43,1.48,1.31,6.72,0,9.86c-1.31,3.14-3,4.89-4,7.16s-1,24.54-1,24.54s-3.49-6.12-3.75-9.43s0.35-11.7-1.49-13.28
				c-1.95-1.55-3.79-3.24-5.5-5.06c-1.48-1.75-1.83-3.67-3.05-5.24c-1.22-1.57-2.19-6-0.88-7.07c0.37-0.31,0.81-0.53,1.28-0.65
				c0.47-0.12,0.96-0.14,1.43-0.05c0,0-0.52-3.14,1.83-3c0.16-0.7,0.55-1.33,1.1-1.79c0.55-0.46,1.24-0.72,1.96-0.75
				c0,0,2.09-1.31,3-0.78S70.49,85.98,70.93,88.11L70.93,88.11z"/>
			<path class="st1" d="M67.79,97.62c0,0-2.31,15.05-2.22,21.22c-0.09,6.86-0.64,13.7-1.65,20.49c-0.59,3.14-2,30.27-2,30.27h-1.23
				c0,0,1.4-15.66,1.4-25.44s1.14-20.43,0.61-30.73c-0.53-10.3,0.7-15.81,0.7-15.81s1.6,1.28,2.53,0.61s1-1,1-1L67.79,97.62
				L67.79,97.62z"/>
			<path class="st7" d="M73.44,32.13c0,0-0.41-5.14-1-9.1s-1.48-9.66,3.5-12.45s6.46-2,7.68-3.67c1.22-1.67,4.38-0.79,8.3-0.7
				c3.07-0.02,6.13-0.26,9.16-0.7c2.1-0.17,5.41,3.23,5.41,3.23s5.77-1.31,7.86,0.26c2.09,1.57,6.64,9.24,8.91,9.82
				s2.18,2.58,2.35,4.85s3.32,7.25,5.77,7.69c1.22,0.32,2.52,0.19,3.66-0.35c0,0-4.27,2.18-6.81,0.08s-3.66-2.27-3.4-0.61
				s2.79,3,2.79,4.54s-1.13,4.89,0.44,6.64s2.53,3,2.53,3s-1.13-1.18-2-2s-1.31-0.7-1.92-1.88c-0.61-1.18-0.78,1.75-1.48,2.36
				s-1.31,3.23-0.44,3.4c1.21,0.43,2.48,0.69,3.76,0.79c2,0.09,5.76,1.46,6.54,3.87c0.69,2.13,1.79,4.11,3.24,5.82
				c1.3,1.57,0.87,3.58,0.43,5.33c-0.44,1.75-0.43,7.68,0.44,10.12s6.63,7.08,6.63,7.08s-4-2.36-4.89-3.5
				c-0.89-1.14,0.79,2.54,0.53,3.5s-1.4,1.92-0.26,3.58c1.14,1.66,2.61,2.27,2.61,3.14c-0.66-0.97-1.54-1.76-2.57-2.31
				c-1.31-0.48,0,2-0.17,2.31s1.35,2.88,1.52,3.4c0.05,0.15,0.07,0.31,0.04,0.47c-0.02,0.16-0.09,0.31-0.18,0.44
				c0.06-0.3,0.04-0.6-0.05-0.89c-0.09-0.29-0.25-0.55-0.46-0.76c-0.74-0.76-1.44-0.89-1.64-1.48c0.27,0.84,0.47,1.7,0.61,2.57
				c-0.06,0.48-1.14,0.79-0.54,5.29c0,0-1.09-4.29-1.6-8s-0.68-5.11-0.83-6.16c-0.15-1.05,0-2-1.35-2.78s-5.91-4.08-8.79-5.55
				c-1.67-0.75-3.21-1.76-4.56-3c-2.07-1.63-3-2.82-4.39-3.53c-1.39-0.71-3.53-1.09-3.87-1.4c-0.41-0.85-0.67-1.76-0.76-2.7
				c0-0.35-0.7,4.25-1.17,5.36s-0.32,1.26-0.32,1.26c-0.02-0.72,0.07-1.43,0.29-2.12c0.28-0.98,0.33-2,0.17-3
				c-0.13-0.37-1,1.85-1.35,2.55s-1.59,3.27-2.6,3.67c0.78-0.86,1.4-1.85,1.83-2.93c0.38-1.31,0.81-1.94,0.94-2.59
				c0.13-0.65,0-2.58-1.07-3.28s-1.16,3.14-2,4c0.47-1.24,0.71-2.56,0.71-3.89c-0.06-1.31-0.4-2.59-1-3.75
				c-0.54-0.72-0.89-1.57-1.04-2.46c-0.14-0.89-0.07-1.8,0.21-2.66c0.25-0.74,0.24-1.54-0.01-2.28s-0.74-1.37-1.39-1.8
				c-0.29,0-0.52,3.49-0.87,4.6c-0.19,0.74-0.13,1.51,0.17,2.21c-0.33-0.78-0.61-1.57-0.84-2.39c-0.12-0.64-1,0.88-0.9,1.69
				s0.69,4.6-1,6.93c-1.05,1.4-1.9,2.95-2.5,4.6c0.39-1.33,0.87-2.64,1.45-3.9c0.61-1.11-2.36,2.15-2.76,3.08
				c-1.02,1.8-2.51,3.28-4.31,4.29c-1.6,0.93-3.27,1.73-5,2.41c0,0,3.19-1.88,3.8-2.8s0.87-0.7,2.23-1.87
				c1.36-1.17,0.78-2.62,0.83-3.85c0.05-1.23,0.77-5.16,1.12-7s0.64-7-0.12-8.15s-0.82,3.37-1.34,5.18s-2.1,5.53-2.1,5.53
				s1.75-4.95,1.52-6.87c-0.22-1.49-0.22-2.99,0-4.48c0.17-0.82,1.71-7.54,1.38-8.85c-0.33-1.31-1-3.49-1.38-3.67
				s0.7,4.28-0.09,7.07l-0.79,2.8c0.29-1.5,0.44-3.02,0.44-4.54c-0.09-1.84-1.48-2.8-1.22-5.42s-1.57-7.24-2.71-8.55
				c-1.14-1.31-10-7-9.08-13.83c0,0-4.47,3.54-5.67,5.68s-1.61,2.23-1.69,4.84S75.44,30.56,73.44,32.13L73.44,32.13z"/>
			<path class="st8" d="M92.96,29.63l-11.7-0.25c-1.34-1.18-2.98-1.96-4.74-2.26c-2.49-0.22-1.8,1.26-1.8,1.26
				c-0.38-0.75-0.93-1.4-1.61-1.91c-0.2-0.12-0.43-0.18-0.66-0.17c-0.23,0-0.46,0.07-0.65,0.19c-0.2,0.12-0.36,0.29-0.46,0.49
				c-0.11,0.2-0.16,0.43-0.15,0.66c-0.13,1.23-0.33,7.34,0.48,6.46c0.81-0.88,2.45-2.83,2.45-2.83c-0.15,0.79-0.18,1.6-0.09,2.4
				c0.17,1,1.4,4.93,3,5.59s4.54-4.1,4.5-6.49c-0.07-0.7-0.07-1.41,0-2.11l11.8,0.21C93.33,30.87,93.05,29.88,92.96,29.63
				L92.96,29.63z"/>
			<ellipse class="st9" cx="105.79" cy="39.01" rx="8" ry="9.5"/>
			<path class="st9" d="M100.29,5.51c-1.58-8.8,2.67,21.33,3,26.5c1.67,0,5.1-0.1,5.5-0.5s-1.17-15.17-2-22.5
				C103.95,4.18,100.35,5.88,100.29,5.51z"/>
		</g>
	</g>
</g>
</svg>
