<svg xmlns="http://www.w3.org/2000/svg" viewBox="0 0 40.007 40.007">
<path d="M30.004 37.324c-9.566 5.522-21.798 2.245-27.32-7.32S.437 8.205 10.003 2.683C19.57-2.84 31.8.436 37.324 10.003s2.245 21.797-7.32 27.32zm3.856-25.32C29.442 4.35 19.656 1.728 12.004 6.146 4.35 10.565 1.73 20.35 6.147 28.003c4.418 7.653 14.204 10.275 21.856 5.856 7.653-4.42 10.275-14.204 5.857-21.857zm-6.66 9.195l-10.392 6c-.957.55-1.736.103-1.74-1l-.055-12.125c-.005-1.104.765-1.55 1.72-.993l10.472 6.11c.953.556.95 1.455-.005 2.007z" fill-rule="evenodd" clip-rule="evenodd" fill="#ae8f37"/>
</svg>