<svg viewBox="0 0 1130 850" xmlns="http://www.w3.org/2000/svg" fill="none"><path d="M416.319 726.721c.637.639 1.459 1.061 2.349 1.206 1.27.097 2.306.048 2.355 1.364.048 1.315.325 2.262 1.174 2.919.849.658 3.993.851 4.608 0 .614-.85 1.644-2.069 1.644-2.069.199.219.342.484.416.771.073.287.075.588.005.876-.234.989-.56 7.016-.56 7.016-1.903-.051-3.807.06-5.691.332-2.163.422-7.71.705-10.769 1.176-3.06.47-8.836 1.038-11.703.567-2.867-.471-4.282-.989-3.108-1.647 1.175-.657 6.3-2.123 7.95-2.781 1.651-.657 10.848-7.987 11.33-9.73zM431.587 730.425s-2.451-.604-2.728.555c-.453 2.843-.751 5.708-.892 8.584.048 1.037.066 1.882-.783 2.823-.849.941-.861 3.107.645 3.481 1.505.374 5.547.38 8.366-.235 2.818-.616 4.89-1.177 4.89-2.588 0-1.412-1.271-3.566-1.692-4.826-.266-.915-.164-1.898.283-2.739.187-.471.283-1.931 0-2.118-.283-.187-.753.332-3.807-.567-3.053-.898-4.282-2.37-4.282-2.37z" fill="#211E21"/><path d="M439.441 736.023s-.301-.682-.705-.652c-.403.03-.536 1.315-.819 1.81-.283.495 0 1.442 0 2.509 0 1.068-.373 1.165-1.03 1.129-.015.189.024.38.112.549.089.168.223.308.388.404.566.307 1.566.084 1.566-.26-.064-1.256-.064-2.514 0-3.77.127-1.068.307-.965.307-.965l.181-.754zM435.634 741.072s-3.445-.899-4.89-.645c0 0-.663-.845 0-.893.662-.049 4.324.319 4.698.766.373.446.192.772.192.772zM435.369 738.647s-3.27-.603-4.643-.447c0 0-.603-.603 0-.603.602 0 4.107.217 4.463.525.355.308.18.525.18.525zM435.351 737.187s-3.089-.603-4.384-.446c0 0-.603-.604 0-.604.602 0 3.878.224 4.216.531.337.308.168.519.168.519zM435.128 736.023s-2.734-.604-3.884-.447c0 0-.524-.603 0-.603s3.439.217 3.734.531c.295.314.15.519.15.519zM434.749 734.961s-2.512-.603-3.566-.446c0 0-.475-.604 0-.604.476 0 3.156.218 3.427.531.272.314.139.519.139.519zM435.442 739.534s-3.969-.567-4.993-.429c0 0-.506-.44.385-.458.892-.018 4.608.114 4.608.887zM431.918 730.72c-.929.031-1.83.321-2.603.838-.773.517-1.386 1.24-1.769 2.088-1.368 2.962-.783 4.826.252 4.47 1.036-.356.717-2.093 2.048-3.155 1.171-1.043 2.257-2.179 3.247-3.396 0 0 1.644 1.279 1.692 1.846.048.567-.717 4.53.602 5.091 1.319.561 2.41-.386 1.916-1.846-.494-1.46-1.651-3.963-1.651-3.963l-.891-.308s1.361 2.347 1.596 3.62c.235 1.273-.138 2.588-.421 1.562-.284-1.025.228-3.668-1.392-5.284-.59-.236-1.157-.527-1.692-.869-.645-.452-2.367 1.93-3.072 2.727-.705.796-1.704 3.058-2.006 2.497-.301-.561-.102-2.642.88-3.39.981-.748 3.614-2.262 3.614-2.262l-.35-.266zM409.693 736.373s-1.409 1.11-1.204 1.206c.527.378 1.133.628 1.773.733.639.105 1.294.06 1.913-.13 2.144-.603 6.752-2.962 7.739-2.799.988.163 2.259 1.092 4.186 1.285 1.377.097 2.76.048 4.126-.145l.325-2.612c-.231.481-.604.879-1.068 1.14-.464.261-.998.373-1.528.32-1.927-.175-4.746-.893-5.637-1.472-.891-.579-2.072.181-2.873.531-.801.35-3.891 2.081-4.668 2.226-.777.145-2.77.235-3.084-.283zM407.935 736.125s-1.368-.543-2.163-.102c0 0 .374-1.074 1.319-.905.946.169 1.693.519.844 1.007zM408.025 734.43s1.56.64 1.65.941c.091.302.284-.881 0-1.206-.283-.326-1.626-.724-1.65.265zM409.356 733.399s1.259.44 1.452 1.206c.192.766.704-.694.325-.929-.379-.235-1.187-1.641-1.777-.277zM412.187 730.829s1.259.44 1.452 1.206c.192.766.704-.7.325-.929-.38-.229-1.187-1.641-1.777-.277zM413.656 729.592s1.259.447 1.446 1.207c.187.76.705-.7.331-.929-.373-.23-1.186-1.641-1.777-.278zM410.591 732.409s1.524.139 1.596 1.273c0 0 .885-.959.602-1.273-.401-.425-.922-.718-1.493-.838-.488 0-.735.663-.705.838zM415.716 727.625s1.205.32 1.205.839c0 .519.139 4.476 0 5.652-.092 1.154-.124 2.312-.096 3.469h-.283s.421-2.449.048-3.758c-.374-1.309-.759-5.224-.602-5.647.156-.422-.561.549-.844.133-.054-.084-.114-.036-.174.103-.301 1.259-.418 2.555-.35 3.848.103 1.569-.873 3.385-1.843 3.228-.969-.157-2.162-2.54 1.651-6.455 0 0-2.482 4.699-1.982 5.11.5.41 1.452-.187 1.668-1.098.217-.911.506-4.223.506-4.223s.307-1.985-.506-2.015c-1.247-.043-2.476.31-3.511 1.008-1.259.88-1.982 2.165-1.415 2.666.389.276.854.425 1.331.425s.942-.149 1.331-.425c.789-.603 1.698-2.383 2.042-2.099.156.111.292.247.403.404l.193-.157s-.47-.784-.976-.561c-.506.223-.909 1.357-1.939 1.9-1.03.543-2.476 1.026-2.325 0 .15-1.025 1.397-1.683 2.036-2.027.697-.413 1.446-.729 2.228-.941.283.03.994 1.81.994 1.81s.566-1.086 1.21-1.189zM396.612 739.534s-1.205.464-1.368 1.128c-.162.663-.602 2.069 1.368 2.775 1.969.706 5.968 1.695 9.679 1.134 3.71-.561 7.414-1.37 10.69-1.557 3.277-.187 9.89-.693 10.534-1.085.645-.392 1.277-2.413.783-3.107-1.188-.13-2.389-.104-3.571.078-2.319.29-5.788.7-7.155.821-1.368.12-5.481.512-7.746.941-2.976.442-5.992.552-8.992.326-1.717-.272-4.391-.797-4.222-1.454zM426.606 744.239c-.216.597-.344 1.223-.379 1.858.048.639-.518 3.885 3.294 3.885 3.813 0 8.794.283 10.39-1.81s1.409-3.438 1.174-5.749c0 0 .434 1.339-1.247 2.099-1.636.67-3.357 1.111-5.113 1.309-1.672.178-3.354.248-5.035.212-1.072-.067-2.982.144-3.084-1.804z" fill="#fff"/><path d="M437.7 677.278s-1.439-2.25-1.506-3.016c-.066-.766.88-5.212 3.012-8.916 2.132-3.704 2.692-4.772 2.692-4.772l.283-4.071s-1.204 3.287-1.566 4.041c-.361.754-2.915 6.781-3.571 8.289-.657 1.508-2.446 5.556-2.446 6.684v3.016l3.102-1.255z" fill="#2C2B30"/><path d="M414.126 546.621s.392 3.879 2.982 4.959c1.889.685 3.887 1.018 5.896.983 0 0-5.378 12.487-5.806 12.722-.428.236-5.204 4.398-3.072-18.664zM415.114 610.825s3.331 19.756 2.674 22.591l20.876 1.985s2.951-3.752 3.963-4.223l-.15 3.849c-2.654.702-5.427.824-8.131.356-4.373-.796-20.328-1.677-22.671-2.787-2.343-1.11 3.439-21.771 3.439-21.771z" fill="#fff"/><path d="M416.469 724.633l-.162 2.088s6.3 13.518 12.13 3.438v-4.331s-1.5-1.979-5.421-1.81c-2.193.058-4.381.264-6.547.615z" fill="#2C2B30"/><path d="M429.864 531.992c-1.642-2.134-2.991-4.48-4.011-6.973 0 0-1.132.663-1.409.331-.277-.331-.127-1.743-.253-2.304-.127-.561-.319-2.238-1.096-2.359-.396-.001-.783.112-1.115.326-.332.214-.596.52-.758.881-.452.923-.868 1.972-1.53 2.075-2.777.434-8.366-3.674-10.342-4.428-1.975-.754-3.577 1.556-4.89 3.016-1.313 1.46-4.656 1.979-5.927-.38.182 1.037.434 2.061.753 3.065.418.761.79 1.546 1.114 2.352.09.501.157 1.569.602 2.009.446.441 1.41 1.207 1.596 1.412.187.205 2.133 1.731 2.41 3.897.277 2.165-.157 3.481 1.006 3.547.673.041 1.349-.051 1.987-.272 0 0-.066 4.302 2.024 5.327 1.508.833 2.881 1.891 4.071 3.137 0 0 .44 5.049 4.656 5.496 4.216.446 4.331.253 4.331.253.219-.399.391-.822.512-1.261.058-.482.22-.945.475-1.357.578-.678 1.047-1.441 1.392-2.262.53-1.261 2.325-5.629 2.325-5.629s2.017-4.789 2.102-5.019c.084-.229 1.355-3.185-.025-4.88zM396.274 585.259l-.451 2.413c-.061.314-.44.253-1.253.314-.813.06-3.891-.187-4.361 0-.47.187-1.656.38-1.807 1.206-.103.455-.103.927 0 1.382 0 0-3.764 2.515-3.951 2.793-.362.446-.61.974-.722 1.538 0 .537.499.82 1.096.82.596 0 3.138-.187 3.138-.187s-1.205 1.629-.536 2.1c.743.418 1.616.541 2.445.343 0 0-.97 1.104-.06 1.448.661.231 1.343.399 2.035.501 0 0-.373.724.94.784 1.313.06 2.132-1.255 2.728-1.568.633-.354 1.238-.758 1.807-1.207.44-.344 1.253-1.508 1.205-1.978-.028-.157-.087-.307-.174-.441-.086-.133-.198-.249-.329-.339-.131-.09-.278-.154-.434-.187-.156-.033-.316-.034-.472-.005 0 0-.5-1.007-1.127-.88-.28.027-.549.125-.783.283 0 0-2.788 2.262-3.451 2.606-.662.344-1.204.603-1.03.374.175-.229 2.705-2.075 2.705-2.624 0-.549-.121-1.629-1.38-1.255-1.259.374-1.566.754-2.566 1.207-.999.452-1.602.82-1.066.313.536-.506 1.205-.844.783-1.598-.421-.754-1.632-.603-2.132-.447-.5.157-1.963.278-1.879 0 .084-.277 3.289-2.189 3.289-2.189l9.468 6.37c.694-.407 1.306-.938 1.807-1.568.403-.724 1.807-.381 3.011-.881.355-.148.665-.385.901-.689.237-.303.391-.662.448-1.043 0 0-.235-7.558-.301-7.92-.066-.362-.777-.688-1.204-.7-.428-.012-2.765-.157-3.681-.066-.915.09-2.487.561-2.656.977z" fill="#EAC1AA"/><path d="M401.906 633.664s0 10.092.753 15.871 3.258 13.06 3.258 14.816c0 1.755.127 8.608.44 10.858s.686 5.152.873 6.533c.187 1.382.253 3.952.44 5.019.186 1.068 2.198 3.143 2.198 3.71 0 .567-.693 2.468-.693 4.024s1.566 2.63 1.506 3.384c-.06.754.187 6.28.374 7.975.186 1.695.192 4.959.692 6.401.492 1.544 1.131 3.037 1.91 4.458.497.984.819 2.047.951 3.143 0 0-.927-.501-.951 1.254-.025 1.756-.181 2.896 2.812 3.517 2.994.622 6.439-.181 6.999 0 .683.074 1.373.031 2.042-.126 0 0-.47-1.527.096-5.659s-1.204-5.954-1.584-7.945c-.379-1.99-1.289-12.957-1.5-14.779-.21-1.822-1.807-10.292-.241-10.925.741-.717 1.559-1.348 2.44-1.882.849-.374 6.095-3.155 8.691-4.253 2.424-1.113 4.938-2.015 7.517-2.697 2.451-.555 5.276-1.484 5.553-1.586.277-.103-.446-14.008-.319-14.569.126-.561 2.409-7.54 2.445-8.982.036-1.442-.458-6.437-.458-6.437l-2.319-10.761s-43.052-4.054-43.925-.362z" fill="#292834"/><path d="M425.853 664.321s-.343 4.144-.602 5.369c-.251 1.41-.04 2.864.602 4.144.657 1.206.47 4.524 0 5.556-.47 1.031.849 2.654-.138 3.294l2.565-1.34c-.353-.982-.631-1.991-.831-3.016-.06-.814.097-4.018-.217-5.616-.313-1.599-.909-4.151-.849-5.182.06-1.032-.427-4.066-.53-3.209z" fill="#CCDAF1"/><path d="M429.864 531.992s1.163-.851 1.723 0 3.295 3.487 3.011 3.861c0 0 2.223 1.037 3.355 1.037 1.133 0 2.132.187 2.253.441.12.253 2.409 1.629 5.83 3.076 3.421 1.448 5.27 2.637 5.897 3.451.626.814 1.313 1.448 2.005 2.449.693 1.002 2.319 7.034 3.012 8.729.692 1.695.56 5.586.747 7.468.186 1.882.253 6.636.566 7.728.313 1.092.939 3.517 1.204 4.898.265 1.382.687 5.586 1.44 6.401.753.814-3.614 3.722-3.614 3.722s-10.203 4.048-10.528 3.342c-.325-.706 4.276 26.03 1.518 34.445-2.759 8.416-5.644 7.909-6.084 8.349-.439.441-3.758 4.458-4.511 4.959-.753.501-2.819 1.605-3.951 1.605-1.132 0-4.981-1.038-6.86-1.038-1.879 0-9.221.187-9.408-.187-.187-.374-.09-5.918-.47-10.545-.379-4.627-1.692-13.567-1.879-14.701-.187-1.134-.566 9.797-1.204 12.343-.639 2.545-1.506 4.614-1.88 6.31-.373 1.695-.379 4.518-.945 6.309-.566 1.792-.277 3.481-.657 3.578-.379.096-2.409-.99-3.053-1.08-1.182-.435-2.2-1.225-2.916-2.262-.517-.941-2.445-3.107-2.963-3.3-.518-.193-.138-1.267 0-1.599.139-.331.097-2.684.518-4.144.552-2.222.882-4.493.988-6.78.138-2.637.422-5.985.47-6.926.048-.941.518-14.478.704-15.491.187-1.014-.379-11.86-.379-12.62v-.778c-.174-.204-.386-.372-.625-.493s-.499-.193-.766-.213c-.813 0-3.199-.066-3.445-.066-.247 0-2.012.313-2.572.88s-2.446-.187-2.638-.374c-.193-.187-.434-4.524-.434-6.28 0-1.755 1.066-4.651.753-7.974-.313-3.324-.506-8.916.373-13.272.88-4.355 1.753-7.034 2.506-8.102.753-1.067.819-2.509 1.259-3.203.439-.694 1.939-2.509 2.945-2.95 1.006-.44 3.698-1.447 4.264-1.809.867-.413 1.768-.75 2.692-1.008l6.023 6.407s-.12 4.711.067 5.779c.186 1.067 1.379 5.272 1.439 6.28.06 1.007.879 6.213 1.319 6.34.44.126 1.253-2.413 2.193-4.899.939-2.485 3.511-6.967 4.137-8.035.627-1.068.061-1.508 1.066-2.642 1.006-1.134 1.843-3.764 2.801-6.033.958-2.268 2.716-6.213 3.156-7.661.44-1.448.115-3.282-.452-3.722z" fill="#353538"/><path d="M432.5 563.5c-14.928-9.81-23.44-10.293-29-29.5" stroke="#A8C6BC" stroke-width=".5"/><path d="M413.91 526.69l-3.759 3.698v.506s-3.933-.603-5.077.441c0 0-.873.03-1.126 0-.253-.031-1.319-1.165-5.421-.881l1.921-2.546c-.036-.36-.144-.709-.319-1.025l-2.933 3.885s2.572 3.046 4.818 3.577c2.247.531 3.138.603 2.825-1.852l.247-.06s1.132 1.9 3.041 2.22c1.91.319 3.921.416 3.982-.604.06-1.019-1.157-2.576-1.157-2.576l4.349-4.934c-.46.081-.925.131-1.391.151z" fill="#211E21"/><path d="M457.305 582.665s-.325 4.567 0 5.888c.325 1.321.518 6.261.47 8.005-.088 2.923-.402 5.836-.94 8.711-.56 2.413-1.174 7.957-1.457 10.08-.283 2.123-.47 4.892-.518 6.4-.048 1.509-.843 4.428-.843 5.134 0 .706.843 3.722.939 4.428.059.855.184 1.704.374 2.54.192.428-.091 2.473-.091 2.708 0 .235.091 1.671.091 2.051l-.139 1.726c-.162.585-.382 1.153-.656 1.695-.067.253-.946 1.725-.868 2.177.079.453-1.078.055-.981-.796.055-.512.16-1.017.313-1.508-.262.421-.616.776-1.036 1.038-.753.5-1.09.313-1.09.313-.219.231-.507.385-.82.441-.399-.05-.778-.202-1.102-.441-.224.304-.393.645-.5 1.008-.106.274-.268.522-.475.73-.208.208-.456.37-.729.476-.313 0-1.127-.09-1.096-1.411.03-1.322.198-2.142-.091-2.413-.289-.272-.313-2.051-.349-2.269-.036-.217-.602 0-.91-.283-.307-.284-1.704-.253-2.168-.851-.464-.597-.602-2.853-.397-4.078.204-1.224.475-3.016.602-3.734.416-1.328.984-2.603 1.692-3.8.561-.941 1.205-.694 2.036-4.488.592-3.184.896-6.414.91-9.652 0-1.098.283-6.534-.097-8.886-.379-2.353-.53-14.038-.602-14.979.859-.326 1.67-.768 2.409-1.315 1.626-1.098 4.138-1.321 5.331-2.479 1.192-1.159 2.493-2.45 2.788-2.166z" fill="#EAC1AA"/><path d="M473.308 674.087c-.205-.235-3.319-.754-6.625-1.068-3.307-.313-11.661-.754-13.251-.5-1.59.253-7.089 2.322-8.841 2.95-1.753.627-5.331.941-9.469 2.823-4.137 1.882-8.082 3.39-10.407 5.025-2.325 1.635-3.259 2.262-3.192 3.831.066 1.568 1.204 9.73 1.439 13.687.235 3.958.602 9.544 1.319 10.798.717 1.255 1.626 3.831 1.5 5.212-.127 1.382-.687 6.721-.277 7.662.409.941 2.825 3.577 3.403 3.33 0 0 1.204 1.93 2.102 2.413.897.482 3.987 2.962 8.661 3.07 4.674.109 15.581-.139 18.273-1.019 2.693-.881 15.865-8.916 16.925-9.049 1.06-.133 2.825-1.207 3.078-2.323.253-1.116-.44-8.729-1.006-13-.566-4.271-1.807-8.348-1.807-9.29 0-.941-.187-5.525-.253-9.356-.066-3.831-1.253-7.287-1.313-7.788-.06-.501.241-6.841-.259-7.408zM445.602 639.364s-2.445.248-2.698 5.84c-.253 5.592-1.006 14.689-1.006 15.383 0 .693-1 15.569-1 16.516 0 .948-.566 12.868-.752 13.688-.187.821-.603 3.71-.603 3.71l2.187-.32s0-2.575-.44-3.42c-.44-.845-.187-7.758.253-8.572.44-.815 2.072-11.558 2.445-13.815.374-2.256.687-19.406 1.006-21.789.319-2.383.747-4.524 1.205-4.524l-.597-2.697zM450.927 643.635s-.127 6.527 0 10.732c.126 4.205 1.379 11.432 1.506 13.44.126 2.009.247 4.881.247 4.881l5.523-.248s-.44-3.378-.44-4.826c0-1.447-1.253-5.652-2.259-11.745-1.006-6.093-1.879-12.668-2.252-13.561-.374-.893-2.307.507-2.325 1.327z" fill="#A8C6BC"/><path d="M381.139 590.043c.247 0 6.023-.103 6.408 0 .241.066 7.228 4.651 7.228 4.651s-3.446 2.636-3.765 2.648c-.319.012 2.036-1.9 2.301-2.347.112-.169.172-.367.172-.57 0-.203-.06-.401-.172-.57-.205-.44-.662-.567-1.259-.362-.596.205-1.807.827-2.174 1.026-.367.199-1.554.603-1.554.603s1.205-.603.994-1.436c-.016-.131-.058-.257-.125-.371-.067-.114-.157-.212-.264-.29-.107-.077-.229-.131-.358-.158-.129-.028-.262-.028-.392-.001-.457 0-1.204.187-1.68.229-.655.048-1.313.058-1.969.03-1.217-.61-2.376-1.329-3.464-2.147-.054-.199-.144-.935.073-.935z" fill="#D6D4D4"/><path d="M398.533 522.147s-3.24-2.117-2.584-5.321c.657-3.203-.048-3.812.47-4.826.518-1.013 3.246-2.732 4.216-4.222.97-1.49 2.168-1.273 2.68-2.262.512-.99 2.259-2.305 3.53-2.305s3.613.332 4.372 0c.759-.332 4.512-.38 5.451 0 .94.38 1.271 2.069 1.271 2.069.891-.073 1.786.064 2.614.402.827.337 1.564.865 2.15 1.541 1.928 2.256 2.584 2.775 3.012 2.919.427.145 1.204.942.849 3.716-.355 2.775-.566 7.68-.283 9.091.283 1.412.235 1.81 0 1.955l-.259.139s-.054-.049-.343.09l-1.416.64s.042-.712 0-1.527c-.01-.671-.084-1.339-.223-1.996-.108-.429-.283-1.207-.674-1.448-.339-.12-.709-.12-1.048-.002-.339.118-.628.349-.819.653-.422.724-.741 1.484-.994 1.81-.253.326-1.139 1.508-1.301 1.81-.141.796-.016 1.616.355 2.334.486.61.925 1.255 1.313 1.931.055.216.158.417.301.588.143.171.322.308.524.401.35.115 1.362.235 1.645.603.283.368 1.036.169 1.204.447.169.277-.325.826-.186 1.206.172.606.313 1.22.421 1.84.121.543-.47.965-.211 1.575.259.609.892.518.94.874.048.356-.446 1.038-.657 1.436-.21.398.139 1.104.097 1.671-.042.567-.753.802-.964 1.207-.211.404-.705.096-1.132 1.176-.131.415-.377.785-.71 1.065-.333.28-.738.459-1.169.515-.317.087-.612.236-.871.438-.258.202-.474.453-.635.739-.131.174-.305.311-.504.397-.2.087-.418.121-.634.097-.506 0-1.446.121-1.518.399-.073.277.144.392-.868.645-.683.218-1.384.374-2.096.465-.445 0-1.174-.682-1.457-.706-.283-.024-1-.121-1.096-.404-.097-.284-1.205-.821-1.301-1.08-.248-.443-.556-.849-.916-1.207-.235-.211-1.084-.965-1.084-1.152 0-.187.042-1.749 0-2.003-.042-.253-.47-.639-.47-.85 0-.211-.891-.115-1.054-.284-.162-.169.44-.971.603-.995.162-.024.602-.603.758-.766.265-.289.624-.473 1.012-.519.195-.023.382-.085.552-.183.17-.097.318-.228.436-.384.163-.187.325.603.753.603s1.03-.47 1.409-.47c.38 0 .753-.38 1.036.235.283.615.988.422 1.205.706.217.283.656.989.891 1.206.235.217.844.326.844-.145 0-.47.144-1.55.379-1.502.235.049 0-.663.283-.899.283-.235.422-1.272.705-1.55.283-.277.186-2.075.47-2.413.283-.338.843-1.134.801-1.556-.043-.423-.193-.803-.049-.893.145-.091-1.132-1.418-1.457-2.027-.325-.609-.705-.802-.705-1.605 0 0-4.818 1.599-5.74-1.206-.921-2.805-.199-5.031-.759-5.285-.56-.253-2.053-.959-3.613.773-1.56 1.731-2.458 3.016-3.849 3.118-1.391.103-2.915.163-3.903-1.532z" fill="#805232"/><path d="M415.409 526.617l-4.3 4.826s.313.44.385.603c.216.349.403.714.56 1.092.109.286.168.588.175.893 0 0 .639-.121 0-1.81-.16-.341-.193-.728-.092-1.091.1-.363.328-.678.64-.887l3.078-3.704-.446.078zM405.2 532.782c.12.449.185.911.193 1.376-.12.347-.267.683-.44 1.007-.022-.277-.077-.55-.162-.814.167-.253.246-.554.223-.857 0-.549-.049-.911-.049-.911h.073l.162.199z" fill="#E1AE98"/><path d="M384.397 593.234s.464.036 1.144 0c.54.012 1.079-.032 1.608-.133.507-.119 1.029-.159 1.548-.12.247.184.427.445.512.742.016.158-.009.318-.071.464-.062.147-.16.275-.284.374-.213.131-.415.281-.602.446 0 0-.097.29.084.212.747-.269 1.478-.583 2.186-.941.55-.332 1.141-.588 1.759-.761-.48.038-.953.135-1.409.29-.603.235-1.596.76-1.205.284.392-.477 0-1.533-1.277-1.358-1.277.175-3.529.489-3.993.501zM394.437 595.116s-2.957 2.238-3.385 2.335c-.427.096 0-.477.362-.767.361-.289 1.807-1.55 1.903-1.9-.115.53-.425.997-.867 1.309-.777.603-1.109 1.014-.663.724.446-.289 2.65-1.701 2.65-1.701z" fill="#C1BFBD"/><path d="M445.723 639.364s-.121-2.377-.121-2.648c0-.271-.216-1.876-.686-2.148-.47-.271-.771.163-.934.742-.162.58.633 1.406.301 1.901-.331.494 1.428.669 1.44 2.153z" fill="#E1AE98"/><circle cx="423" cy="523" r="1" fill="#A8C6BC"/><rect x="423" y="523" width="1" height="2" rx=".5" fill="#A8C6BC"/><path d="M423.5 525c1.334 5.167 4.855 15.21 5.5 16.5 3 6 2.834 15 3.5 22m0 0c1.334 10.333 7.5 29.5 32.5 33 27.681 3.875 18 24.75 16.5 27-4 6-35.5 40-36 68 0 10 11.4 23.5 51 21.5 16.5-.5 52.5-2.6 82.5 11 26.834 12.5 83.625 31 93 11.5 10-20.8-35.166-41.333-59-49-22-8.5-36.527-21.093-39.5-47-3.5-30.5 6-68.5 10-79.5 12.812-46.248 25.689-95.473-21.5-123-10.333-4.833-32.1-10.8-36.5 4-4.4 14.8 29.5 11.5 47 8 10.834-2.667 36.7-11.5 53.5-25.5 21-17.5 51-34.5 78-115 21.6-64.4-18.333-144.5-41-176.5-19.833-27.167-72.1-85.7-122.5-102.5-63-21-155.123-51.958-247 0-72.5 41-109 120.333-116 157.5-4 20.167-7.752 63.457 10.5 64.5 17.5 1 16.167-48.667 13-75-5.667-27.667-29.2-85.3-78-94.5-61-11.5-210.5 112-51 277.5 17 19 58.5 62.2 88.5 83 37.5 26 55 78.569 55 93 0 4.5 2 34-17 42-5 1.5-17.7 1.1-28.5-12.5-13.5-17-51-40.5-90.5-18s-81 113 0 189.5c64.8 61.2 119 54 174 57 55.5 5.5 50.006 13.395 91.5 40.5 62 40.5 163.366-22.089 171-26.5 22.5-13 59.793-38.19 80.5-37.5 15 .5 24 7.5 40.5 26s23.5 46 76 29c39.667-11.167 81-27.042 137.5-28 19.667-.333 59.1-1 59.5-1 .5 0 29-2 42-10.5 8.5-5.558-22.5 23.5-2 48.5 9.43 11.5 26.7 24.4 73.5 4 21-9.833 36.5-43.5 74.5-25.5 12.01 5.689 22.5 9.5 28.5 10.5 35.31 5.885 87-27 118-15.5s85.5 53 177.5 38.5c64.5-10.166 68-37 105-15.5s116.5 55.5 162.5 30c36.8-20.4 95.33-11.833 120-5m-1377-292c-6.333-4.5-17.739-9.799-21.5-14.5-4-5-5.833-10.333-7.5-15" stroke="#fff"/></svg>