
<svg xmlns="http://www.w3.org/2000/svg" viewBox="0 0 108.29 250.95" style="enable-background:new 0 0 108.29 250.95;" xml:space="preserve">
<style type="text/css">
	.st0{fill:#211E21;}
	.st1{fill:#FFFFFF;}
	.st2{fill:#2C2B30;}
	.st3{fill:#EAC1AA;}
	.st4{fill:#292834;}
	.st5{fill:#CCDAF1;}
	.st6{fill:#353538;}
	.st7{fill:#A8C6BC;}
	.st8{fill:#D6D4D4;}
	.st9{fill:#805232;}
</style>
<path class="st0" d="M43.03,227.67c0.64,0.64,1.46,1.06,2.35,1.21c1.27,0.1,2.31,0.05,2.36,1.36c0.05,1.32,0.33,2.26,1.17,2.92
	c0.85,0.66,3.99,0.85,4.61,0c0.61-0.85,1.64-2.07,1.64-2.07c0.2,0.22,0.34,0.48,0.42,0.77c0.07,0.29,0.08,0.59,0.01,0.88
	c-0.23,0.99-0.56,7.02-0.56,7.02c-1.9-0.05-3.81,0.06-5.69,0.33c-2.16,0.42-7.71,0.71-10.77,1.18c-3.06,0.47-8.84,1.04-11.7,0.57
	s-4.28-0.99-3.11-1.65c1.17-0.66,6.3-2.12,7.95-2.78C33.35,236.75,42.54,229.42,43.03,227.67L43.03,227.67z M58.29,231.38
	c0,0-2.45-0.6-2.73,0.55c-0.45,2.84-0.75,5.71-0.89,8.58c0.05,1.04,0.07,1.88-0.78,2.82s-0.86,3.11,0.64,3.48
	c1.51,0.37,5.55,0.38,8.37-0.23c2.82-0.62,4.89-1.18,4.89-2.59c0-1.41-1.27-3.57-1.69-4.83c-0.27-0.91-0.16-1.9,0.28-2.74
	c0.19-0.47,0.28-1.93,0-2.12c-0.28-0.19-0.75,0.33-3.81-0.57C59.52,232.85,58.29,231.38,58.29,231.38z"/>
<path class="st1" d="M66.15,236.97c0,0-0.3-0.68-0.7-0.65c-0.4,0.03-0.54,1.32-0.82,1.81s0,1.44,0,2.51c0,1.07-0.37,1.16-1.03,1.13
	c-0.02,0.19,0.02,0.38,0.11,0.55c0.09,0.17,0.22,0.31,0.39,0.4c0.57,0.31,1.57,0.08,1.57-0.26c-0.06-1.26-0.06-2.51,0-3.77
	c0.13-1.07,0.31-0.97,0.31-0.97L66.15,236.97L66.15,236.97z M62.34,242.02c0,0-3.45-0.9-4.89-0.65c0,0-0.66-0.84,0-0.89
	c0.66-0.05,4.32,0.32,4.7,0.77C62.52,241.7,62.34,242.02,62.34,242.02L62.34,242.02z M62.08,239.6c0,0-3.27-0.6-4.64-0.45
	c0,0-0.6-0.6,0-0.6c0.6,0,4.11,0.22,4.46,0.53C62.25,239.38,62.08,239.6,62.08,239.6z M62.06,238.14c0,0-3.09-0.6-4.38-0.45
	c0,0-0.6-0.6,0-0.6c0.6,0,3.88,0.22,4.22,0.53C62.23,237.93,62.06,238.14,62.06,238.14z M61.84,236.97c0,0-2.73-0.6-3.88-0.45
	c0,0-0.52-0.6,0-0.6s3.44,0.22,3.73,0.53S61.84,236.97,61.84,236.97L61.84,236.97z M61.46,235.91c0,0-2.51-0.6-3.57-0.45
	c0,0-0.48-0.6,0-0.6c0.48,0,3.16,0.22,3.43,0.53C61.59,235.71,61.46,235.91,61.46,235.91z M62.15,240.49c0,0-3.97-0.57-4.99-0.43
	c0,0-0.51-0.44,0.39-0.46C58.43,239.58,62.15,239.71,62.15,240.49z M58.63,231.67c-0.93,0.03-1.83,0.32-2.6,0.84
	s-1.39,1.24-1.77,2.09c-1.37,2.96-0.78,4.83,0.25,4.47c1.04-0.36,0.72-2.09,2.05-3.16c1.17-1.04,2.26-2.18,3.25-3.4
	c0,0,1.64,1.28,1.69,1.85c0.05,0.57-0.72,4.53,0.6,5.09s2.41-0.39,1.92-1.85c-0.49-1.46-1.65-3.96-1.65-3.96l-0.89-0.31
	c0,0,1.36,2.35,1.6,3.62c0.23,1.27-0.14,2.59-0.42,1.56c-0.28-1.03,0.23-3.67-1.39-5.28c-0.59-0.24-1.16-0.53-1.69-0.87
	c-0.64-0.45-2.37,1.93-3.07,2.73c-0.7,0.8-1.7,3.06-2.01,2.5c-0.3-0.56-0.1-2.64,0.88-3.39c0.98-0.75,3.61-2.26,3.61-2.26
	L58.63,231.67L58.63,231.67z M36.4,237.32c0,0-1.41,1.11-1.2,1.21c0.53,0.38,1.13,0.63,1.77,0.73c0.64,0.1,1.29,0.06,1.91-0.13
	c2.14-0.6,6.75-2.96,7.74-2.8c0.99,0.16,2.26,1.09,4.19,1.28c1.38,0.1,2.76,0.05,4.13-0.15l0.33-2.61c-0.23,0.48-0.6,0.88-1.07,1.14
	s-1,0.37-1.53,0.32c-1.93-0.17-4.75-0.89-5.64-1.47s-2.07,0.18-2.87,0.53s-3.89,2.08-4.67,2.23S36.71,237.84,36.4,237.32
	L36.4,237.32z M34.64,237.08c0,0-1.37-0.54-2.16-0.1c0,0,0.37-1.07,1.32-0.91C34.74,236.24,35.49,236.59,34.64,237.08z
	 M34.73,235.38c0,0,1.56,0.64,1.65,0.94c0.09,0.3,0.28-0.88,0-1.21C36.1,234.79,34.76,234.39,34.73,235.38z M36.06,234.35
	c0,0,1.26,0.44,1.45,1.21c0.19,0.77,0.7-0.69,0.33-0.93C37.46,234.39,36.65,232.99,36.06,234.35z M38.89,231.78
	c0,0,1.26,0.44,1.45,1.21c0.19,0.77,0.7-0.7,0.33-0.93C40.29,231.83,39.48,230.42,38.89,231.78z M40.36,230.54
	c0,0,1.26,0.45,1.45,1.21c0.19,0.76,0.7-0.7,0.33-0.93C41.77,230.59,40.95,229.18,40.36,230.54L40.36,230.54z M37.3,233.36
	c0,0,1.52,0.14,1.6,1.27c0,0,0.89-0.96,0.6-1.27c-0.4-0.42-0.92-0.72-1.49-0.84C37.52,232.52,37.27,233.19,37.3,233.36z
	 M42.42,228.58c0,0,1.2,0.32,1.2,0.84s0.14,4.48,0,5.65c-0.09,1.15-0.12,2.31-0.1,3.47h-0.28c0,0,0.42-2.45,0.05-3.76
	c-0.37-1.31-0.76-5.22-0.6-5.65c0.16-0.42-0.56,0.55-0.84,0.13c-0.05-0.08-0.11-0.04-0.17,0.1c-0.3,1.26-0.42,2.55-0.35,3.85
	c0.1,1.57-0.87,3.39-1.84,3.23c-0.97-0.16-2.16-2.54,1.65-6.46c0,0-2.48,4.7-1.98,5.11c0.5,0.41,1.45-0.19,1.67-1.1
	c0.22-0.91,0.51-4.22,0.51-4.22s0.31-1.98-0.51-2.02c-1.25-0.04-2.48,0.31-3.51,1.01c-1.26,0.88-1.98,2.16-1.42,2.67
	c0.39,0.28,0.85,0.42,1.33,0.42s0.94-0.15,1.33-0.42c0.79-0.6,1.7-2.38,2.04-2.1c0.16,0.11,0.29,0.25,0.4,0.4l0.19-0.16
	c0,0-0.47-0.78-0.98-0.56s-0.91,1.36-1.94,1.9s-2.48,1.03-2.33,0c0.15-1.03,1.4-1.68,2.04-2.03c0.7-0.41,1.45-0.73,2.23-0.94
	c0.28,0.03,0.99,1.81,0.99,1.81S41.78,228.68,42.42,228.58L42.42,228.58z M23.32,240.49c0,0-1.2,0.46-1.37,1.13
	c-0.16,0.66-0.6,2.07,1.37,2.78c1.97,0.71,5.97,1.7,9.68,1.13c3.71-0.56,7.41-1.37,10.69-1.56c3.28-0.19,9.89-0.69,10.53-1.09
	c0.64-0.39,1.28-2.41,0.78-3.11c-1.19-0.13-2.39-0.1-3.57,0.08c-2.32,0.29-5.79,0.7-7.15,0.82c-1.37,0.12-5.48,0.51-7.75,0.94
	c-2.98,0.44-5.99,0.55-8.99,0.33C25.82,241.67,23.15,241.14,23.32,240.49L23.32,240.49z M53.31,245.19
	c-0.22,0.6-0.34,1.22-0.38,1.86c0.05,0.64-0.52,3.89,3.29,3.89c3.81,0,8.79,0.28,10.39-1.81s1.41-3.44,1.17-5.75
	c0,0,0.43,1.34-1.25,2.1c-1.64,0.67-3.36,1.11-5.11,1.31c-1.67,0.18-3.35,0.25-5.04,0.21C55.33,246.93,53.42,247.14,53.31,245.19
	L53.31,245.19z"/>
<path class="st2" d="M43.18,225.58l-0.16,2.09c0,0,6.3,13.52,12.13,3.44v-4.33c0,0-1.5-1.98-5.42-1.81
	C47.53,225.03,45.34,225.23,43.18,225.58L43.18,225.58z"/>
<path class="st3" d="M56.57,32.94c-1.64-2.13-2.99-4.48-4.01-6.97c0,0-1.13,0.66-1.41,0.33c-0.28-0.33-0.13-1.74-0.25-2.3
	c-0.13-0.56-0.32-2.24-1.1-2.36c-0.4,0-0.78,0.11-1.11,0.33s-0.6,0.52-0.76,0.88c-0.45,0.92-0.87,1.97-1.53,2.08
	c-2.78,0.43-8.37-3.67-10.34-4.43c-1.98-0.75-3.58,1.56-4.89,3.02c-1.31,1.46-4.66,1.98-5.93-0.38c0.18,1.04,0.43,2.06,0.75,3.07
	c0.42,0.76,0.79,1.55,1.11,2.35c0.09,0.5,0.16,1.57,0.6,2.01c0.45,0.44,1.41,1.21,1.6,1.41c0.19,0.21,2.13,1.73,2.41,3.9
	c0.28,2.16-0.16,3.48,1.01,3.55c0.67,0.04,1.35-0.05,1.99-0.27c0,0-0.07,4.3,2.02,5.33c1.51,0.83,2.88,1.89,4.07,3.14
	c0,0,0.44,5.05,4.66,5.5c4.22,0.45,4.33,0.25,4.33,0.25c0.22-0.4,0.39-0.82,0.51-1.26c0.06-0.48,0.22-0.95,0.48-1.36
	c0.58-0.68,1.05-1.44,1.39-2.26c0.53-1.26,2.33-5.63,2.33-5.63s2.02-4.79,2.1-5.02C56.68,37.59,57.95,34.64,56.57,32.94L56.57,32.94
	z M22.98,86.21l-0.45,2.41c-0.06,0.31-0.44,0.25-1.25,0.31c-0.81,0.06-3.89-0.19-4.36,0s-1.66,0.38-1.81,1.21
	c-0.1,0.46-0.1,0.93,0,1.38c0,0-3.76,2.52-3.95,2.79c-0.36,0.45-0.61,0.97-0.72,1.54c0,0.54,0.5,0.82,1.1,0.82
	c0.6,0,3.14-0.19,3.14-0.19s-1.2,1.63-0.54,2.1c0.74,0.42,1.62,0.54,2.45,0.34c0,0-0.97,1.1-0.06,1.45c0.66,0.23,1.34,0.4,2.04,0.5
	c0,0-0.37,0.72,0.94,0.78s2.13-1.26,2.73-1.57c0.63-0.35,1.24-0.76,1.81-1.21c0.44-0.34,1.25-1.51,1.2-1.98
	c-0.03-0.16-0.09-0.31-0.17-0.44c-0.09-0.13-0.2-0.25-0.33-0.34c-0.13-0.09-0.28-0.15-0.43-0.19c-0.16-0.03-0.32-0.03-0.47-0.01
	c0,0-0.5-1.01-1.13-0.88c-0.28,0.03-0.55,0.12-0.78,0.28c0,0-2.79,2.26-3.45,2.61c-0.66,0.34-1.2,0.6-1.03,0.37
	c0.17-0.23,2.7-2.08,2.7-2.62s-0.12-1.63-1.38-1.26s-1.57,0.75-2.57,1.21c-1,0.45-1.6,0.82-1.07,0.31c0.54-0.51,1.2-0.84,0.78-1.6
	c-0.42-0.75-1.63-0.6-2.13-0.45c-0.5,0.16-1.96,0.28-1.88,0c0.08-0.28,3.29-2.19,3.29-2.19l9.47,6.37c0.69-0.41,1.31-0.94,1.81-1.57
	c0.4-0.72,1.81-0.38,3.01-0.88c0.36-0.15,0.67-0.39,0.9-0.69c0.24-0.3,0.39-0.66,0.45-1.04c0,0-0.23-7.56-0.3-7.92
	s-0.78-0.69-1.2-0.7c-0.43-0.01-2.77-0.16-3.68-0.07C24.72,85.32,23.15,85.79,22.98,86.21z"/>
<path class="st4" d="M28.61,134.62c0,0,0,10.09,0.75,15.87s3.26,13.06,3.26,14.82c0,1.76,0.13,8.61,0.44,10.86s0.69,5.15,0.87,6.53
	c0.19,1.38,0.25,3.95,0.44,5.02c0.19,1.07,2.2,3.14,2.2,3.71s-0.69,2.47-0.69,4.02s1.57,2.63,1.51,3.38
	c-0.06,0.75,0.19,6.28,0.37,7.97c0.19,1.7,0.19,4.96,0.69,6.4c0.49,1.54,1.13,3.04,1.91,4.46c0.5,0.98,0.82,2.05,0.95,3.14
	c0,0-0.93-0.5-0.95,1.25c-0.02,1.76-0.18,2.9,2.81,3.52c2.99,0.62,6.44-0.18,7,0c0.68,0.07,1.37,0.03,2.04-0.13
	c0,0-0.47-1.53,0.1-5.66s-1.2-5.95-1.58-7.95c-0.38-1.99-1.29-12.96-1.5-14.78c-0.21-1.82-1.81-10.29-0.24-10.92
	c0.74-0.72,1.56-1.35,2.44-1.88c0.85-0.37,6.1-3.16,8.69-4.25c2.42-1.11,4.94-2.02,7.52-2.7c2.45-0.55,5.28-1.48,5.55-1.59
	c0.28-0.1-0.45-14.01-0.32-14.57c0.13-0.56,2.41-7.54,2.45-8.98s-0.46-6.44-0.46-6.44l-2.32-10.76
	C72.54,134.98,29.49,130.92,28.61,134.62L28.61,134.62z"/>
<path class="st5" d="M52.56,165.27c0,0-0.34,4.14-0.6,5.37c-0.25,1.41-0.04,2.86,0.6,4.14c0.66,1.21,0.47,4.52,0,5.56
	c-0.47,1.03,0.85,2.65-0.14,3.29l2.57-1.34c-0.35-0.98-0.63-1.99-0.83-3.02c-0.06-0.81,0.1-4.02-0.22-5.62
	c-0.31-1.6-0.91-4.15-0.85-5.18C53.15,167.45,52.66,164.42,52.56,165.27z"/>
<path class="st6" d="M56.57,32.94c0,0,1.16-0.85,1.72,0s3.3,3.49,3.01,3.86c0,0,2.22,1.04,3.36,1.04c1.13,0,2.13,0.19,2.25,0.44
	c0.12,0.25,2.41,1.63,5.83,3.08c3.42,1.45,5.27,2.64,5.9,3.45c0.63,0.81,1.31,1.45,2.01,2.45c0.69,1,2.32,7.03,3.01,8.73
	c0.69,1.7,0.56,5.59,0.75,7.47c0.19,1.88,0.25,6.64,0.57,7.73c0.31,1.09,0.94,3.52,1.2,4.9c0.27,1.38,0.69,5.59,1.44,6.4
	C88.37,83.3,84,86.2,84,86.2s-10.2,4.05-10.53,3.34c-0.33-0.71,4.28,26.03,1.52,34.45c-2.76,8.42-5.64,7.91-6.08,8.35
	c-0.44,0.44-3.76,4.46-4.51,4.96c-0.75,0.5-2.82,1.6-3.95,1.6s-4.98-1.04-6.86-1.04s-9.22,0.19-9.41-0.19
	c-0.19-0.37-0.09-5.92-0.47-10.54c-0.38-4.63-1.69-13.57-1.88-14.7s-0.57,9.8-1.2,12.34c-0.64,2.54-1.51,4.61-1.88,6.31
	c-0.37,1.7-0.38,4.52-0.95,6.31c-0.57,1.79-0.28,3.48-0.66,3.58c-0.38,0.1-2.41-0.99-3.05-1.08c-1.18-0.43-2.2-1.22-2.92-2.26
	c-0.52-0.94-2.45-3.11-2.96-3.3s-0.14-1.27,0-1.6c0.14-0.33,0.1-2.68,0.52-4.14c0.55-2.22,0.88-4.49,0.99-6.78
	c0.14-2.64,0.42-5.98,0.47-6.93c0.05-0.94,0.52-14.48,0.7-15.49c0.19-1.01-0.38-11.86-0.38-12.62v-0.78
	c-0.17-0.2-0.39-0.37-0.62-0.49s-0.5-0.19-0.77-0.21c-0.81,0-3.2-0.07-3.45-0.07c-0.25,0-2.01,0.31-2.57,0.88s-2.45-0.19-2.64-0.37
	c-0.19-0.19-0.43-4.52-0.43-6.28c0-1.76,1.07-4.65,0.75-7.97c-0.31-3.32-0.51-8.92,0.37-13.27c0.88-4.35,1.75-7.03,2.51-8.1
	c0.75-1.07,0.82-2.51,1.26-3.2c0.44-0.69,1.94-2.51,2.95-2.95c1.01-0.44,3.7-1.45,4.26-1.81c0.87-0.41,1.77-0.75,2.69-1.01
	l6.02,6.41c0,0-0.12,4.71,0.07,5.78c0.19,1.07,1.38,5.27,1.44,6.28c0.06,1.01,0.88,6.21,1.32,6.34c0.44,0.13,1.25-2.41,2.19-4.9
	C46.8,58.55,49.37,54.07,50,53c0.63-1.07,0.06-1.51,1.07-2.64c1.01-1.13,1.84-3.76,2.8-6.03c0.96-2.27,2.72-6.21,3.16-7.66
	S57.14,33.38,56.57,32.94L56.57,32.94z"/>
<path class="st0" d="M40.62,27.64l-3.76,3.7v0.51c0,0-3.93-0.6-5.08,0.44c0,0-0.87,0.03-1.13,0c-0.25-0.03-1.32-1.16-5.42-0.88
	l1.92-2.55c-0.04-0.36-0.14-0.71-0.32-1.03l-2.93,3.89c0,0,2.57,3.05,4.82,3.58c2.25,0.53,3.14,0.6,2.83-1.85l0.25-0.06
	c0,0,1.13,1.9,3.04,2.22c1.91,0.32,3.92,0.42,3.98-0.6c0.06-1.02-1.16-2.58-1.16-2.58l4.35-4.93
	C41.55,27.57,41.08,27.62,40.62,27.64L40.62,27.64z"/>
<path class="st3" d="M84.01,83.62c0,0-0.33,4.57,0,5.89s0.52,6.26,0.47,8.01c-0.09,2.92-0.4,5.84-0.94,8.71
	c-0.56,2.41-1.17,7.96-1.46,10.08c-0.28,2.12-0.47,4.89-0.52,6.4c-0.05,1.51-0.84,4.43-0.84,5.13s0.84,3.72,0.94,4.43
	c0.06,0.85,0.18,1.7,0.37,2.54c0.19,0.43-0.09,2.47-0.09,2.71s0.09,1.67,0.09,2.05l-0.14,1.73c-0.16,0.59-0.38,1.15-0.66,1.7
	c-0.07,0.25-0.95,1.72-0.87,2.18c0.08,0.45-1.08,0.05-0.98-0.8c0.05-0.51,0.16-1.02,0.31-1.51c-0.26,0.42-0.62,0.78-1.04,1.04
	c-0.75,0.5-1.09,0.31-1.09,0.31c-0.22,0.23-0.51,0.39-0.82,0.44c-0.4-0.05-0.78-0.2-1.1-0.44c-0.22,0.3-0.39,0.65-0.5,1.01
	c-0.11,0.27-0.27,0.52-0.48,0.73c-0.21,0.21-0.46,0.37-0.73,0.48c-0.31,0-1.13-0.09-1.1-1.41c0.03-1.32,0.2-2.14-0.09-2.41
	c-0.29-0.27-0.31-2.05-0.35-2.27c-0.04-0.22-0.6,0-0.91-0.28c-0.31-0.28-1.7-0.25-2.17-0.85c-0.46-0.6-0.6-2.85-0.4-4.08
	c0.2-1.22,0.48-3.02,0.6-3.73c0.42-1.33,0.98-2.6,1.69-3.8c0.56-0.94,1.2-0.69,2.04-4.49c0.59-3.18,0.9-6.41,0.91-9.65
	c0-1.1,0.28-6.53-0.1-8.89c-0.38-2.35-0.53-14.04-0.6-14.98c0.86-0.33,1.67-0.77,2.41-1.32c1.63-1.1,4.14-1.32,5.33-2.48
	C82.42,84.62,83.72,83.33,84.01,83.62L84.01,83.62z"/>
<path class="st7" d="M100.02,175.04c-0.2-0.23-3.32-0.75-6.62-1.07c-3.31-0.31-11.66-0.75-13.25-0.5c-1.59,0.25-7.09,2.32-8.84,2.95
	c-1.75,0.63-5.33,0.94-9.47,2.82c-4.14,1.88-8.08,3.39-10.41,5.03s-3.26,2.26-3.19,3.83c0.07,1.57,1.2,9.73,1.44,13.69
	c0.23,3.96,0.6,9.54,1.32,10.8c0.72,1.26,1.63,3.83,1.5,5.21c-0.13,1.38-0.69,6.72-0.28,7.66c0.41,0.94,2.83,3.58,3.4,3.33
	c0,0,1.2,1.93,2.1,2.41c0.9,0.48,3.99,2.96,8.66,3.07c4.67,0.11,15.58-0.14,18.27-1.02c2.69-0.88,15.86-8.92,16.92-9.05
	s2.83-1.21,3.08-2.32s-0.44-8.73-1.01-13s-1.81-8.35-1.81-9.29c0-0.94-0.19-5.53-0.25-9.36c-0.07-3.83-1.25-7.29-1.31-7.79
	C100.21,181.95,100.52,175.61,100.02,175.04z M72.31,140.32c0,0-2.45,0.25-2.7,5.84c-0.25,5.59-1.01,14.69-1.01,15.38
	c0,0.69-1,15.57-1,16.52c0,0.95-0.57,12.87-0.75,13.69c-0.19,0.82-0.6,3.71-0.6,3.71l2.19-0.32c0,0,0-2.58-0.44-3.42
	s-0.19-7.76,0.25-8.57c0.44-0.82,2.07-11.56,2.45-13.82c0.37-2.26,0.69-19.41,1.01-21.79s0.75-4.52,1.2-4.52L72.31,140.32z
	 M77.63,144.59c0,0-0.13,6.53,0,10.73c0.13,4.21,1.38,11.43,1.51,13.44c0.13,2.01,0.25,4.88,0.25,4.88l5.52-0.25
	c0,0-0.44-3.38-0.44-4.83c0-1.45-1.25-5.65-2.26-11.74s-1.88-12.67-2.25-13.56C79.59,142.37,77.65,143.77,77.63,144.59L77.63,144.59
	z"/>
<path class="st8" d="M7.85,90.99c0.25,0,6.02-0.1,6.41,0c0.24,0.07,7.23,4.65,7.23,4.65s-3.45,2.64-3.77,2.65s2.04-1.9,2.3-2.35
	c0.11-0.17,0.17-0.37,0.17-0.57s-0.06-0.4-0.17-0.57c-0.2-0.44-0.66-0.57-1.26-0.36c-0.6,0.21-1.81,0.83-2.17,1.03
	s-1.55,0.6-1.55,0.6s1.2-0.6,0.99-1.44c-0.02-0.13-0.06-0.26-0.12-0.37c-0.07-0.11-0.16-0.21-0.26-0.29
	c-0.11-0.08-0.23-0.13-0.36-0.16c-0.13-0.03-0.26-0.03-0.39,0c-0.46,0-1.2,0.19-1.68,0.23c-0.65,0.05-1.31,0.06-1.97,0.03
	c-1.22-0.61-2.38-1.33-3.46-2.15C7.72,91.73,7.63,90.99,7.85,90.99L7.85,90.99z"/>
<path class="st9" d="M25.24,23.1c0,0-3.24-2.12-2.58-5.32c0.66-3.2-0.05-3.81,0.47-4.83c0.52-1.01,3.25-2.73,4.22-4.22
	s2.17-1.27,2.68-2.26c0.51-0.99,2.26-2.3,3.53-2.3s3.61,0.33,4.37,0s4.51-0.38,5.45,0c0.94,0.38,1.27,2.07,1.27,2.07
	c0.89-0.07,1.79,0.06,2.61,0.4c0.83,0.34,1.56,0.86,2.15,1.54c1.93,2.26,2.58,2.77,3.01,2.92c0.43,0.14,1.2,0.94,0.85,3.72
	c-0.36,2.78-0.57,7.68-0.28,9.09c0.28,1.41,0.23,1.81,0,1.96l-0.26,0.14c0,0-0.05-0.05-0.34,0.09l-1.42,0.64c0,0,0.04-0.71,0-1.53
	c-0.01-0.67-0.08-1.34-0.22-2c-0.11-0.43-0.28-1.21-0.67-1.45c-0.34-0.12-0.71-0.12-1.05,0s-0.63,0.35-0.82,0.65
	c-0.42,0.72-0.74,1.48-0.99,1.81s-1.14,1.51-1.3,1.81c-0.14,0.8-0.02,1.62,0.36,2.33c0.49,0.61,0.92,1.26,1.31,1.93
	c0.05,0.22,0.16,0.42,0.3,0.59s0.32,0.31,0.52,0.4c0.35,0.11,1.36,0.23,1.64,0.6c0.28,0.37,1.04,0.17,1.2,0.45
	c0.17,0.28-0.33,0.83-0.19,1.21c0.17,0.61,0.31,1.22,0.42,1.84c0.12,0.54-0.47,0.97-0.21,1.58c0.26,0.61,0.89,0.52,0.94,0.87
	s-0.45,1.04-0.66,1.44c-0.21,0.4,0.14,1.1,0.1,1.67c-0.04,0.57-0.75,0.8-0.96,1.21c-0.21,0.4-0.7,0.1-1.13,1.18
	c-0.13,0.41-0.38,0.78-0.71,1.07c-0.33,0.28-0.74,0.46-1.17,0.52c-0.32,0.09-0.61,0.24-0.87,0.44c-0.26,0.2-0.47,0.45-0.64,0.74
	c-0.13,0.17-0.3,0.31-0.5,0.4c-0.2,0.09-0.42,0.12-0.63,0.1c-0.51,0-1.45,0.12-1.52,0.4c-0.07,0.28,0.14,0.39-0.87,0.65
	c-0.68,0.22-1.38,0.37-2.1,0.47c-0.45,0-1.17-0.68-1.46-0.71s-1-0.12-1.1-0.4c-0.1-0.28-1.2-0.82-1.3-1.08
	c-0.25-0.44-0.56-0.85-0.92-1.21c-0.23-0.21-1.08-0.97-1.08-1.15c0-0.19,0.04-1.75,0-2c-0.04-0.25-0.47-0.64-0.47-0.85
	s-0.89-0.11-1.05-0.28c-0.16-0.17,0.44-0.97,0.6-0.99c0.16-0.02,0.6-0.6,0.76-0.77c0.27-0.29,0.62-0.47,1.01-0.52
	c0.2-0.02,0.38-0.09,0.55-0.18c0.17-0.1,0.32-0.23,0.44-0.38c0.16-0.19,0.33,0.6,0.75,0.6s1.03-0.47,1.41-0.47
	c0.38,0,0.75-0.38,1.04,0.23c0.28,0.61,0.99,0.42,1.2,0.71c0.22,0.28,0.66,0.99,0.89,1.21s0.84,0.33,0.84-0.15
	c0-0.47,0.14-1.55,0.38-1.5c0.23,0.05,0-0.66,0.28-0.9c0.28-0.23,0.42-1.27,0.7-1.55c0.28-0.28,0.19-2.08,0.47-2.41
	c0.28-0.34,0.84-1.13,0.8-1.56c-0.04-0.42-0.19-0.8-0.05-0.89c0.14-0.09-1.13-1.42-1.46-2.03c-0.33-0.61-0.7-0.8-0.7-1.6
	c0,0-4.82,1.6-5.74-1.21c-0.92-2.8-0.2-5.03-0.76-5.28c-0.56-0.25-2.05-0.96-3.61,0.77c-1.56,1.73-2.46,3.02-3.85,3.12
	C27.75,24.73,26.23,24.79,25.24,23.1L25.24,23.1z"/>
</svg>
