<svg xmlns="http://www.w3.org/2000/svg" preserveAspectRatio="none" fill="none" viewBox="0 0 3840 2160">
<rect width="3840" height="2160" x="0" y="0" fill="#f4f5f3"></rect><path d="M0,1778.51C320.083,1704.965,483.335,1359.458,762.75,1186.862C1049.649,1009.643,1459.482,1030.475,1655.366,755.98C1857.597,472.592,1849.432,85.763,1793.76,-257.904C1738.693,-597.839,1605.379,-940.31,1344.217,-1164.77C1096.1,-1378.017,737.358,-1350.122,421.925,-1436.946C113.112,-1521.948,-182.042,-1756.806,-490.274,-1669.722C-798.807,-1582.553,-967.264,-1259.34,-1146.826,-993.731C-1308.394,-754.738,-1404.762,-491.805,-1475.639,-212.165C-1554.26,98.026,-1658.761,411.775,-1581.79,722.379C-1496.955,1064.716,-1320.355,1402.254,-1027.035,1598.098C-731.985,1795.097,-345.762,1857.955,0,1778.51" fill="#ffc037"></path><path d="M3840 3811.3720000000003C4157.811 3878.365 4515.972 3810.554 4773.826 3613.062 5026.202 3419.766 5103.861 3082.651 5190.716 2776.851 5266.978 2508.3450000000003 5257.278 2236.958 5243.86 1958.155 5229.023 1649.854 5270.372 1323.733 5108.147 1061.145 4935.139 781.1030000000001 4650.832 566.463 4332.446 482.88200000000006 4017.762 400.2729999999999 3661.934 438.741 3384.486 608.6600000000001 3128.103 765.6780000000001 3083.797 1108.82 2909.924 1354.085 2758.112 1568.232 2525.318 1713.046 2428.576 1957.068 2314.85 2243.931 2168.605 2584.729 2314.1679999999997 2856.824 2460.525 3130.4030000000002 2865.964 3101.785 3129 3266.3379999999997 3387.399 3427.99 3541.757 3748.5029999999997 3840 3811.3720000000003" fill="#cfe0dc"></path><defs><rect width="3840" height="2160" fill="#cfe0dc"></rect></defs></svg>